<svg width="516" height="143" viewBox="0 0 516 143" fill="none" xmlns="http://www.w3.org/2000/svg">
<path d="M514.5 2L457 118H326" stroke="#F89494" stroke-width="2" stroke-linecap="square"/>
<path d="M0.34 118L4.1 104.9H6.02L9.64 118H8.46L7.64 114.98H2.34L1.5 118H0.34ZM7.38 113.98L5.22 105.9H4.88L2.62 113.98H7.38ZM11.56 117.54L11.82 116.5C13.14 116.94 14.16 117.16 14.88 117.16C15.6 117.16 16.1533 117.007 16.54 116.7C16.94 116.38 17.14 115.96 17.14 115.44C17.14 114.92 16.98 114.54 16.66 114.3C16.3533 114.047 15.7067 113.807 14.72 113.58C13.7333 113.353 12.9933 113.027 12.5 112.6C12.0067 112.2 11.76 111.6 11.76 110.8C11.76 110 12.06 109.393 12.66 108.98C13.2733 108.553 14.06 108.34 15.02 108.34C15.98 108.34 17.02 108.553 18.14 108.98L17.86 109.92C16.7267 109.547 15.8133 109.36 15.12 109.36C14.4267 109.36 13.88 109.48 13.48 109.72C13.08 109.987 12.88 110.347 12.88 110.8C12.88 111.253 13.0533 111.607 13.4 111.86C13.76 112.113 14.4467 112.367 15.46 112.62C16.4733 112.873 17.1933 113.2 17.62 113.6C18.0467 113.987 18.26 114.6 18.26 115.44C18.26 116.28 17.9733 116.947 17.4 117.44C16.84 117.933 16.04 118.18 15 118.18C13.96 118.18 12.8133 117.967 11.56 117.54ZM21.94 118V104.7H23V112.8L24.7 112.6C25.5267 111.587 26.3333 110.427 27.12 109.12L27.5 108.5H28.7C27.66 110.327 26.6467 111.833 25.66 113.02C26.5933 114.207 27.5133 115.607 28.42 117.22L28.86 118H27.62C26.7133 116.293 25.78 114.82 24.82 113.58L23 113.76V118H21.94ZM31.66 118V117H34.58V109.5H31.66V108.5H35.64V117H38.56V118H31.66ZM34.16 105.68C34.16 105.413 34.2333 105.207 34.38 105.06C34.54 104.913 34.7533 104.84 35.02 104.84C35.5667 104.84 35.84 105.133 35.84 105.72C35.84 106.307 35.5667 106.593 35.02 106.58C34.4467 106.58 34.16 106.28 34.16 105.68ZM42.54 108.5L42.58 109.3C43.8733 108.687 44.9467 108.38 45.8 108.38C46.6533 108.38 47.32 108.673 47.8 109.26C48.2933 109.847 48.54 110.647 48.54 111.66V118H47.48V111.66C47.48 111.007 47.32 110.467 47 110.04C46.68 109.627 46.2 109.42 45.56 109.42C44.92 109.42 43.9267 109.713 42.58 110.3V118H41.52V108.5H42.54ZM54.78 118C53.58 118 52.66 117.587 52.02 116.76C51.38 115.933 51.06 114.767 51.06 113.26C51.06 111.74 51.4133 110.547 52.12 109.68C52.84 108.813 53.84 108.38 55.12 108.38C55.8267 108.38 56.62 108.613 57.5 109.08L57.54 108.5H58.56V115.7C58.76 117.287 58.86 118.207 58.86 118.46C58.86 119.633 58.4667 120.513 57.68 121.1C56.8933 121.7 55.9667 122 54.9 122C53.8467 122 52.6467 121.733 51.3 121.2L51.66 120.2C52.98 120.707 54.0333 120.96 54.82 120.96C55.62 120.96 56.3133 120.753 56.9 120.34C57.5 119.927 57.8 119.307 57.8 118.48L57.62 116.9C56.5667 117.633 55.62 118 54.78 118ZM55.16 109.38C54.2133 109.38 53.4733 109.733 52.94 110.44C52.4067 111.133 52.14 112.067 52.14 113.24C52.14 114.4 52.3733 115.32 52.84 116C53.3067 116.667 53.96 117 54.8 117C55.64 117 56.54 116.6 57.5 115.8V110.2C56.6333 109.653 55.8533 109.38 55.16 109.38ZM78.26 108.5H79.3L78.16 118H76.04L75.02 113.86H74.94L73.9 118H71.8L70.7 108.5H71.74L72.78 117.04H73.14L74.48 112.22H75.52L76.86 117.04H77.22L78.26 108.5ZM82.62 110.24V118H81.56V104.72H82.62V109.22C83.8733 108.66 84.9067 108.38 85.72 108.38C87.6267 108.38 88.58 109.473 88.58 111.66V118H87.52V111.66C87.52 110.98 87.3733 110.44 87.08 110.04C86.7867 109.627 86.28 109.42 85.56 109.42C84.84 109.42 83.86 109.693 82.62 110.24ZM91.1 108.5H92.3L95.12 116.58H95.28L97.8 108.5H99L95.32 119.62C94.9733 120.673 94.6067 121.347 94.22 121.64C93.8467 121.933 93.08 122.093 91.92 122.12V121.1C92.6667 121.087 93.1667 120.98 93.42 120.78C93.6733 120.58 93.9067 120.16 94.12 119.52L94.58 118.14L91.1 108.5ZM111.66 118V117H114.58V109.5H111.66V108.5H115.64V117H118.56V118H111.66ZM114.16 105.68C114.16 105.413 114.233 105.207 114.38 105.06C114.54 104.913 114.753 104.84 115.02 104.84C115.567 104.84 115.84 105.133 115.84 105.72C115.84 106.307 115.567 106.593 115.02 106.58C114.447 106.58 114.16 106.28 114.16 105.68ZM121.12 109.76V108.76H123.06V106.34L124.12 106.14V108.76H128.7V109.76H124.12V114.32C124.12 115.333 124.267 116.067 124.56 116.52C124.867 116.96 125.407 117.18 126.18 117.18C126.473 117.18 126.927 117.133 127.54 117.04C128.153 116.933 128.573 116.84 128.8 116.76L129.04 117.74C128.787 117.833 128.32 117.933 127.64 118.04C126.973 118.147 126.487 118.2 126.18 118.2C124.98 118.2 124.16 117.887 123.72 117.26C123.28 116.62 123.06 115.653 123.06 114.36V109.76H121.12ZM133.78 108.56L134.94 104.42L136.22 104.76L134.62 108.78L133.78 108.56ZM141.56 117.54L141.82 116.5C143.14 116.94 144.16 117.16 144.88 117.16C145.6 117.16 146.153 117.007 146.54 116.7C146.94 116.38 147.14 115.96 147.14 115.44C147.14 114.92 146.98 114.54 146.66 114.3C146.353 114.047 145.707 113.807 144.72 113.58C143.733 113.353 142.993 113.027 142.5 112.6C142.007 112.2 141.76 111.6 141.76 110.8C141.76 110 142.06 109.393 142.66 108.98C143.273 108.553 144.06 108.34 145.02 108.34C145.98 108.34 147.02 108.553 148.14 108.98L147.86 109.92C146.727 109.547 145.813 109.36 145.12 109.36C144.427 109.36 143.88 109.48 143.48 109.72C143.08 109.987 142.88 110.347 142.88 110.8C142.88 111.253 143.053 111.607 143.4 111.86C143.76 112.113 144.447 112.367 145.46 112.62C146.473 112.873 147.193 113.2 147.62 113.6C148.047 113.987 148.26 114.6 148.26 115.44C148.26 116.28 147.973 116.947 147.4 117.44C146.84 117.933 146.04 118.18 145 118.18C143.96 118.18 142.813 117.967 141.56 117.54ZM161.56 117.54L161.82 116.5C163.14 116.94 164.16 117.16 164.88 117.16C165.6 117.16 166.153 117.007 166.54 116.7C166.94 116.38 167.14 115.96 167.14 115.44C167.14 114.92 166.98 114.54 166.66 114.3C166.353 114.047 165.707 113.807 164.72 113.58C163.733 113.353 162.993 113.027 162.5 112.6C162.007 112.2 161.76 111.6 161.76 110.8C161.76 110 162.06 109.393 162.66 108.98C163.273 108.553 164.06 108.34 165.02 108.34C165.98 108.34 167.02 108.553 168.14 108.98L167.86 109.92C166.727 109.547 165.813 109.36 165.12 109.36C164.427 109.36 163.88 109.48 163.48 109.72C163.08 109.987 162.88 110.347 162.88 110.8C162.88 111.253 163.053 111.607 163.4 111.86C163.76 112.113 164.447 112.367 165.46 112.62C166.473 112.873 167.193 113.2 167.62 113.6C168.047 113.987 168.26 114.6 168.26 115.44C168.26 116.28 167.973 116.947 167.4 117.44C166.84 117.933 166.04 118.18 165 118.18C163.96 118.18 162.813 117.967 161.56 117.54ZM171.54 121.84V110.22L171.36 108.48L172.36 108.36L172.54 109.44C173.513 108.733 174.44 108.38 175.32 108.38C176.507 108.38 177.427 108.813 178.08 109.68C178.733 110.547 179.06 111.74 179.06 113.26C179.06 114.78 178.7 115.98 177.98 116.86C177.26 117.74 176.26 118.18 174.98 118.18C174.233 118.18 173.44 118 172.6 117.64V121.84H171.54ZM177.92 113.3C177.92 112.113 177.693 111.173 177.24 110.48C176.787 109.773 176.133 109.42 175.28 109.42C174.44 109.42 173.547 109.8 172.6 110.56V116.56C172.88 116.693 173.26 116.827 173.74 116.96C174.233 117.08 174.633 117.14 174.94 117.14C175.887 117.14 176.62 116.793 177.14 116.1C177.66 115.407 177.92 114.473 177.92 113.3ZM181.66 118V117H184.58V109.5H181.66V108.5H185.64V117H188.56V118H181.66ZM184.16 105.68C184.16 105.413 184.233 105.207 184.38 105.06C184.54 104.913 184.753 104.84 185.02 104.84C185.567 104.84 185.84 105.133 185.84 105.72C185.84 106.307 185.567 106.593 185.02 106.58C184.447 106.58 184.16 106.28 184.16 105.68ZM191.9 118V117H194.96V105.68L191.98 105.7L191.96 104.72L196.02 104.7V117H199.18V118H191.9ZM201.9 118V117H204.96V105.68L201.98 105.7L201.96 104.72L206.02 104.7V117H209.18V118H201.9ZM211.34 113.26C211.34 111.727 211.653 110.533 212.28 109.68C212.92 108.813 213.847 108.38 215.06 108.38C216.273 108.38 217.173 108.78 217.76 109.58C218.36 110.38 218.66 111.447 218.66 112.78L218.6 113.78H212.48C212.547 114.78 212.813 115.593 213.28 116.22C213.747 116.833 214.387 117.14 215.2 117.14C216.027 117.14 216.993 116.947 218.1 116.56L218.4 117.56C217.32 117.973 216.307 118.18 215.36 118.18C214.053 118.18 213.053 117.747 212.36 116.88C211.68 116 211.34 114.793 211.34 113.26ZM215.14 109.4C213.46 109.4 212.573 110.527 212.48 112.78H217.52C217.52 110.527 216.727 109.4 215.14 109.4ZM228.56 104.72V116.34L228.76 118.08L227.74 118.2L227.54 117.14C226.54 117.833 225.62 118.18 224.78 118.18C223.593 118.18 222.667 117.74 222 116.86C221.347 115.98 221.02 114.787 221.02 113.28C221.02 111.76 221.387 110.567 222.12 109.7C222.853 108.82 223.853 108.38 225.12 108.38C225.867 108.38 226.66 108.56 227.5 108.92V104.72H228.56ZM222.16 113.24C222.16 114.413 222.387 115.36 222.84 116.08C223.307 116.787 223.973 117.14 224.84 117.14C225.707 117.14 226.593 116.76 227.5 116V110C227.22 109.867 226.833 109.74 226.34 109.62C225.86 109.487 225.467 109.42 225.16 109.42C224.213 109.42 223.473 109.767 222.94 110.46C222.42 111.14 222.16 112.067 222.16 113.24ZM233.9 118.12V116.26H235.6V118.12H233.9ZM235.12 104.34C236.093 104.34 236.9 104.607 237.54 105.14C238.193 105.66 238.52 106.353 238.52 107.22C238.52 108.073 238.4 108.74 238.16 109.22C237.92 109.687 237.447 110.253 236.74 110.92C236.033 111.573 235.587 112.047 235.4 112.34C235.227 112.633 235.14 112.993 235.14 113.42C235.14 113.847 235.153 114.3 235.18 114.78L234.14 114.82C234.033 114.393 233.98 113.9 233.98 113.34C233.98 112.767 234.093 112.3 234.32 111.94C234.547 111.567 235.013 111.047 235.72 110.38C236.427 109.713 236.873 109.193 237.06 108.82C237.26 108.447 237.36 107.96 237.36 107.36C237.36 106.76 237.153 106.28 236.74 105.92C236.34 105.56 235.84 105.38 235.24 105.38C234.64 105.38 234.107 105.507 233.64 105.76C233.173 106 232.613 106.373 231.96 106.88L231.36 106.06C232.107 105.473 232.76 105.04 233.32 104.76C233.88 104.48 234.48 104.34 235.12 104.34ZM1.54 138V124.72H2.6V129.42C3.6 128.727 4.50667 128.38 5.32 128.38C6.52 128.38 7.44667 128.793 8.1 129.62C8.75333 130.433 9.08 131.6 9.08 133.12C9.08 134.64 8.71333 135.867 7.98 136.8C7.24667 137.72 6.24667 138.18 4.98 138.18C4.20667 138.18 3.40667 137.987 2.58 137.6L2.54 138H1.54ZM7.94 133.14C7.94 131.967 7.70667 131.053 7.24 130.4C6.78667 129.747 6.12667 129.42 5.26 129.42C4.39333 129.42 3.50667 129.8 2.6 130.56V136.56C2.88 136.693 3.26 136.827 3.74 136.96C4.23333 137.08 4.63333 137.14 4.94 137.14C5.87333 137.14 6.60667 136.767 7.14 136.02C7.67333 135.273 7.94 134.313 7.94 133.14ZM11.62 138V137H13.9V129.5H11.62V128.5H14.96L15 129.66C15.4267 129.393 16.0267 129.127 16.8 128.86C17.5733 128.593 18.2533 128.433 18.84 128.38H19.06V129.56H18.84C18.2933 129.6 17.6133 129.733 16.8 129.96C16 130.187 15.4 130.42 15 130.66V137H18.2V138H11.62ZM27.48 138L27.44 137.18C26.16 137.847 25.0933 138.18 24.24 138.18C23.3867 138.18 22.7133 137.887 22.22 137.3C21.7267 136.713 21.48 135.913 21.48 134.9V128.5H22.54V134.9C22.54 135.553 22.6933 136.093 23 136.52C23.32 136.933 23.8 137.14 24.44 137.14C25.08 137.14 26.08 136.807 27.44 136.14V128.5H28.5V138H27.48ZM32.62 130.24V138H31.56V124.72H32.62V129.22C33.8733 128.66 34.9067 128.38 35.72 128.38C37.6267 128.38 38.58 129.473 38.58 131.66V138H37.52V131.66C37.52 130.98 37.3733 130.44 37.08 130.04C36.7867 129.627 36.28 129.42 35.56 129.42C34.84 129.42 33.86 129.693 32.62 130.24ZM42.62 130.24V138H41.56V124.72H42.62V129.22C43.8733 128.66 44.9067 128.38 45.72 128.38C47.6267 128.38 48.58 129.473 48.58 131.66V138H47.52V131.66C47.52 130.98 47.3733 130.44 47.08 130.04C46.7867 129.627 46.28 129.42 45.56 129.42C44.84 129.42 43.86 129.693 42.62 130.24ZM52.62 130.24V138H51.56V124.72H52.62V129.22C53.8733 128.66 54.9067 128.38 55.72 128.38C57.6267 128.38 58.58 129.473 58.58 131.66V138H57.52V131.66C57.52 130.98 57.3733 130.44 57.08 130.04C56.7867 129.627 56.28 129.42 55.56 129.42C54.84 129.42 53.86 129.693 52.62 130.24ZM63.5 138V135.58H65.7V138H63.5ZM73.5 138V135.58H75.7V138H73.5ZM83.5 138V135.58H85.7V138H83.5ZM101.12 129.76V128.76H103.06V126.34L104.12 126.14V128.76H108.7V129.76H104.12V134.32C104.12 135.333 104.267 136.067 104.56 136.52C104.867 136.96 105.407 137.18 106.18 137.18C106.473 137.18 106.927 137.133 107.54 137.04C108.153 136.933 108.573 136.84 108.8 136.76L109.04 137.74C108.787 137.833 108.32 137.933 107.64 138.04C106.973 138.147 106.487 138.2 106.18 138.2C104.98 138.2 104.16 137.887 103.72 137.26C103.28 136.62 103.06 135.653 103.06 134.36V129.76H101.12ZM112.62 130.24V138H111.56V124.72H112.62V129.22C113.873 128.66 114.907 128.38 115.72 128.38C117.627 128.38 118.58 129.473 118.58 131.66V138H117.52V131.66C117.52 130.98 117.373 130.44 117.08 130.04C116.787 129.627 116.28 129.42 115.56 129.42C114.84 129.42 113.86 129.693 112.62 130.24ZM121.66 138V137H124.58V129.5H121.66V128.5H125.64V137H128.56V138H121.66ZM124.16 125.68C124.16 125.413 124.233 125.207 124.38 125.06C124.54 124.913 124.753 124.84 125.02 124.84C125.567 124.84 125.84 125.133 125.84 125.72C125.84 126.307 125.567 126.593 125.02 126.58C124.447 126.58 124.16 126.28 124.16 125.68ZM132.54 128.5L132.58 129.3C133.873 128.687 134.947 128.38 135.8 128.38C136.653 128.38 137.32 128.673 137.8 129.26C138.293 129.847 138.54 130.647 138.54 131.66V138H137.48V131.66C137.48 131.007 137.32 130.467 137 130.04C136.68 129.627 136.2 129.42 135.56 129.42C134.92 129.42 133.927 129.713 132.58 130.3V138H131.52V128.5H132.54ZM144.78 138C143.58 138 142.66 137.587 142.02 136.76C141.38 135.933 141.06 134.767 141.06 133.26C141.06 131.74 141.413 130.547 142.12 129.68C142.84 128.813 143.84 128.38 145.12 128.38C145.827 128.38 146.62 128.613 147.5 129.08L147.54 128.5H148.56V135.7C148.76 137.287 148.86 138.207 148.86 138.46C148.86 139.633 148.467 140.513 147.68 141.1C146.893 141.7 145.967 142 144.9 142C143.847 142 142.647 141.733 141.3 141.2L141.66 140.2C142.98 140.707 144.033 140.96 144.82 140.96C145.62 140.96 146.313 140.753 146.9 140.34C147.5 139.927 147.8 139.307 147.8 138.48L147.62 136.9C146.567 137.633 145.62 138 144.78 138ZM145.16 129.38C144.213 129.38 143.473 129.733 142.94 130.44C142.407 131.133 142.14 132.067 142.14 133.24C142.14 134.4 142.373 135.32 142.84 136C143.307 136.667 143.96 137 144.8 137C145.64 137 146.54 136.6 147.5 135.8V130.2C146.633 129.653 145.853 129.38 145.16 129.38ZM151.56 137.54L151.82 136.5C153.14 136.94 154.16 137.16 154.88 137.16C155.6 137.16 156.153 137.007 156.54 136.7C156.94 136.38 157.14 135.96 157.14 135.44C157.14 134.92 156.98 134.54 156.66 134.3C156.353 134.047 155.707 133.807 154.72 133.58C153.733 133.353 152.993 133.027 152.5 132.6C152.007 132.2 151.76 131.6 151.76 130.8C151.76 130 152.06 129.393 152.66 128.98C153.273 128.553 154.06 128.34 155.02 128.34C155.98 128.34 157.02 128.553 158.14 128.98L157.86 129.92C156.727 129.547 155.813 129.36 155.12 129.36C154.427 129.36 153.88 129.48 153.48 129.72C153.08 129.987 152.88 130.347 152.88 130.8C152.88 131.253 153.053 131.607 153.4 131.86C153.76 132.113 154.447 132.367 155.46 132.62C156.473 132.873 157.193 133.2 157.62 133.6C158.047 133.987 158.26 134.6 158.26 135.44C158.26 136.28 157.973 136.947 157.4 137.44C156.84 137.933 156.04 138.18 155 138.18C153.96 138.18 152.813 137.967 151.56 137.54ZM172.62 130.24V138H171.56V124.72H172.62V129.22C173.873 128.66 174.907 128.38 175.72 128.38C177.627 128.38 178.58 129.473 178.58 131.66V138H177.52V131.66C177.52 130.98 177.373 130.44 177.08 130.04C176.787 129.627 176.28 129.42 175.56 129.42C174.84 129.42 173.86 129.693 172.62 130.24ZM184.36 137.14C184.853 137.14 185.387 136.987 185.96 136.68C186.547 136.36 186.973 136.067 187.24 135.8V133.42C186.36 133.353 185.52 133.32 184.72 133.32C183.92 133.32 183.32 133.493 182.92 133.84C182.52 134.173 182.32 134.627 182.32 135.2C182.32 136.493 183 137.14 184.36 137.14ZM184.34 138.18C183.367 138.18 182.6 137.933 182.04 137.44C181.48 136.933 181.2 136.22 181.2 135.3C181.2 134.38 181.507 133.667 182.12 133.16C182.733 132.64 183.547 132.38 184.56 132.38C185.573 132.38 186.467 132.42 187.24 132.5C187.24 131.313 187.093 130.507 186.8 130.08C186.507 129.64 185.913 129.42 185.02 129.42C184.127 129.42 183.073 129.633 181.86 130.06L181.56 129.06C182.8 128.607 183.92 128.38 184.92 128.38C186.24 128.38 187.133 128.673 187.6 129.26C188.067 129.847 188.3 130.873 188.3 132.34V136.54L188.46 138.06L187.44 138.16L187.24 136.96C186.933 137.227 186.5 137.5 185.94 137.78C185.38 138.047 184.847 138.18 184.34 138.18ZM191.54 141.84V130.22L191.36 128.48L192.36 128.36L192.54 129.44C193.513 128.733 194.44 128.38 195.32 128.38C196.507 128.38 197.427 128.813 198.08 129.68C198.733 130.547 199.06 131.74 199.06 133.26C199.06 134.78 198.7 135.98 197.98 136.86C197.26 137.74 196.26 138.18 194.98 138.18C194.233 138.18 193.44 138 192.6 137.64V141.84H191.54ZM197.92 133.3C197.92 132.113 197.693 131.173 197.24 130.48C196.787 129.773 196.133 129.42 195.28 129.42C194.44 129.42 193.547 129.8 192.6 130.56V136.56C192.88 136.693 193.26 136.827 193.74 136.96C194.233 137.08 194.633 137.14 194.94 137.14C195.887 137.14 196.62 136.793 197.14 136.1C197.66 135.407 197.92 134.473 197.92 133.3ZM201.54 141.84V130.22L201.36 128.48L202.36 128.36L202.54 129.44C203.513 128.733 204.44 128.38 205.32 128.38C206.507 128.38 207.427 128.813 208.08 129.68C208.733 130.547 209.06 131.74 209.06 133.26C209.06 134.78 208.7 135.98 207.98 136.86C207.26 137.74 206.26 138.18 204.98 138.18C204.233 138.18 203.44 138 202.6 137.64V141.84H201.54ZM207.92 133.3C207.92 132.113 207.693 131.173 207.24 130.48C206.787 129.773 206.133 129.42 205.28 129.42C204.44 129.42 203.547 129.8 202.6 130.56V136.56C202.88 136.693 203.26 136.827 203.74 136.96C204.233 137.08 204.633 137.14 204.94 137.14C205.887 137.14 206.62 136.793 207.14 136.1C207.66 135.407 207.92 134.473 207.92 133.3ZM211.34 133.26C211.34 131.727 211.653 130.533 212.28 129.68C212.92 128.813 213.847 128.38 215.06 128.38C216.273 128.38 217.173 128.78 217.76 129.58C218.36 130.38 218.66 131.447 218.66 132.78L218.6 133.78H212.48C212.547 134.78 212.813 135.593 213.28 136.22C213.747 136.833 214.387 137.14 215.2 137.14C216.027 137.14 216.993 136.947 218.1 136.56L218.4 137.56C217.32 137.973 216.307 138.18 215.36 138.18C214.053 138.18 213.053 137.747 212.36 136.88C211.68 136 211.34 134.793 211.34 133.26ZM215.14 129.4C213.46 129.4 212.573 130.527 212.48 132.78H217.52C217.52 130.527 216.727 129.4 215.14 129.4ZM222.54 128.5L222.58 129.3C223.873 128.687 224.947 128.38 225.8 128.38C226.653 128.38 227.32 128.673 227.8 129.26C228.293 129.847 228.54 130.647 228.54 131.66V138H227.48V131.66C227.48 131.007 227.32 130.467 227 130.04C226.68 129.627 226.2 129.42 225.56 129.42C224.92 129.42 223.927 129.713 222.58 130.3V138H221.52V128.5H222.54ZM241.66 138V137H244.58V129.5H241.66V128.5H245.64V137H248.56V138H241.66ZM244.16 125.68C244.16 125.413 244.233 125.207 244.38 125.06C244.54 124.913 244.753 124.84 245.02 124.84C245.567 124.84 245.84 125.133 245.84 125.72C245.84 126.307 245.567 126.593 245.02 126.58C244.447 126.58 244.16 126.28 244.16 125.68ZM252.54 128.5L252.58 129.3C253.873 128.687 254.947 128.38 255.8 128.38C256.653 128.38 257.32 128.673 257.8 129.26C258.293 129.847 258.54 130.647 258.54 131.66V138H257.48V131.66C257.48 131.007 257.32 130.467 257 130.04C256.68 129.627 256.2 129.42 255.56 129.42C254.92 129.42 253.927 129.713 252.58 130.3V138H251.52V128.5H252.54ZM271.54 138V124.72H272.6V129.42C273.6 128.727 274.507 128.38 275.32 128.38C276.52 128.38 277.447 128.793 278.1 129.62C278.753 130.433 279.08 131.6 279.08 133.12C279.08 134.64 278.713 135.867 277.98 136.8C277.247 137.72 276.247 138.18 274.98 138.18C274.207 138.18 273.407 137.987 272.58 137.6L272.54 138H271.54ZM277.94 133.14C277.94 131.967 277.707 131.053 277.24 130.4C276.787 129.747 276.127 129.42 275.26 129.42C274.393 129.42 273.507 129.8 272.6 130.56V136.56C272.88 136.693 273.26 136.827 273.74 136.96C274.233 137.08 274.633 137.14 274.94 137.14C275.873 137.14 276.607 136.767 277.14 136.02C277.673 135.273 277.94 134.313 277.94 133.14ZM281.94 138V124.7H283V132.8L284.7 132.6C285.527 131.587 286.333 130.427 287.12 129.12L287.5 128.5H288.7C287.66 130.327 286.647 131.833 285.66 133.02C286.593 134.207 287.513 135.607 288.42 137.22L288.86 138H287.62C286.713 136.293 285.78 134.82 284.82 133.58L283 133.76V138H281.94ZM291.9 138V137H294.96V125.68L291.98 125.7L291.96 124.72L296.02 124.7V137H299.18V138H291.9Z" fill="black"/>
</svg>
