<svg width="549" height="391" viewBox="0 0 549 391" fill="none" xmlns="http://www.w3.org/2000/svg">
<path d="M546.603 96.9294C438.011 64.8593 377.042 66.2019 268.323 96.375C169.294 116.726 45.1612 124.718 2.03707 95.8441" stroke="#F89494" stroke-width="3" stroke-linecap="round"/>
<path d="M546.603 137.691C438.011 105.621 377.042 106.963 268.323 137.136C169.294 157.487 45.1612 165.479 2.03707 136.606" stroke="#F89494" stroke-width="3" stroke-linecap="round" stroke-dasharray="6 6"/>
<path d="M546.603 179.811C438.011 147.741 377.042 149.083 268.323 179.256C169.294 199.607 45.1612 207.599 2.03707 178.725" stroke="#F89494" stroke-width="3" stroke-linecap="round" stroke-dasharray="6 6"/>
<path d="M546.603 223.29C438.011 191.219 377.042 192.562 268.323 222.735C169.294 243.086 45.1612 251.078 2.03707 222.204" stroke="#F89494" stroke-width="3" stroke-linecap="round" stroke-dasharray="6 6"/>
<path d="M546.603 273.562C438.011 241.492 377.042 242.834 268.323 273.008C169.294 293.358 45.1612 301.35 2.03707 272.477" stroke="#F89494" stroke-width="3" stroke-linecap="round"/>
<circle cx="147" cy="360.5" r="30" fill="#F89494"/>
<path d="M308 4H509" stroke="#F89494" stroke-width="7" stroke-linecap="round"/>
<path d="M48.1307 73.256C47.8747 73.256 47.6614 73.1707 47.4907 73C47.1921 72.7013 46.9361 72.3813 46.7227 72.04C46.5094 71.6987 46.4027 71.272 46.4027 70.76C46.4027 70.0773 46.6161 69.16 47.0427 68.008C47.4694 66.8987 48.1734 65.384 49.1547 63.464C51.2454 59.4107 53.9334 55.2933 57.2188 51.112C60.5468 46.9307 64.0668 43.0267 67.7788 39.4C68.1628 39.016 68.6321 38.696 69.1868 38.44C69.7414 38.1413 70.2108 37.8 70.5948 37.416C70.8081 37.2453 70.9361 37.1173 70.9788 37.032C71.0214 36.9467 71.0428 36.8827 71.0428 36.84V36.776C71.0428 36.6907 71.0641 36.6053 71.1068 36.52C71.1921 36.392 71.3414 36.2427 71.5548 36.072C73.2614 34.5787 74.8828 33.1067 76.4188 31.656C77.9548 30.2053 79.4268 29.0107 80.8348 28.072C82.2428 27.1333 83.6081 26.664 84.9308 26.664C85.1014 26.664 85.2508 26.6853 85.3787 26.728C85.5494 26.728 85.7201 26.7493 85.8908 26.792C86.3174 26.8347 86.6588 26.8987 86.9148 26.984C87.2134 27.0267 87.3628 27.176 87.3628 27.432C87.3628 27.688 87.1068 28.1787 86.5948 28.904C85.5708 30.2693 84.6534 31.976 83.8428 34.024C83.0748 36.0293 82.3921 38.1627 81.7948 40.424C81.2401 42.6427 80.7494 44.7547 80.3228 46.76C79.8961 48.7653 79.5334 50.4293 79.2348 51.752C79.1068 52.392 79.0428 52.776 79.0428 52.904C79.0428 53.0747 79.0641 53.2027 79.1068 53.288C79.1921 53.3307 79.2561 53.4373 79.2988 53.608C79.3414 53.736 79.4481 54.0133 79.6188 54.44C79.8321 54.8667 79.9388 55.016 79.9388 54.888C81.4748 54.1627 82.9681 53.1387 84.4188 51.816C85.9121 50.4933 87.6188 48.8293 89.5388 46.824C91.5014 44.776 93.9548 42.344 96.8988 39.528C97.1974 39.272 97.4534 39.1013 97.6668 39.016C97.8801 38.9307 98.0721 38.8027 98.2428 38.632C98.3281 38.5467 98.4348 38.376 98.5628 38.12C98.6908 37.864 98.8401 37.672 99.0108 37.544C100.76 35.7947 102.424 34.0027 104.003 32.168C105.581 30.3333 107.373 28.5627 109.379 26.856C109.549 26.728 109.699 26.5147 109.827 26.216C109.997 25.9173 110.168 25.6827 110.339 25.512C110.424 25.3413 110.445 25.1707 110.403 25C110.403 24.7867 110.509 24.5733 110.723 24.36C110.893 24.232 111.128 24.1253 111.427 24.04C111.768 23.9547 112.024 23.8267 112.195 23.656C112.536 23.4 112.984 23.272 113.539 23.272C114.307 23.272 115.053 23.5067 115.779 23.976C116.547 24.4027 116.931 24.936 116.931 25.576C116.931 26.0027 116.76 26.3867 116.419 26.728C116.163 27.0267 115.821 27.304 115.395 27.56C115.011 27.7733 114.669 28.0507 114.371 28.392C114.157 28.6907 113.816 28.968 113.347 29.224C112.92 29.4373 112.621 29.6507 112.451 29.864C110.232 32.424 108.269 35.0053 106.563 37.608C104.856 40.168 103.256 42.728 101.763 45.288C100.44 47.6347 99.2241 50.024 98.1148 52.456C97.0481 54.8453 96.1734 56.9787 95.4908 58.856C94.8508 60.7333 94.4668 62.0773 94.3388 62.888C94.2961 63.3147 94.1894 63.784 94.0188 64.296C93.8481 64.808 93.8054 65.1067 93.8908 65.192C94.0188 65.3627 94.1254 65.5547 94.2108 65.768C94.3388 66.024 94.4028 66.3013 94.4028 66.6C94.4028 67.1973 94.0828 67.7093 93.4428 68.136C93.3574 68.1787 93.2508 68.2 93.1228 68.2C92.8241 68.2 92.5681 68.072 92.3548 67.816C92.1841 67.56 91.9921 67.2827 91.7788 66.984C91.6508 66.6853 91.5441 66.4293 91.4588 66.216C91.3734 66.0027 91.3308 65.768 91.3308 65.512C91.3308 65.256 91.3948 64.936 91.5228 64.552C91.5654 64.5093 91.5868 64.4453 91.5868 64.36C91.5868 64.1467 91.5228 63.9333 91.3948 63.72C91.2668 63.464 91.2454 63.1867 91.3308 62.888C91.5441 62.2907 91.6934 61.5013 91.7788 60.52C91.9068 59.5387 92.1201 58.7067 92.4188 58.024C93.1014 56.5733 93.6561 55.1867 94.0828 53.864C94.5094 52.5413 94.9574 51.24 95.4268 49.96C95.8961 48.6373 96.5361 47.3573 97.3468 46.12C97.3468 46.12 97.4321 45.8427 97.6028 45.288C97.7734 44.6907 97.9228 44.2853 98.0508 44.072L98.1148 44.008C99.1388 42.472 99.8641 41.32 100.291 40.552C100.717 39.784 101.037 39.1653 101.251 38.696C101.464 38.2267 101.763 37.6933 102.147 37.096L101.891 37.352L101.827 37.48C98.9681 40.2107 96.6641 42.4293 94.9148 44.136C93.2081 45.8 91.8428 47.144 90.8188 48.168C89.8374 49.192 89.0054 50.024 88.3228 50.664C87.6828 51.304 87.0001 51.9227 86.2748 52.52C85.5921 53.0747 84.6961 53.7787 83.5868 54.632C83.2881 54.8453 82.9894 55.1653 82.6908 55.592C82.3921 55.976 82.0934 56.2747 81.7948 56.488V56.424C81.4534 56.6373 81.0694 56.9147 80.6428 57.256C80.2161 57.5547 79.8108 57.8107 79.4268 58.024C79.2561 58.1093 78.9361 58.216 78.4668 58.344C78.0401 58.472 77.5921 58.536 77.1228 58.536C76.6108 58.536 76.2268 58.4293 75.9708 58.216C75.7148 57.8747 75.5228 57.3627 75.3948 56.68C75.3094 55.9973 75.2668 55.336 75.2668 54.696C75.2668 53.9707 75.3094 53.3947 75.3948 52.968C75.7361 51.6027 75.9921 50.6 76.1628 49.96C76.3334 49.32 76.4401 48.8933 76.4828 48.68C76.5681 48.4667 76.6108 48.3387 76.6108 48.296C76.6108 48.2107 76.6108 48.0613 76.6108 47.848C76.6108 47.7627 76.6108 47.6133 76.6108 47.4C76.6108 47.144 76.6321 46.8453 76.6748 46.504C76.7174 46.0773 76.8241 45.4373 76.9948 44.584C77.1654 43.688 77.3788 42.8133 77.6348 41.96C77.9334 41.064 78.1894 40.424 78.4028 40.04C78.4881 39.9547 78.5948 39.6133 78.7228 39.016C78.8508 38.376 79.0001 37.672 79.1708 36.904C79.3414 36.136 79.4694 35.4533 79.5548 34.856C79.6401 34.2587 79.6614 33.9387 79.6188 33.896C79.0641 34.1947 77.8908 35.0267 76.0988 36.392C74.3068 37.7573 72.0241 39.8267 69.2508 42.6C68.8668 42.984 68.4401 43.3467 67.9708 43.688C67.5441 43.9867 67.1388 44.328 66.7548 44.712C66.4561 45.0107 65.9868 45.544 65.3468 46.312C64.7068 47.0373 64.0668 47.784 63.4268 48.552C62.7868 49.2773 62.3174 49.7893 62.0188 50.088L59.4588 52.904C57.3254 55.2933 55.6614 57.2773 54.4668 58.856C53.3148 60.4347 52.4188 61.7787 51.7788 62.888C51.1388 63.9547 50.5201 64.9787 49.9228 65.96C49.6668 66.3013 49.5388 66.6427 49.5388 66.984C49.5388 67.3253 49.5388 67.688 49.5388 68.072C49.5388 68.2 49.5388 68.328 49.5388 68.456C49.5388 68.584 49.5174 68.712 49.4748 68.84C49.3468 69.224 49.2828 69.7787 49.2828 70.504C49.3254 71.2293 49.3041 71.7627 49.2188 72.104V72.04C49.1761 72.4667 49.0481 72.7653 48.8347 72.936C48.6214 73.1493 48.3867 73.256 48.1307 73.256ZM100.508 88.936C99.1002 88.936 97.9909 88.4453 97.1802 87.464C96.3269 86.5253 95.7296 85.3947 95.3882 84.072C95.0042 82.792 94.8122 81.64 94.8122 80.616C95.0256 79.6347 95.1962 78.8453 95.3242 78.248C95.4096 77.6933 95.7936 76.9893 96.4762 76.136C96.7749 75.8373 97.0096 75.688 97.1802 75.688C97.3936 75.688 97.5002 75.9013 97.5002 76.328C97.4576 76.7547 97.4362 77.224 97.4362 77.736C97.4362 78.376 97.4362 79.208 97.4362 80.232C97.4362 81.256 97.5216 82.28 97.6922 83.304C97.8202 84.3707 98.1189 85.2453 98.5882 85.928C99.0149 86.6533 99.6549 87.016 100.508 87.016C102.13 87.016 103.559 86.5893 104.796 85.736C106.076 84.9253 107.228 83.8587 108.252 82.536C109.276 81.256 110.236 79.912 111.132 78.504C111.474 77.992 111.858 77.5227 112.284 77.096C112.711 76.6693 113.074 76.2213 113.372 75.752C113.714 75.24 113.97 74.7067 114.14 74.152C114.354 73.5973 114.61 73.1067 114.908 72.68C116.231 70.8453 117.383 68.7973 118.364 66.536C119.346 64.3173 120.434 62.1413 121.628 60.008C121.842 59.5387 122.162 58.8133 122.588 57.832C123.015 56.8507 123.442 55.8693 123.868 54.888C124.295 53.864 124.615 53.096 124.828 52.584C125.17 51.56 125.383 50.9627 125.468 50.792V50.728C125.042 51.0693 124.807 51.2827 124.764 51.368C124.722 51.4107 124.636 51.496 124.508 51.624C124.423 51.7093 124.018 52.0293 123.292 52.584L123.164 52.648C123.122 52.6053 122.887 52.776 122.46 53.16C122.076 53.5013 121.65 53.864 121.18 54.248C120.754 54.632 120.434 54.8667 120.22 54.952C120.007 55.1227 119.602 55.5067 119.004 56.104C118.45 56.6587 118.066 57 117.852 57.128C116.743 58.152 115.655 59.0693 114.588 59.88C113.522 60.648 112.391 61.3947 111.196 62.12C111.154 62.12 111.09 62.184 111.004 62.312C110.962 62.44 110.876 62.5467 110.748 62.632H110.684C110.556 62.7173 110.428 62.76 110.3 62.76C110.172 62.7173 110.066 62.7387 109.98 62.824L108.444 63.528C107.932 63.7413 107.484 63.848 107.1 63.848C106.631 63.848 106.226 63.6987 105.884 63.4C105.543 63.1013 105.372 62.632 105.372 61.992C105.372 61.864 105.372 61.7147 105.372 61.544C105.415 61.3307 105.458 61.1387 105.5 60.968C105.842 59.6453 106.311 58.152 106.908 56.488C107.548 54.7813 108.487 52.9253 109.724 50.92C110.023 50.4507 110.194 50.1093 110.236 49.896C110.322 49.6827 110.364 49.5333 110.364 49.448V49.192C110.364 49.1067 110.386 49 110.428 48.872C110.471 48.744 110.578 48.5307 110.748 48.232C111.09 47.7627 111.282 47.4 111.324 47.144C111.41 46.8453 111.474 46.568 111.516 46.312C111.73 45.8 112.007 45.4587 112.348 45.288C112.69 45.0747 113.01 44.904 113.308 44.776C114.034 44.4773 114.738 44.2 115.42 43.944C116.146 43.6453 116.743 43.496 117.212 43.496C117.81 43.496 118.172 43.752 118.3 44.264C118.343 44.4347 118.364 44.584 118.364 44.712C118.364 44.84 118.364 44.968 118.364 45.096C118.364 45.864 118.13 46.5253 117.66 47.08C117.234 47.6347 116.551 48.296 115.612 49.064C115.271 49.3627 115.015 49.5973 114.844 49.768C114.674 49.9387 114.482 50.1733 114.268 50.472C114.098 50.728 113.799 51.176 113.372 51.816H113.308C112.199 53.48 111.41 54.9093 110.94 56.104C110.471 57.2987 110.151 58.344 109.98 59.24C109.938 59.4533 109.938 59.5813 109.98 59.624C110.023 59.6667 110.108 59.7093 110.236 59.752C110.45 59.8373 110.642 59.8373 110.812 59.752C111.452 59.5387 112.22 59.112 113.116 58.472C114.055 57.7893 114.994 57.064 115.932 56.296C116.871 55.4853 117.703 54.8027 118.428 54.248C118.642 54.0773 118.855 53.9493 119.068 53.864C119.324 53.736 119.516 53.6293 119.644 53.544C119.858 53.3307 120.028 53.1387 120.156 52.968C120.327 52.7973 120.498 52.648 120.668 52.52C122.375 51.1973 123.676 50.024 124.572 49C125.468 47.9333 126.172 47.0373 126.684 46.312C127.196 45.544 127.666 44.9893 128.092 44.648C128.604 44.264 129.052 44.072 129.436 44.072C129.906 44.072 130.268 44.2427 130.524 44.584C130.823 44.9253 130.994 45.2667 131.036 45.608C131.122 45.9493 131.164 46.2907 131.164 46.632C131.164 47.1013 131.079 47.5067 130.908 47.848C130.61 48.2747 130.482 48.6373 130.524 48.936C130.567 49.192 130.46 49.5547 130.204 50.024C129.991 50.4507 129.756 50.9627 129.5 51.56C129.244 52.1573 128.988 52.6267 128.732 52.968C128.391 53.9493 127.9 55.0587 127.26 56.296C126.62 57.5333 125.959 58.7493 125.276 59.944C124.636 61.096 124.082 62.056 123.612 62.824C123.186 63.5493 122.972 63.912 122.972 63.912C122.418 65.3627 121.756 66.8987 120.988 68.52C120.263 70.1413 119.41 71.656 118.428 73.064C117.447 74.4293 116.338 76.008 115.1 77.8C113.906 79.6347 112.562 81.384 111.068 83.048C109.618 84.7547 107.996 86.1627 106.204 87.272C104.455 88.3813 102.556 88.936 100.508 88.936ZM151.368 66.408C151.283 66.2373 151.198 66.1093 151.112 66.024C151.027 65.9387 150.942 65.8533 150.856 65.768C150.686 65.5973 150.6 65.2987 150.6 64.872C150.6 64.2747 150.792 63.592 151.176 62.824C151.603 62.0133 152.222 61.4587 153.032 61.16C153.459 60.0507 153.907 58.984 154.376 57.96C154.888 56.8933 155.23 56.1467 155.4 55.72H155.464C156.147 54.824 156.723 53.9067 157.192 52.968C157.704 51.9867 158.216 51.112 158.728 50.344C158.728 50.344 158.984 49.9813 159.496 49.256C160.051 48.488 160.712 47.5707 161.48 46.504C162.291 45.3947 163.08 44.3067 163.848 43.24C164.616 42.1307 165.256 41.2133 165.768 40.488C166.323 39.7627 166.6 39.4 166.6 39.4C166.686 39.1867 166.899 38.8667 167.24 38.44C167.624 38.0133 167.816 37.7787 167.816 37.736C168.286 37.0533 168.584 36.5413 168.712 36.2C168.84 35.8587 168.99 35.5387 169.16 35.24C169.331 34.8987 169.694 34.408 170.248 33.768C170.376 33.5973 170.611 33.256 170.952 32.744C171.336 32.1893 171.742 31.592 172.168 30.952C172.595 30.312 172.979 29.736 173.32 29.224C173.704 28.712 173.918 28.392 173.96 28.264C174.003 28.2213 174.174 27.9653 174.472 27.496C174.771 26.984 175.112 26.4507 175.496 25.896C175.923 25.2987 176.243 24.8933 176.456 24.68C176.67 24.424 176.99 24.232 177.416 24.104C177.843 23.9333 177.992 23.848 177.864 23.848H177.8C178.355 23.5493 178.91 23.4 179.464 23.4C180.403 23.4 180.979 23.8267 181.192 24.68C181.662 25.2773 181.896 25.8107 181.896 26.28C181.896 26.8347 181.64 27.304 181.128 27.688C180.616 28.072 180.147 28.456 179.72 28.84C179.208 29.2667 178.547 29.9067 177.736 30.76C176.926 31.5707 176.35 32.2107 176.008 32.68C175.667 33.1493 175.134 33.8533 174.408 34.792C173.726 35.7307 173.064 36.648 172.424 37.544C171.784 38.3973 171.336 38.9947 171.08 39.336C170.782 39.6347 170.462 39.912 170.12 40.168C169.822 40.3813 169.523 40.5947 169.224 40.808C168.243 42.1733 167.176 43.688 166.024 45.352C164.872 47.016 163.742 48.616 162.632 50.152C161.566 51.688 160.67 52.9893 159.944 54.056C159.262 55.1227 158.878 55.7627 158.792 55.976C158.494 56.6587 158.238 57.128 158.024 57.384C157.811 57.5973 157.64 57.9387 157.512 58.408C157.512 58.408 157.363 58.7067 157.064 59.304C156.766 59.9013 156.382 60.5627 155.912 61.288C156.083 61.288 156.403 61.3307 156.872 61.416C157.342 61.5013 157.79 61.5653 158.216 61.608C158.686 61.6507 159.006 61.672 159.176 61.672C161.438 61.4587 163.55 61.1813 165.512 60.84C167.518 60.4987 169.352 60.2427 171.016 60.072C171.571 59.9867 172.232 59.944 173 59.944C173.811 59.944 174.515 59.944 175.112 59.944C175.71 59.944 176.008 59.944 176.008 59.944H176.136C176.435 59.944 176.627 60.008 176.712 60.136C176.84 60.264 176.968 60.328 177.096 60.328C177.31 60.328 177.502 60.328 177.672 60.328C177.886 60.328 178.078 60.3067 178.248 60.264C179.059 60.52 179.614 60.84 179.912 61.224C180.083 61.48 180.168 61.7573 180.168 62.056C180.168 62.6107 179.976 63.2293 179.592 63.912C179.208 64.552 178.59 65 177.736 65.256C177.267 65.3413 176.99 65.256 176.904 65C176.862 64.7867 176.819 64.5093 176.776 64.168C176.734 63.8267 176.478 63.592 176.008 63.464C175.454 63.2933 174.984 63.0587 174.6 62.76C174.259 62.4613 174.046 62.3333 173.96 62.376C173.79 62.4187 173.64 62.44 173.512 62.44C173.384 62.44 173.256 62.44 173.128 62.44C172.787 62.44 172.488 62.4187 172.232 62.376C172.019 62.3333 171.656 62.312 171.144 62.312C170.888 62.312 170.568 62.312 170.184 62.312C169.843 62.312 169.395 62.3547 168.84 62.44C167.262 62.6107 165.683 62.824 164.104 63.08C162.526 63.336 160.99 63.6987 159.496 64.168C159.411 64.2107 159.134 64.36 158.664 64.616C158.195 64.8293 157.982 64.936 158.024 64.936H157.96C157.747 65.0213 157.534 65.1707 157.32 65.384C157.15 65.5973 156.915 65.7253 156.616 65.768C156.36 65.768 155.806 65.8107 154.952 65.896C154.142 66.024 153.352 66.1307 152.584 66.216C151.859 66.344 151.496 66.408 151.496 66.408H151.368ZM198.14 37.736C197.756 37.736 197.5 37.608 197.372 37.352C197.286 37.0533 197.222 36.776 197.18 36.52C197.137 36.3067 197.094 36.072 197.052 35.816C197.009 35.56 196.988 35.304 196.988 35.048C196.988 34.7067 197.03 34.408 197.116 34.152C197.244 33.8533 197.457 33.6187 197.756 33.448C198.737 32.936 199.569 32.5733 200.252 32.36C200.934 32.1467 201.489 32.04 201.916 32.04C202.556 32.04 202.982 32.232 203.196 32.616C203.409 33 203.516 33.4907 203.516 34.088C203.516 34.2587 203.516 34.4293 203.516 34.6C203.516 34.728 203.494 34.8987 203.452 35.112C203.324 35.6667 202.897 36.0507 202.172 36.264C201.489 36.4773 200.913 36.6907 200.444 36.904C200.145 37.0747 199.782 37.2667 199.356 37.48C198.972 37.6507 198.609 37.736 198.268 37.736H198.14ZM184.188 65.32C184.017 65.32 183.868 65.192 183.74 64.936C183.654 64.5947 183.548 64.296 183.42 64.04C183.292 63.784 183.228 63.4 183.228 62.888C183.228 62.2907 183.356 61.416 183.612 60.264C183.868 59.112 184.358 57.384 185.084 55.08C185.638 53.3307 186.15 51.9227 186.62 50.856C187.089 49.7893 187.58 48.7653 188.092 47.784V47.72C188.22 47.5493 188.412 47.4 188.668 47.272C188.924 47.144 189.094 47.016 189.18 46.888H189.116C189.201 46.8027 189.222 46.6747 189.18 46.504C189.137 46.2907 189.116 46.0987 189.116 45.928C189.116 45.4587 189.265 45.0747 189.564 44.776C189.905 44.4347 190.246 44.1147 190.588 43.816C190.929 43.4747 191.462 43.0907 192.188 42.664C192.913 42.2373 193.766 41.9387 194.748 41.768C194.876 41.7253 195.004 41.704 195.132 41.704C195.26 41.704 195.388 41.704 195.516 41.704C196.241 41.704 196.796 41.8533 197.18 42.152C197.564 42.4507 197.841 42.7707 198.012 43.112C198.097 43.1973 198.182 43.304 198.268 43.432C198.353 43.56 198.396 43.7093 198.396 43.88C198.396 44.0507 198.31 44.2853 198.14 44.584C198.012 44.84 197.713 45.1813 197.244 45.608C197.03 45.864 196.71 46.1413 196.284 46.44C195.9 46.696 195.537 46.9947 195.196 47.336C194.769 47.7627 194.364 48.232 193.98 48.744C193.596 49.256 193.233 49.7467 192.892 50.216C192.593 50.6427 192.273 51.048 191.932 51.432C191.59 51.7733 191.249 52.136 190.908 52.52C190.737 52.6907 190.609 53.0107 190.524 53.48C190.438 53.9067 190.246 54.2693 189.948 54.568C189.649 54.952 189.308 55.2507 188.924 55.464C188.582 55.6773 188.305 55.976 188.092 56.36V56.296C187.878 56.68 187.644 57.128 187.388 57.64C187.132 58.152 186.876 58.6427 186.62 59.112C186.193 59.9653 185.916 60.6053 185.788 61.032C185.66 61.416 185.596 61.7147 185.596 61.928C185.596 62.184 185.638 62.3547 185.724 62.44C185.852 62.5253 185.873 62.7387 185.788 63.08C185.617 63.464 185.382 63.9333 185.084 64.488C184.828 65.0427 184.529 65.32 184.188 65.32ZM197.837 65.128C197.666 65.128 197.517 65.1067 197.389 65.064C197.261 65.0213 197.154 65 197.069 65C196.514 64.9147 196.237 64.36 196.237 63.336C196.237 62.952 196.279 62.5253 196.365 62.056C196.493 61.544 196.685 60.9893 196.941 60.392V60.456C196.983 60.2427 197.069 60.072 197.197 59.944C197.325 59.7733 197.367 59.6453 197.325 59.56C197.325 59.3467 197.453 58.9413 197.709 58.344C198.007 57.704 198.157 57.3627 198.157 57.32V57.256C198.242 57.0427 198.413 56.7013 198.669 56.232C198.925 55.72 199.095 55.3787 199.181 55.208C199.522 54.5253 199.778 54.0987 199.949 53.928C200.119 53.7573 200.269 53.6293 200.397 53.544C200.567 53.4587 200.759 53.2027 200.973 52.776L201.037 52.712C201.037 52.712 201.058 52.6907 201.101 52.648C201.143 52.5627 201.186 52.4773 201.229 52.392C201.058 52.4347 200.887 52.4987 200.717 52.584C200.589 52.6267 200.397 52.6907 200.141 52.776H200.077C199.863 52.776 199.565 52.6907 199.181 52.52C198.797 52.3067 198.562 52.0933 198.477 51.88C198.391 51.624 198.349 51.432 198.349 51.304C198.349 50.7493 198.562 50.152 198.989 49.512C199.415 48.8293 199.842 48.4027 200.269 48.232H200.333C200.546 48.232 200.823 48.1467 201.165 47.976C201.506 47.8053 201.805 47.6773 202.061 47.592H202.189C202.317 47.592 202.402 47.528 202.445 47.4C202.487 47.2293 202.658 47.1227 202.957 47.08C202.957 47.08 203.234 46.9733 203.789 46.76C204.386 46.5467 204.898 46.376 205.325 46.248C205.495 45.992 205.666 45.7573 205.837 45.544C206.007 45.3307 206.071 45.2027 206.029 45.16C206.199 44.776 206.413 44.4133 206.669 44.072C206.967 43.688 207.266 43.3253 207.565 42.984H207.501C208.397 41.6613 209.421 40.2747 210.573 38.824C211.725 37.3733 213.026 35.816 214.477 34.152C216.013 32.4027 217.527 31.1227 219.021 30.312C220.557 29.4587 221.943 28.968 223.181 28.84C223.906 28.84 224.717 29.0107 225.613 29.352C226.509 29.6933 227.149 30.0347 227.533 30.376C228.301 31.0587 228.941 31.8267 229.453 32.68C229.965 33.5333 230.221 34.3227 230.221 35.048C230.221 35.4747 230.135 35.8587 229.965 36.2V36.264C229.794 36.5627 229.517 36.712 229.133 36.712C228.834 36.712 228.557 36.6267 228.301 36.456C228.087 36.2427 227.981 35.9867 227.981 35.688C227.938 35.048 227.618 34.3653 227.021 33.64C226.466 32.9147 225.911 32.5733 225.357 32.616C225.186 32.5733 224.909 32.552 224.525 32.552C223.714 32.552 222.818 32.7867 221.837 33.256C220.898 33.7253 219.853 34.5573 218.701 35.752C217.805 36.6907 217.079 37.3947 216.525 37.864C215.97 38.2907 215.479 38.632 215.053 38.888C214.669 39.1013 214.285 39.336 213.901 39.592C213.559 39.8053 213.133 40.1467 212.621 40.616C212.45 41.0427 212.087 41.6613 211.533 42.472C210.978 43.24 210.381 44.008 209.741 44.776C209.954 44.6907 210.146 44.6267 210.317 44.584C210.53 44.4987 210.743 44.456 210.957 44.456C211.213 44.456 211.639 44.4347 212.237 44.392C212.834 44.3067 213.282 44.264 213.581 44.264V44.136C213.581 43.9227 213.687 43.7947 213.901 43.752H213.837C214.306 43.624 214.775 43.5173 215.245 43.432C215.757 43.304 216.269 43.176 216.781 43.048C217.847 42.8347 218.914 42.5787 219.981 42.28C221.09 41.9813 222.178 41.768 223.245 41.64C223.586 41.64 224.013 41.5547 224.525 41.384C225.037 41.2133 225.485 41.128 225.869 41.128C226.125 41.128 226.338 41.128 226.509 41.128C226.679 41.0853 226.914 41.064 227.213 41.064C227.554 41.064 227.874 41.1493 228.173 41.32C228.471 41.4907 228.642 41.7253 228.685 42.024C228.642 42.3653 228.493 42.536 228.237 42.536C228.023 42.536 227.746 42.536 227.405 42.536C227.234 42.536 226.914 42.5573 226.445 42.6C225.975 42.6427 225.335 42.7493 224.525 42.92C223.927 43.048 223.522 43.1333 223.309 43.176C223.138 43.2187 222.946 43.2613 222.733 43.304C222.562 43.3467 222.157 43.4533 221.517 43.624C219.853 44.008 218.061 44.5627 216.141 45.288C214.263 46.0133 212.13 46.8667 209.741 47.848C209.101 48.104 208.397 48.488 207.629 49C206.861 49.4693 206.114 49.96 205.389 50.472C205.005 51.1547 204.685 51.7947 204.429 52.392C204.215 52.9467 203.938 53.5013 203.597 54.056H203.533C203.191 54.5253 202.829 55.1653 202.445 55.976C202.103 56.7867 201.762 57.6187 201.421 58.472C201.122 59.2827 200.887 59.9653 200.717 60.52C200.546 61.0747 200.482 61.3307 200.525 61.288C200.61 61.2453 200.653 61.2667 200.653 61.352C200.695 61.3947 200.674 61.4587 200.589 61.544C200.418 61.7573 200.29 62.056 200.205 62.44C200.119 62.824 200.013 63.144 199.885 63.4C199.714 63.656 199.522 63.8907 199.309 64.104C199.138 64.2747 198.989 64.4027 198.861 64.488C198.69 64.744 198.519 64.9147 198.349 65C198.178 65.0853 198.007 65.128 197.837 65.128ZM225.254 66.664C225.126 66.664 224.849 66.5787 224.422 66.408C223.996 66.28 223.548 66.152 223.078 66.024C222.609 65.896 222.268 65.832 222.054 65.832H221.99C221.18 65.832 220.561 65.512 220.134 64.872C219.75 64.1893 219.494 63.5707 219.366 63.016C219.324 62.8027 219.281 62.5893 219.238 62.376C219.238 62.12 219.238 61.864 219.238 61.608C219.238 60.2 219.58 58.6 220.262 56.808C220.945 55.016 221.862 53.16 223.014 51.24C224.209 49.32 225.553 47.528 227.046 45.864C228.582 44.1147 230.14 42.7493 231.718 41.768C233.297 40.7867 234.726 40.232 236.006 40.104C236.689 40.104 237.393 40.296 238.118 40.68C238.844 41.064 239.356 41.256 239.654 41.256H239.718C240.614 41.256 241.212 41.6187 241.51 42.344C241.809 43.0693 241.958 43.7947 241.958 44.52C241.958 44.9467 241.873 45.3947 241.702 45.864C241.532 46.3333 241.382 46.7173 241.254 47.016C241.169 47.3147 241.169 47.4213 241.254 47.336L241.318 47.272C240.849 48.1253 240.316 49 239.718 49.896C239.164 50.7493 238.246 51.88 236.966 53.288C236.454 53.8427 235.75 54.3973 234.854 54.952C234.001 55.464 233.169 55.9333 232.358 56.36C231.548 56.7867 230.972 57.0853 230.63 57.256C230.289 57.4267 229.841 57.512 229.286 57.512C228.732 57.512 228.113 57.448 227.43 57.32C226.79 57.192 226.236 57.128 225.766 57.128C225.51 57.128 225.276 57.1493 225.062 57.192C224.849 57.2347 224.7 57.3627 224.614 57.576C223.932 58.6853 223.59 59.7947 223.59 60.904C223.59 61.5867 223.74 62.1627 224.038 62.632C224.38 63.0587 224.934 63.272 225.702 63.272C225.958 63.272 226.236 63.2507 226.534 63.208C226.833 63.1653 227.132 63.08 227.43 62.952C228.156 62.824 228.668 62.76 228.966 62.76C229.265 62.76 229.585 62.7173 229.926 62.632C230.31 62.5467 230.929 62.3333 231.782 61.992C232.721 61.608 233.425 61.3307 233.894 61.16C234.406 60.9893 234.79 60.84 235.046 60.712C235.345 60.584 235.644 60.4347 235.942 60.264C236.241 60.0933 236.71 59.8373 237.35 59.496C237.82 59.24 238.076 59.112 238.118 59.112C238.204 59.112 238.332 59.0693 238.502 58.984C238.673 58.856 239.121 58.5573 239.846 58.088C240.614 57.576 241.212 57.32 241.638 57.32C241.937 57.32 242.086 57.4267 242.086 57.64C242.086 57.8107 241.937 58.0667 241.638 58.408C241.382 58.7493 240.913 59.1547 240.23 59.624C239.505 60.136 238.673 60.7333 237.734 61.416C236.838 62.0987 236.006 62.632 235.238 63.016C234.982 63.0587 234.748 63.1653 234.534 63.336C234.364 63.464 234.108 63.5707 233.766 63.656L230.182 65.192L230.246 65.128C230.374 65 230.225 65 229.798 65.128C229.414 65.256 228.902 65.448 228.262 65.704C227.665 65.96 227.068 66.1733 226.47 66.344C225.916 66.5573 225.51 66.664 225.254 66.664ZM227.75 55.656C227.921 55.656 228.092 55.656 228.262 55.656C228.433 55.6133 228.604 55.5707 228.774 55.528C229.073 55.272 229.35 55.08 229.606 54.952C229.862 54.824 230.204 54.6107 230.63 54.312C231.057 54.0133 231.654 53.48 232.422 52.712C233.062 52.072 233.617 51.624 234.086 51.368C234.556 51.0693 234.94 50.7493 235.238 50.408C236.134 49.1707 236.604 48.232 236.646 47.592C236.732 46.952 236.774 46.3547 236.774 45.8C236.262 45.1173 235.793 44.776 235.366 44.776C235.11 44.776 234.726 44.8827 234.214 45.096C233.489 45.3947 232.892 45.672 232.422 45.928C231.996 46.184 231.356 46.7387 230.502 47.592C229.521 48.616 228.625 49.6187 227.814 50.6C227.004 51.5387 226.364 52.4987 225.894 53.48C225.852 53.6507 225.788 53.8213 225.702 53.992C225.66 54.12 225.638 54.2267 225.638 54.312C225.638 54.7813 225.852 55.1227 226.278 55.336C226.705 55.5493 227.196 55.656 227.75 55.656Z" fill="#F89494"/>
<path d="M281.287 373.256C281.031 373.256 280.818 373.171 280.647 373C280.348 372.701 280.092 372.381 279.879 372.04C279.666 371.699 279.559 371.272 279.559 370.76C279.559 370.077 279.772 369.16 280.199 368.008C280.626 366.899 281.33 365.384 282.311 363.464C284.402 359.411 287.09 355.293 290.375 351.112C293.703 346.931 297.223 343.027 300.935 339.4C301.319 339.016 301.788 338.696 302.343 338.44C302.898 338.141 303.367 337.8 303.751 337.416C303.964 337.245 304.092 337.117 304.135 337.032C304.178 336.947 304.199 336.883 304.199 336.84V336.776C304.199 336.691 304.22 336.605 304.263 336.52C304.348 336.392 304.498 336.243 304.711 336.072C306.418 334.579 308.039 333.107 309.575 331.656C311.111 330.205 312.583 329.011 313.991 328.072C315.399 327.133 316.764 326.664 318.087 326.664C318.258 326.664 318.407 326.685 318.535 326.728C318.706 326.728 318.876 326.749 319.047 326.792C319.474 326.835 319.815 326.899 320.071 326.984C320.37 327.027 320.519 327.176 320.519 327.432C320.519 327.688 320.263 328.179 319.751 328.904C318.727 330.269 317.81 331.976 316.999 334.024C316.231 336.029 315.548 338.163 314.951 340.424C314.396 342.643 313.906 344.755 313.479 346.76C313.052 348.765 312.69 350.429 312.391 351.752C312.263 352.392 312.199 352.776 312.199 352.904C312.199 353.075 312.22 353.203 312.263 353.288C312.348 353.331 312.412 353.437 312.455 353.608C312.498 353.736 312.604 354.013 312.775 354.44C312.988 354.867 313.095 355.016 313.095 354.888C314.631 354.163 316.124 353.139 317.575 351.816C319.068 350.493 320.775 348.829 322.695 346.824C324.658 344.776 327.111 342.344 330.055 339.528C330.354 339.272 330.61 339.101 330.823 339.016C331.036 338.931 331.228 338.803 331.399 338.632C331.484 338.547 331.591 338.376 331.719 338.12C331.847 337.864 331.996 337.672 332.167 337.544C333.916 335.795 335.58 334.003 337.159 332.168C338.738 330.333 340.53 328.563 342.535 326.856C342.706 326.728 342.855 326.515 342.983 326.216C343.154 325.917 343.324 325.683 343.495 325.512C343.58 325.341 343.602 325.171 343.559 325C343.559 324.787 343.666 324.573 343.879 324.36C344.05 324.232 344.284 324.125 344.583 324.04C344.924 323.955 345.18 323.827 345.351 323.656C345.692 323.4 346.14 323.272 346.695 323.272C347.463 323.272 348.21 323.507 348.935 323.976C349.703 324.403 350.087 324.936 350.087 325.576C350.087 326.003 349.916 326.387 349.575 326.728C349.319 327.027 348.978 327.304 348.551 327.56C348.167 327.773 347.826 328.051 347.527 328.392C347.314 328.691 346.972 328.968 346.503 329.224C346.076 329.437 345.778 329.651 345.607 329.864C343.388 332.424 341.426 335.005 339.719 337.608C338.012 340.168 336.412 342.728 334.919 345.288C333.596 347.635 332.38 350.024 331.271 352.456C330.204 354.845 329.33 356.979 328.647 358.856C328.007 360.733 327.623 362.077 327.495 362.888C327.452 363.315 327.346 363.784 327.175 364.296C327.004 364.808 326.962 365.107 327.047 365.192C327.175 365.363 327.282 365.555 327.367 365.768C327.495 366.024 327.559 366.301 327.559 366.6C327.559 367.197 327.239 367.709 326.599 368.136C326.514 368.179 326.407 368.2 326.279 368.2C325.98 368.2 325.724 368.072 325.511 367.816C325.34 367.56 325.148 367.283 324.935 366.984C324.807 366.685 324.7 366.429 324.615 366.216C324.53 366.003 324.487 365.768 324.487 365.512C324.487 365.256 324.551 364.936 324.679 364.552C324.722 364.509 324.743 364.445 324.743 364.36C324.743 364.147 324.679 363.933 324.551 363.72C324.423 363.464 324.402 363.187 324.487 362.888C324.7 362.291 324.85 361.501 324.935 360.52C325.063 359.539 325.276 358.707 325.575 358.024C326.258 356.573 326.812 355.187 327.239 353.864C327.666 352.541 328.114 351.24 328.583 349.96C329.052 348.637 329.692 347.357 330.503 346.12C330.503 346.12 330.588 345.843 330.759 345.288C330.93 344.691 331.079 344.285 331.207 344.072L331.271 344.008C332.295 342.472 333.02 341.32 333.447 340.552C333.874 339.784 334.194 339.165 334.407 338.696C334.62 338.227 334.919 337.693 335.303 337.096L335.047 337.352L334.983 337.48C332.124 340.211 329.82 342.429 328.071 344.136C326.364 345.8 324.999 347.144 323.975 348.168C322.994 349.192 322.162 350.024 321.479 350.664C320.839 351.304 320.156 351.923 319.431 352.52C318.748 353.075 317.852 353.779 316.743 354.632C316.444 354.845 316.146 355.165 315.847 355.592C315.548 355.976 315.25 356.275 314.951 356.488V356.424C314.61 356.637 314.226 356.915 313.799 357.256C313.372 357.555 312.967 357.811 312.583 358.024C312.412 358.109 312.092 358.216 311.623 358.344C311.196 358.472 310.748 358.536 310.279 358.536C309.767 358.536 309.383 358.429 309.127 358.216C308.871 357.875 308.679 357.363 308.551 356.68C308.466 355.997 308.423 355.336 308.423 354.696C308.423 353.971 308.466 353.395 308.551 352.968C308.892 351.603 309.148 350.6 309.319 349.96C309.49 349.32 309.596 348.893 309.639 348.68C309.724 348.467 309.767 348.339 309.767 348.296C309.767 348.211 309.767 348.061 309.767 347.848C309.767 347.763 309.767 347.613 309.767 347.4C309.767 347.144 309.788 346.845 309.831 346.504C309.874 346.077 309.98 345.437 310.151 344.584C310.322 343.688 310.535 342.813 310.791 341.96C311.09 341.064 311.346 340.424 311.559 340.04C311.644 339.955 311.751 339.613 311.879 339.016C312.007 338.376 312.156 337.672 312.327 336.904C312.498 336.136 312.626 335.453 312.711 334.856C312.796 334.259 312.818 333.939 312.775 333.896C312.22 334.195 311.047 335.027 309.255 336.392C307.463 337.757 305.18 339.827 302.407 342.6C302.023 342.984 301.596 343.347 301.127 343.688C300.7 343.987 300.295 344.328 299.911 344.712C299.612 345.011 299.143 345.544 298.503 346.312C297.863 347.037 297.223 347.784 296.583 348.552C295.943 349.277 295.474 349.789 295.175 350.088L292.615 352.904C290.482 355.293 288.818 357.277 287.623 358.856C286.471 360.435 285.575 361.779 284.935 362.888C284.295 363.955 283.676 364.979 283.079 365.96C282.823 366.301 282.695 366.643 282.695 366.984C282.695 367.325 282.695 367.688 282.695 368.072C282.695 368.2 282.695 368.328 282.695 368.456C282.695 368.584 282.674 368.712 282.631 368.84C282.503 369.224 282.439 369.779 282.439 370.504C282.482 371.229 282.46 371.763 282.375 372.104V372.04C282.332 372.467 282.204 372.765 281.991 372.936C281.778 373.149 281.543 373.256 281.287 373.256ZM333.664 388.936C332.256 388.936 331.147 388.445 330.336 387.464C329.483 386.525 328.886 385.395 328.544 384.072C328.16 382.792 327.968 381.64 327.968 380.616C328.182 379.635 328.352 378.845 328.48 378.248C328.566 377.693 328.95 376.989 329.632 376.136C329.931 375.837 330.166 375.688 330.336 375.688C330.55 375.688 330.656 375.901 330.656 376.328C330.614 376.755 330.592 377.224 330.592 377.736C330.592 378.376 330.592 379.208 330.592 380.232C330.592 381.256 330.678 382.28 330.848 383.304C330.976 384.371 331.275 385.245 331.744 385.928C332.171 386.653 332.811 387.016 333.664 387.016C335.286 387.016 336.715 386.589 337.953 385.736C339.233 384.925 340.385 383.859 341.409 382.536C342.433 381.256 343.393 379.912 344.289 378.504C344.63 377.992 345.014 377.523 345.441 377.096C345.867 376.669 346.23 376.221 346.529 375.752C346.87 375.24 347.126 374.707 347.297 374.152C347.51 373.597 347.766 373.107 348.065 372.68C349.387 370.845 350.539 368.797 351.521 366.536C352.502 364.317 353.59 362.141 354.785 360.008C354.998 359.539 355.318 358.813 355.745 357.832C356.171 356.851 356.598 355.869 357.025 354.888C357.451 353.864 357.771 353.096 357.985 352.584C358.326 351.56 358.539 350.963 358.625 350.792V350.728C358.198 351.069 357.963 351.283 357.921 351.368C357.878 351.411 357.793 351.496 357.665 351.624C357.579 351.709 357.174 352.029 356.449 352.584L356.321 352.648C356.278 352.605 356.043 352.776 355.617 353.16C355.233 353.501 354.806 353.864 354.337 354.248C353.91 354.632 353.59 354.867 353.377 354.952C353.163 355.123 352.758 355.507 352.161 356.104C351.606 356.659 351.222 357 351.009 357.128C349.899 358.152 348.811 359.069 347.745 359.88C346.678 360.648 345.547 361.395 344.353 362.12C344.31 362.12 344.246 362.184 344.161 362.312C344.118 362.44 344.033 362.547 343.905 362.632H343.841C343.713 362.717 343.585 362.76 343.457 362.76C343.329 362.717 343.222 362.739 343.137 362.824L341.601 363.528C341.089 363.741 340.641 363.848 340.257 363.848C339.787 363.848 339.382 363.699 339.041 363.4C338.699 363.101 338.529 362.632 338.529 361.992C338.529 361.864 338.529 361.715 338.529 361.544C338.571 361.331 338.614 361.139 338.657 360.968C338.998 359.645 339.467 358.152 340.065 356.488C340.705 354.781 341.643 352.925 342.881 350.92C343.179 350.451 343.35 350.109 343.393 349.896C343.478 349.683 343.521 349.533 343.521 349.448V349.192C343.521 349.107 343.542 349 343.585 348.872C343.627 348.744 343.734 348.531 343.905 348.232C344.246 347.763 344.438 347.4 344.481 347.144C344.566 346.845 344.63 346.568 344.673 346.312C344.886 345.8 345.163 345.459 345.505 345.288C345.846 345.075 346.166 344.904 346.465 344.776C347.19 344.477 347.894 344.2 348.577 343.944C349.302 343.645 349.899 343.496 350.369 343.496C350.966 343.496 351.329 343.752 351.457 344.264C351.499 344.435 351.521 344.584 351.521 344.712C351.521 344.84 351.521 344.968 351.521 345.096C351.521 345.864 351.286 346.525 350.817 347.08C350.39 347.635 349.707 348.296 348.769 349.064C348.427 349.363 348.171 349.597 348.001 349.768C347.83 349.939 347.638 350.173 347.425 350.472C347.254 350.728 346.955 351.176 346.529 351.816H346.465C345.355 353.48 344.566 354.909 344.097 356.104C343.627 357.299 343.307 358.344 343.137 359.24C343.094 359.453 343.094 359.581 343.137 359.624C343.179 359.667 343.265 359.709 343.393 359.752C343.606 359.837 343.798 359.837 343.969 359.752C344.609 359.539 345.377 359.112 346.273 358.472C347.211 357.789 348.15 357.064 349.089 356.296C350.027 355.485 350.859 354.803 351.585 354.248C351.798 354.077 352.011 353.949 352.225 353.864C352.481 353.736 352.673 353.629 352.801 353.544C353.014 353.331 353.185 353.139 353.312 352.968C353.483 352.797 353.654 352.648 353.825 352.52C355.531 351.197 356.833 350.024 357.729 349C358.625 347.933 359.329 347.037 359.841 346.312C360.353 345.544 360.822 344.989 361.249 344.648C361.761 344.264 362.209 344.072 362.593 344.072C363.062 344.072 363.425 344.243 363.681 344.584C363.979 344.925 364.15 345.267 364.193 345.608C364.278 345.949 364.321 346.291 364.321 346.632C364.321 347.101 364.235 347.507 364.065 347.848C363.766 348.275 363.638 348.637 363.681 348.936C363.723 349.192 363.617 349.555 363.361 350.024C363.147 350.451 362.913 350.963 362.657 351.56C362.401 352.157 362.145 352.627 361.889 352.968C361.547 353.949 361.057 355.059 360.417 356.296C359.777 357.533 359.115 358.749 358.433 359.944C357.793 361.096 357.238 362.056 356.769 362.824C356.342 363.549 356.128 363.912 356.128 363.912C355.574 365.363 354.913 366.899 354.145 368.52C353.419 370.141 352.566 371.656 351.585 373.064C350.603 374.429 349.494 376.008 348.257 377.8C347.062 379.635 345.718 381.384 344.225 383.048C342.774 384.755 341.153 386.163 339.361 387.272C337.611 388.381 335.712 388.936 333.664 388.936ZM386.445 365.96C386.317 365.96 386.039 365.853 385.613 365.64C385.229 365.469 384.823 365.277 384.397 365.064C384.013 364.893 383.714 364.808 383.501 364.808H383.437C382.882 364.808 382.477 364.637 382.221 364.296C382.007 363.912 381.858 363.464 381.773 362.952C381.687 362.44 381.602 362.013 381.517 361.672C381.389 361.16 381.325 360.627 381.325 360.072C381.325 358.152 381.965 355.933 383.245 353.416C384.567 350.856 386.317 348.339 388.493 345.864C390.029 344.115 391.586 342.749 393.165 341.768C394.743 340.787 396.173 340.232 397.453 340.104C398.135 340.019 398.839 340.189 399.565 340.616C400.29 341.043 400.802 341.256 401.101 341.256H401.165C402.359 341.256 403.17 341.661 403.597 342.472C404.023 343.24 404.237 343.987 404.237 344.712C404.237 345.352 404.087 345.971 403.789 346.568C403.49 346.995 403.021 347.208 402.381 347.208C401.57 347.208 401.037 346.973 400.781 346.504C400.482 345.821 399.927 345.288 399.117 344.904C398.306 344.52 397.538 344.328 396.812 344.328C396.087 344.328 395.298 344.648 394.445 345.288C393.634 345.928 392.802 346.696 391.949 347.592C389.346 350.28 387.533 352.797 386.509 355.144C385.527 357.448 385.036 359.261 385.036 360.584C385.036 360.755 385.036 360.925 385.036 361.096C385.079 361.224 385.101 361.352 385.101 361.48V361.544C385.101 361.843 385.378 362.163 385.933 362.504C386.487 362.803 387.106 362.909 387.789 362.824C388.941 362.696 389.901 362.504 390.669 362.248C391.437 361.992 392.418 361.523 393.613 360.84C393.655 360.84 393.869 360.733 394.253 360.52C394.637 360.307 395.021 360.093 395.405 359.88C395.831 359.624 396.066 359.496 396.109 359.496C396.578 359.24 396.834 359.112 396.877 359.112C396.962 359.112 397.09 359.069 397.26 358.984C397.431 358.856 397.879 358.557 398.605 358.088C399.373 357.576 399.97 357.32 400.397 357.32C400.695 357.32 400.845 357.427 400.845 357.64C400.845 357.811 400.695 358.067 400.397 358.408C400.141 358.749 399.671 359.155 398.989 359.624C398.135 360.179 397.431 360.605 396.877 360.904C396.365 361.203 395.895 361.501 395.469 361.8C395.042 362.056 394.573 362.44 394.061 362.952L393.997 363.016C393.911 363.016 393.677 363.101 393.293 363.272C392.951 363.443 392.61 363.613 392.269 363.784C391.927 363.912 391.735 363.997 391.693 364.04C391.522 364.168 391.074 364.403 390.349 364.744C389.666 365.043 388.941 365.32 388.173 365.576C387.405 365.832 386.829 365.96 386.445 365.96ZM406.985 364.936C406.302 364.936 405.769 364.829 405.385 364.616C405.001 364.36 404.638 364.104 404.297 363.848C403.529 363.208 403.145 362.035 403.145 360.328C403.145 359.091 403.379 357.683 403.849 356.104C404.318 354.483 405.086 352.797 406.153 351.048V351.112C406.622 350.259 407.091 349.405 407.561 348.552C408.073 347.699 408.606 346.867 409.161 346.056C409.331 345.885 409.502 345.779 409.673 345.736C409.843 345.651 409.971 345.565 410.057 345.48C410.057 345.309 410.099 345.075 410.185 344.776C410.313 344.435 410.462 344.2 410.633 344.072C411.401 343.048 412.275 342.28 413.257 341.768C414.238 341.256 415.006 340.829 415.561 340.488H415.497C415.753 340.36 416.051 340.296 416.393 340.296C417.246 340.296 418.249 340.616 419.401 341.256C419.571 341.256 419.742 341.235 419.913 341.192C420.126 341.107 420.339 341.064 420.553 341.064C420.979 341.064 421.406 341.213 421.833 341.512C422.302 341.811 422.494 342.28 422.409 342.92C422.366 343.048 422.345 343.155 422.345 343.24C422.345 343.325 422.345 343.411 422.345 343.496C422.345 343.965 422.515 344.2 422.857 344.2C423.027 344.2 423.198 344.179 423.369 344.136C423.539 344.093 423.71 344.072 423.881 344.072C424.35 344.072 425.011 344.008 425.865 343.88C426.718 343.709 427.529 343.56 428.297 343.432C429.107 343.261 429.662 343.176 429.961 343.176C430.131 343.304 430.217 343.453 430.217 343.624C430.217 343.795 430.131 343.987 429.961 344.2C429.833 344.413 429.683 344.563 429.513 344.648C429.513 344.648 429.235 344.733 428.681 344.904C428.169 345.032 427.529 345.203 426.761 345.416C425.993 345.629 425.225 345.843 424.457 346.056C423.731 346.227 423.155 346.333 422.729 346.376L422.089 346.44C422.046 346.952 421.918 347.507 421.705 348.104C421.491 348.701 421.257 349.363 421.001 350.088C420.915 350.301 420.851 350.579 420.809 350.92C420.766 351.219 420.681 351.539 420.553 351.88C420.254 352.392 419.913 352.904 419.529 353.416C419.145 353.928 418.782 354.461 418.441 355.016C418.185 355.443 417.907 355.912 417.609 356.424C417.353 356.893 417.033 357.384 416.649 357.896C415.795 359.005 414.793 360.115 413.641 361.224C412.531 362.291 411.379 363.187 410.185 363.912C409.033 364.595 407.966 364.936 406.985 364.936ZM407.561 362.824C408.414 362.824 409.587 362.227 411.081 361.032C412.617 359.795 414.046 358.216 415.369 356.296H415.305C415.646 355.784 415.987 355.187 416.329 354.504C416.713 353.821 417.011 353.245 417.225 352.776C417.225 352.776 417.331 352.648 417.545 352.392C417.801 352.136 418.057 351.859 418.312 351.56C418.569 351.219 418.718 350.963 418.76 350.792C418.803 350.707 418.825 350.6 418.825 350.472C418.825 350.387 418.803 350.323 418.76 350.28C418.76 350.195 418.76 350.067 418.76 349.896V349.832C419.017 349.192 419.23 348.616 419.401 348.104C419.571 347.592 419.678 347.144 419.721 346.76C419.422 346.76 418.953 346.739 418.312 346.696C417.673 346.653 417.139 346.611 416.713 346.568C416.329 346.525 416.329 346.504 416.713 346.504H416.905C416.905 346.461 416.713 346.376 416.329 346.248C415.945 346.12 415.646 346.013 415.433 345.928C415.305 345.971 415.177 345.992 415.049 345.992C414.835 345.992 414.665 345.949 414.537 345.864C414.451 345.779 414.345 345.8 414.217 345.928C414.046 346.099 413.939 346.312 413.897 346.568C413.854 346.824 413.683 347.101 413.385 347.4L413.321 347.464C413.321 347.421 413.214 347.464 413.001 347.592C412.787 347.72 412.702 347.784 412.745 347.784L412.681 347.912C412.595 347.955 412.531 348.083 412.489 348.296C412.489 348.467 412.425 348.659 412.297 348.872C411.87 349.555 411.401 350.28 410.889 351.048C410.419 351.773 409.971 352.477 409.545 353.16V353.096C409.118 353.864 408.691 354.696 408.265 355.592C407.838 356.488 407.518 357.363 407.305 358.216C407.305 358.429 407.262 358.643 407.177 358.856C407.134 359.027 407.113 359.176 407.113 359.304V359.368C407.113 359.837 407.027 360.243 406.857 360.584C406.686 360.925 406.601 361.267 406.601 361.608C406.729 361.907 406.771 362.141 406.729 362.312C406.686 362.44 406.75 362.547 406.921 362.632C407.134 362.76 407.347 362.824 407.561 362.824ZM426.431 365.128C426.26 365.128 426.111 365.107 425.983 365.064C425.855 365.021 425.748 365 425.663 365C425.108 364.915 424.831 364.36 424.831 363.336C424.831 362.952 424.873 362.525 424.959 362.056C425.087 361.544 425.279 360.989 425.535 360.392V360.456C425.577 360.243 425.663 360.072 425.791 359.944C425.919 359.773 425.961 359.645 425.919 359.56C425.919 359.347 426.047 358.941 426.303 358.344C426.601 357.704 426.751 357.363 426.751 357.32V357.256C426.836 357.043 427.007 356.701 427.263 356.232C427.519 355.72 427.689 355.379 427.775 355.208C428.116 354.525 428.372 354.099 428.543 353.928C428.713 353.757 428.863 353.629 428.991 353.544C429.161 353.459 429.353 353.203 429.567 352.776L429.631 352.712C429.631 352.712 429.652 352.691 429.695 352.648C429.737 352.563 429.78 352.477 429.823 352.392C429.652 352.435 429.481 352.499 429.311 352.584C429.183 352.627 428.991 352.691 428.735 352.776H428.671C428.457 352.776 428.159 352.691 427.775 352.52C427.391 352.307 427.156 352.093 427.071 351.88C426.985 351.624 426.943 351.432 426.943 351.304C426.943 350.749 427.156 350.152 427.583 349.512C428.009 348.829 428.436 348.403 428.863 348.232H428.927C429.14 348.232 429.417 348.147 429.759 347.976C430.1 347.805 430.399 347.677 430.655 347.592H430.783C430.911 347.592 430.996 347.528 431.039 347.4C431.081 347.229 431.252 347.123 431.551 347.08C431.551 347.08 431.828 346.973 432.383 346.76C432.98 346.547 433.492 346.376 433.919 346.248C434.089 345.992 434.26 345.757 434.431 345.544C434.601 345.331 434.665 345.203 434.623 345.16C434.793 344.776 435.007 344.413 435.263 344.072C435.561 343.688 435.86 343.325 436.159 342.984H436.095C436.991 341.661 438.015 340.275 439.167 338.824C440.319 337.373 441.62 335.816 443.071 334.152C444.607 332.403 446.121 331.123 447.615 330.312C449.151 329.459 450.537 328.968 451.775 328.84C452.5 328.84 453.311 329.011 454.207 329.352C455.103 329.693 455.743 330.035 456.127 330.376C456.895 331.059 457.535 331.827 458.047 332.68C458.559 333.533 458.815 334.323 458.815 335.048C458.815 335.475 458.729 335.859 458.559 336.2V336.264C458.388 336.563 458.111 336.712 457.727 336.712C457.428 336.712 457.151 336.627 456.895 336.456C456.681 336.243 456.575 335.987 456.575 335.688C456.532 335.048 456.212 334.365 455.615 333.64C455.06 332.915 454.505 332.573 453.951 332.616C453.78 332.573 453.503 332.552 453.119 332.552C452.308 332.552 451.412 332.787 450.431 333.256C449.492 333.725 448.447 334.557 447.295 335.752C446.399 336.691 445.673 337.395 445.119 337.864C444.564 338.291 444.073 338.632 443.647 338.888C443.263 339.101 442.879 339.336 442.495 339.592C442.153 339.805 441.727 340.147 441.215 340.616C441.044 341.043 440.681 341.661 440.127 342.472C439.572 343.24 438.975 344.008 438.335 344.776C438.548 344.691 438.74 344.627 438.911 344.584C439.124 344.499 439.337 344.456 439.551 344.456C439.807 344.456 440.233 344.435 440.831 344.392C441.428 344.307 441.876 344.264 442.175 344.264V344.136C442.175 343.923 442.281 343.795 442.495 343.752H442.431C442.9 343.624 443.369 343.517 443.839 343.432C444.351 343.304 444.863 343.176 445.375 343.048C446.441 342.835 447.508 342.579 448.575 342.28C449.684 341.981 450.772 341.768 451.839 341.64C452.18 341.64 452.607 341.555 453.119 341.384C453.631 341.213 454.079 341.128 454.463 341.128C454.719 341.128 454.932 341.128 455.103 341.128C455.273 341.085 455.508 341.064 455.807 341.064C456.148 341.064 456.468 341.149 456.767 341.32C457.065 341.491 457.236 341.725 457.279 342.024C457.236 342.365 457.087 342.536 456.831 342.536C456.617 342.536 456.34 342.536 455.999 342.536C455.828 342.536 455.508 342.557 455.039 342.6C454.569 342.643 453.929 342.749 453.119 342.92C452.521 343.048 452.116 343.133 451.903 343.176C451.732 343.219 451.54 343.261 451.327 343.304C451.156 343.347 450.751 343.453 450.111 343.624C448.447 344.008 446.655 344.563 444.735 345.288C442.857 346.013 440.724 346.867 438.335 347.848C437.695 348.104 436.991 348.488 436.223 349C435.455 349.469 434.708 349.96 433.983 350.472C433.599 351.155 433.279 351.795 433.023 352.392C432.809 352.947 432.532 353.501 432.191 354.056H432.127C431.785 354.525 431.423 355.165 431.039 355.976C430.697 356.787 430.356 357.619 430.015 358.472C429.716 359.283 429.481 359.965 429.311 360.52C429.14 361.075 429.076 361.331 429.119 361.288C429.204 361.245 429.247 361.267 429.247 361.352C429.289 361.395 429.268 361.459 429.183 361.544C429.012 361.757 428.884 362.056 428.799 362.44C428.713 362.824 428.607 363.144 428.479 363.4C428.308 363.656 428.116 363.891 427.903 364.104C427.732 364.275 427.583 364.403 427.455 364.488C427.284 364.744 427.113 364.915 426.943 365C426.772 365.085 426.601 365.128 426.431 365.128ZM449.343 365.128C449.172 365.128 449.023 365.107 448.895 365.064C448.767 365.021 448.66 365 448.575 365C448.02 364.915 447.743 364.36 447.743 363.336C447.743 362.952 447.785 362.525 447.871 362.056C447.999 361.544 448.191 360.989 448.447 360.392V360.456C448.489 360.243 448.575 360.072 448.703 359.944C448.831 359.773 448.873 359.645 448.831 359.56C448.831 359.347 448.959 358.941 449.215 358.344C449.513 357.704 449.663 357.363 449.663 357.32V357.256C449.748 357.043 449.919 356.701 450.175 356.232C450.431 355.72 450.601 355.379 450.687 355.208C451.028 354.525 451.284 354.099 451.455 353.928C451.625 353.757 451.775 353.629 451.903 353.544C452.073 353.459 452.265 353.203 452.479 352.776L452.543 352.712C452.543 352.712 452.564 352.691 452.607 352.648C452.649 352.563 452.692 352.477 452.735 352.392C452.564 352.435 452.393 352.499 452.223 352.584C452.095 352.627 451.903 352.691 451.647 352.776H451.583C451.369 352.776 451.071 352.691 450.687 352.52C450.303 352.307 450.068 352.093 449.983 351.88C449.897 351.624 449.855 351.432 449.855 351.304C449.855 350.749 450.068 350.152 450.495 349.512C450.921 348.829 451.348 348.403 451.775 348.232H451.839C452.052 348.232 452.329 348.147 452.671 347.976C453.012 347.805 453.311 347.677 453.567 347.592H453.695C453.823 347.592 453.908 347.528 453.951 347.4C453.993 347.229 454.164 347.123 454.463 347.08C454.463 347.08 454.74 346.973 455.295 346.76C455.892 346.547 456.404 346.376 456.831 346.248C457.001 345.992 457.172 345.757 457.343 345.544C457.513 345.331 457.577 345.203 457.535 345.16C457.705 344.776 457.919 344.413 458.175 344.072C458.473 343.688 458.772 343.325 459.071 342.984H459.007C459.903 341.661 460.927 340.275 462.079 338.824C463.231 337.373 464.532 335.816 465.983 334.152C467.519 332.403 469.033 331.123 470.527 330.312C472.063 329.459 473.449 328.968 474.687 328.84C475.412 328.84 476.223 329.011 477.119 329.352C478.015 329.693 478.655 330.035 479.039 330.376C479.807 331.059 480.447 331.827 480.959 332.68C481.471 333.533 481.727 334.323 481.727 335.048C481.727 335.475 481.641 335.859 481.471 336.2V336.264C481.3 336.563 481.023 336.712 480.639 336.712C480.34 336.712 480.063 336.627 479.807 336.456C479.593 336.243 479.487 335.987 479.487 335.688C479.444 335.048 479.124 334.365 478.527 333.64C477.972 332.915 477.417 332.573 476.863 332.616C476.692 332.573 476.415 332.552 476.031 332.552C475.22 332.552 474.324 332.787 473.343 333.256C472.404 333.725 471.359 334.557 470.207 335.752C469.311 336.691 468.585 337.395 468.031 337.864C467.476 338.291 466.985 338.632 466.559 338.888C466.175 339.101 465.791 339.336 465.407 339.592C465.065 339.805 464.639 340.147 464.127 340.616C463.956 341.043 463.593 341.661 463.039 342.472C462.484 343.24 461.887 344.008 461.247 344.776C461.46 344.691 461.652 344.627 461.823 344.584C462.036 344.499 462.249 344.456 462.463 344.456C462.719 344.456 463.145 344.435 463.743 344.392C464.34 344.307 464.788 344.264 465.087 344.264V344.136C465.087 343.923 465.193 343.795 465.407 343.752H465.343C465.812 343.624 466.281 343.517 466.751 343.432C467.263 343.304 467.775 343.176 468.287 343.048C469.353 342.835 470.42 342.579 471.487 342.28C472.596 341.981 473.684 341.768 474.751 341.64C475.092 341.64 475.519 341.555 476.031 341.384C476.543 341.213 476.991 341.128 477.375 341.128C477.631 341.128 477.844 341.128 478.015 341.128C478.185 341.085 478.42 341.064 478.719 341.064C479.06 341.064 479.38 341.149 479.679 341.32C479.977 341.491 480.148 341.725 480.191 342.024C480.148 342.365 479.999 342.536 479.743 342.536C479.529 342.536 479.252 342.536 478.911 342.536C478.74 342.536 478.42 342.557 477.951 342.6C477.481 342.643 476.841 342.749 476.031 342.92C475.433 343.048 475.028 343.133 474.815 343.176C474.644 343.219 474.452 343.261 474.239 343.304C474.068 343.347 473.663 343.453 473.023 343.624C471.359 344.008 469.567 344.563 467.647 345.288C465.769 346.013 463.636 346.867 461.247 347.848C460.607 348.104 459.903 348.488 459.135 349C458.367 349.469 457.62 349.96 456.895 350.472C456.511 351.155 456.191 351.795 455.935 352.392C455.721 352.947 455.444 353.501 455.103 354.056H455.039C454.697 354.525 454.335 355.165 453.951 355.976C453.609 356.787 453.268 357.619 452.927 358.472C452.628 359.283 452.393 359.965 452.223 360.52C452.052 361.075 451.988 361.331 452.031 361.288C452.116 361.245 452.159 361.267 452.159 361.352C452.201 361.395 452.18 361.459 452.095 361.544C451.924 361.757 451.796 362.056 451.711 362.44C451.625 362.824 451.519 363.144 451.391 363.4C451.22 363.656 451.028 363.891 450.815 364.104C450.644 364.275 450.495 364.403 450.367 364.488C450.196 364.744 450.025 364.915 449.855 365C449.684 365.085 449.513 365.128 449.343 365.128ZM476.723 366.664C476.595 366.664 476.318 366.579 475.891 366.408C475.464 366.28 475.016 366.152 474.547 366.024C474.078 365.896 473.736 365.832 473.523 365.832H473.459C472.648 365.832 472.03 365.512 471.603 364.872C471.219 364.189 470.963 363.571 470.835 363.016C470.792 362.803 470.75 362.589 470.707 362.376C470.707 362.12 470.707 361.864 470.707 361.608C470.707 360.2 471.048 358.6 471.731 356.808C472.414 355.016 473.331 353.16 474.483 351.24C475.678 349.32 477.022 347.528 478.515 345.864C480.051 344.115 481.608 342.749 483.187 341.768C484.766 340.787 486.195 340.232 487.475 340.104C488.158 340.104 488.862 340.296 489.587 340.68C490.312 341.064 490.824 341.256 491.123 341.256H491.187C492.083 341.256 492.68 341.619 492.979 342.344C493.278 343.069 493.427 343.795 493.427 344.52C493.427 344.947 493.342 345.395 493.171 345.864C493 346.333 492.851 346.717 492.723 347.016C492.638 347.315 492.638 347.421 492.723 347.336L492.787 347.272C492.318 348.125 491.784 349 491.187 349.896C490.632 350.749 489.715 351.88 488.435 353.288C487.923 353.843 487.219 354.397 486.323 354.952C485.47 355.464 484.638 355.933 483.827 356.36C483.016 356.787 482.44 357.085 482.099 357.256C481.758 357.427 481.31 357.512 480.755 357.512C480.2 357.512 479.582 357.448 478.899 357.32C478.259 357.192 477.704 357.128 477.235 357.128C476.979 357.128 476.744 357.149 476.531 357.192C476.318 357.235 476.168 357.363 476.083 357.576C475.4 358.685 475.059 359.795 475.059 360.904C475.059 361.587 475.208 362.163 475.507 362.632C475.848 363.059 476.403 363.272 477.171 363.272C477.427 363.272 477.704 363.251 478.003 363.208C478.302 363.165 478.6 363.08 478.899 362.952C479.624 362.824 480.136 362.76 480.435 362.76C480.734 362.76 481.054 362.717 481.395 362.632C481.779 362.547 482.398 362.333 483.251 361.992C484.19 361.608 484.894 361.331 485.363 361.16C485.875 360.989 486.259 360.84 486.515 360.712C486.814 360.584 487.112 360.435 487.411 360.264C487.71 360.093 488.179 359.837 488.819 359.496C489.288 359.24 489.544 359.112 489.587 359.112C489.672 359.112 489.8 359.069 489.971 358.984C490.142 358.856 490.59 358.557 491.315 358.088C492.083 357.576 492.68 357.32 493.107 357.32C493.406 357.32 493.555 357.427 493.555 357.64C493.555 357.811 493.406 358.067 493.107 358.408C492.851 358.749 492.382 359.155 491.699 359.624C490.974 360.136 490.142 360.733 489.203 361.416C488.307 362.099 487.475 362.632 486.707 363.016C486.451 363.059 486.216 363.165 486.003 363.336C485.832 363.464 485.576 363.571 485.235 363.656L481.651 365.192L481.715 365.128C481.843 365 481.694 365 481.267 365.128C480.883 365.256 480.371 365.448 479.731 365.704C479.134 365.96 478.536 366.173 477.939 366.344C477.384 366.557 476.979 366.664 476.723 366.664ZM479.219 355.656C479.39 355.656 479.56 355.656 479.731 355.656C479.902 355.613 480.072 355.571 480.243 355.528C480.542 355.272 480.819 355.08 481.075 354.952C481.331 354.824 481.672 354.611 482.099 354.312C482.526 354.013 483.123 353.48 483.891 352.712C484.531 352.072 485.086 351.624 485.555 351.368C486.024 351.069 486.408 350.749 486.707 350.408C487.603 349.171 488.072 348.232 488.115 347.592C488.2 346.952 488.243 346.355 488.243 345.8C487.731 345.117 487.262 344.776 486.835 344.776C486.579 344.776 486.195 344.883 485.683 345.096C484.958 345.395 484.36 345.672 483.891 345.928C483.464 346.184 482.824 346.739 481.971 347.592C480.99 348.616 480.094 349.619 479.283 350.6C478.472 351.539 477.832 352.499 477.363 353.48C477.32 353.651 477.256 353.821 477.171 353.992C477.128 354.12 477.107 354.227 477.107 354.312C477.107 354.781 477.32 355.123 477.747 355.336C478.174 355.549 478.664 355.656 479.219 355.656ZM502.098 366.664C501.97 366.664 501.693 366.579 501.266 366.408C500.839 366.28 500.391 366.152 499.922 366.024C499.453 365.896 499.111 365.832 498.898 365.832H498.834C498.023 365.832 497.405 365.512 496.978 364.872C496.594 364.189 496.338 363.571 496.21 363.016C496.167 362.803 496.125 362.589 496.082 362.376C496.082 362.12 496.082 361.864 496.082 361.608C496.082 360.2 496.423 358.6 497.106 356.808C497.789 355.016 498.706 353.16 499.858 351.24C501.053 349.32 502.397 347.528 503.89 345.864C505.426 344.115 506.983 342.749 508.562 341.768C510.141 340.787 511.57 340.232 512.85 340.104C513.533 340.104 514.237 340.296 514.962 340.68C515.687 341.064 516.199 341.256 516.498 341.256H516.562C517.458 341.256 518.055 341.619 518.354 342.344C518.653 343.069 518.802 343.795 518.802 344.52C518.802 344.947 518.717 345.395 518.546 345.864C518.375 346.333 518.226 346.717 518.098 347.016C518.013 347.315 518.013 347.421 518.098 347.336L518.162 347.272C517.693 348.125 517.159 349 516.562 349.896C516.007 350.749 515.09 351.88 513.81 353.288C513.298 353.843 512.594 354.397 511.698 354.952C510.845 355.464 510.013 355.933 509.202 356.36C508.391 356.787 507.815 357.085 507.474 357.256C507.133 357.427 506.685 357.512 506.13 357.512C505.575 357.512 504.957 357.448 504.274 357.32C503.634 357.192 503.079 357.128 502.61 357.128C502.354 357.128 502.119 357.149 501.906 357.192C501.693 357.235 501.543 357.363 501.458 357.576C500.775 358.685 500.434 359.795 500.434 360.904C500.434 361.587 500.583 362.163 500.882 362.632C501.223 363.059 501.778 363.272 502.546 363.272C502.802 363.272 503.079 363.251 503.378 363.208C503.677 363.165 503.975 363.08 504.274 362.952C504.999 362.824 505.511 362.76 505.81 362.76C506.109 362.76 506.429 362.717 506.77 362.632C507.154 362.547 507.773 362.333 508.626 361.992C509.565 361.608 510.269 361.331 510.738 361.16C511.25 360.989 511.634 360.84 511.89 360.712C512.189 360.584 512.487 360.435 512.786 360.264C513.085 360.093 513.554 359.837 514.194 359.496C514.663 359.24 514.919 359.112 514.962 359.112C515.047 359.112 515.175 359.069 515.346 358.984C515.517 358.856 515.965 358.557 516.69 358.088C517.458 357.576 518.055 357.32 518.482 357.32C518.781 357.32 518.93 357.427 518.93 357.64C518.93 357.811 518.781 358.067 518.482 358.408C518.226 358.749 517.757 359.155 517.074 359.624C516.349 360.136 515.517 360.733 514.578 361.416C513.682 362.099 512.85 362.632 512.082 363.016C511.826 363.059 511.591 363.165 511.378 363.336C511.207 363.464 510.951 363.571 510.61 363.656L507.026 365.192L507.09 365.128C507.218 365 507.069 365 506.642 365.128C506.258 365.256 505.746 365.448 505.106 365.704C504.509 365.96 503.911 366.173 503.314 366.344C502.759 366.557 502.354 366.664 502.098 366.664ZM504.594 355.656C504.765 355.656 504.935 355.656 505.106 355.656C505.277 355.613 505.447 355.571 505.618 355.528C505.917 355.272 506.194 355.08 506.45 354.952C506.706 354.824 507.047 354.611 507.474 354.312C507.901 354.013 508.498 353.48 509.266 352.712C509.906 352.072 510.461 351.624 510.93 351.368C511.399 351.069 511.783 350.749 512.082 350.408C512.978 349.171 513.447 348.232 513.49 347.592C513.575 346.952 513.618 346.355 513.618 345.8C513.106 345.117 512.637 344.776 512.21 344.776C511.954 344.776 511.57 344.883 511.058 345.096C510.333 345.395 509.735 345.672 509.266 345.928C508.839 346.184 508.199 346.739 507.346 347.592C506.365 348.616 505.469 349.619 504.658 350.6C503.847 351.539 503.207 352.499 502.738 353.48C502.695 353.651 502.631 353.821 502.546 353.992C502.503 354.12 502.482 354.227 502.482 354.312C502.482 354.781 502.695 355.123 503.122 355.336C503.549 355.549 504.039 355.656 504.594 355.656Z" fill="#F89494"/>
</svg>
