<svg width="601" height="340" viewBox="0 0 601 340" fill="none" xmlns="http://www.w3.org/2000/svg">
<path d="M21.184 27V23.292L10.924 7.164H10.816V27H8.836V3.42H10.78L21.076 19.728H21.184V3.42H23.164V27H21.184ZM38.464 27L38.392 25.524C36.088 26.724 34.168 27.324 32.632 27.324C31.096 27.324 29.884 26.796 28.996 25.74C28.108 24.684 27.664 23.244 27.664 21.42V9.9H29.572V21.42C29.572 22.596 29.848 23.568 30.4 24.336C30.976 25.08 31.84 25.452 32.992 25.452C34.144 25.452 35.944 24.852 38.392 23.652V9.9H40.3V27H38.464ZM45.016 12.168V10.368H48.508V6.012L50.416 5.652V10.368H58.66V12.168H50.416V20.376C50.416 22.2 50.68 23.52 51.208 24.336C51.76 25.128 52.732 25.524 54.124 25.524C54.652 25.524 55.468 25.44 56.572 25.272C57.676 25.08 58.432 24.912 58.84 24.768L59.272 26.532C58.816 26.7 57.976 26.88 56.752 27.072C55.552 27.264 54.676 27.36 54.124 27.36C51.964 27.36 50.488 26.796 49.696 25.668C48.904 24.516 48.508 22.776 48.508 20.448V12.168H45.016ZM63.916 27V25.2H68.02V11.7H63.916V9.9H69.928L70 11.988C70.768 11.508 71.848 11.028 73.24 10.548C74.632 10.068 75.856 9.78 76.912 9.684H77.308V11.808H76.912C75.928 11.88 74.704 12.12 73.24 12.528C71.8 12.936 70.72 13.356 70 13.788V25.2H75.76V27H63.916ZM81.988 27V25.2H87.244V11.7H81.988V9.9H89.152V25.2H94.408V27H81.988ZM86.488 4.824C86.488 4.344 86.62 3.972 86.884 3.708C87.172 3.444 87.556 3.312 88.036 3.312C89.02 3.312 89.512 3.84 89.512 4.896C89.512 5.952 89.02 6.468 88.036 6.444C87.004 6.444 86.488 5.904 86.488 4.824ZM99.016 12.168V10.368H102.508V6.012L104.416 5.652V10.368H112.66V12.168H104.416V20.376C104.416 22.2 104.68 23.52 105.208 24.336C105.76 25.128 106.732 25.524 108.124 25.524C108.652 25.524 109.468 25.44 110.572 25.272C111.676 25.08 112.432 24.912 112.84 24.768L113.272 26.532C112.816 26.7 111.976 26.88 110.752 27.072C109.552 27.264 108.676 27.36 108.124 27.36C105.964 27.36 104.488 26.796 103.696 25.668C102.904 24.516 102.508 22.776 102.508 20.448V12.168H99.016ZM117.988 27V25.2H123.244V11.7H117.988V9.9H125.152V25.2H130.408V27H117.988ZM122.488 4.824C122.488 4.344 122.62 3.972 122.884 3.708C123.172 3.444 123.556 3.312 124.036 3.312C125.02 3.312 125.512 3.84 125.512 4.896C125.512 5.952 125.02 6.468 124.036 6.444C123.004 6.444 122.488 5.904 122.488 4.824ZM135.124 18.504C135.124 12.624 137.416 9.684 142 9.684C146.584 9.684 148.876 12.624 148.876 18.504C148.876 24.384 146.584 27.324 142 27.324C137.416 27.324 135.124 24.384 135.124 18.504ZM142 11.556C138.784 11.556 137.176 13.872 137.176 18.504C137.176 23.136 138.784 25.452 142 25.452C145.216 25.452 146.824 23.136 146.824 18.504C146.824 13.872 145.216 11.556 142 11.556ZM155.572 9.9L155.644 11.34C157.972 10.236 159.904 9.684 161.44 9.684C162.976 9.684 164.176 10.212 165.04 11.268C165.928 12.324 166.372 13.764 166.372 15.588V27H164.464V15.588C164.464 14.412 164.176 13.44 163.6 12.672C163.024 11.928 162.16 11.556 161.008 11.556C159.856 11.556 158.068 12.084 155.644 13.14V27H153.736V9.9H155.572ZM190.096 27V3.42H202.408V5.256H192.076V15.552H200.932V17.352H192.076V27H190.096ZM212.848 25.452C213.736 25.452 214.696 25.176 215.728 24.624C216.784 24.048 217.552 23.52 218.032 23.04V18.756C216.448 18.636 214.936 18.576 213.496 18.576C212.056 18.576 210.976 18.888 210.256 19.512C209.536 20.112 209.176 20.928 209.176 21.96C209.176 24.288 210.4 25.452 212.848 25.452ZM212.812 27.324C211.06 27.324 209.68 26.88 208.672 25.992C207.664 25.08 207.16 23.796 207.16 22.14C207.16 20.484 207.712 19.2 208.816 18.288C209.92 17.352 211.384 16.884 213.208 16.884C215.032 16.884 216.64 16.956 218.032 17.1C218.032 14.964 217.768 13.512 217.24 12.744C216.712 11.952 215.644 11.556 214.036 11.556C212.428 11.556 210.532 11.94 208.348 12.708L207.808 10.908C210.04 10.092 212.056 9.684 213.856 9.684C216.232 9.684 217.84 10.212 218.68 11.268C219.52 12.324 219.94 14.172 219.94 16.812V24.372L220.228 27.108L218.392 27.288L218.032 25.128C217.48 25.608 216.7 26.1 215.692 26.604C214.684 27.084 213.724 27.324 212.812 27.324ZM237.688 10.476L237.256 12.348C235.768 11.82 234.388 11.556 233.116 11.556C231.388 11.556 230.092 12.168 229.228 13.392C228.388 14.592 227.968 16.272 227.968 18.432C227.968 20.592 228.4 22.308 229.264 23.58C230.128 24.828 231.412 25.452 233.116 25.452C234.268 25.452 235.708 25.14 237.436 24.516L238.012 26.316C236.26 26.988 234.64 27.324 233.152 27.324C230.8 27.324 229 26.544 227.752 24.984C226.504 23.4 225.88 21.204 225.88 18.396C225.88 15.588 226.492 13.44 227.716 11.952C228.94 10.44 230.74 9.684 233.116 9.684C234.628 9.684 236.152 9.948 237.688 10.476ZM243.016 12.168V10.368H246.508V6.012L248.416 5.652V10.368H256.66V12.168H248.416V20.376C248.416 22.2 248.68 23.52 249.208 24.336C249.76 25.128 250.732 25.524 252.124 25.524C252.652 25.524 253.468 25.44 254.572 25.272C255.676 25.08 256.432 24.912 256.84 24.768L257.272 26.532C256.816 26.7 255.976 26.88 254.752 27.072C253.552 27.264 252.676 27.36 252.124 27.36C249.964 27.36 248.488 26.796 247.696 25.668C246.904 24.516 246.508 22.776 246.508 20.448V12.168H243.016ZM261.808 26.172L262.276 24.3C264.652 25.092 266.488 25.488 267.784 25.488C269.08 25.488 270.076 25.212 270.772 24.66C271.492 24.084 271.852 23.328 271.852 22.392C271.852 21.456 271.564 20.772 270.988 20.34C270.436 19.884 269.272 19.452 267.496 19.044C265.72 18.636 264.388 18.048 263.5 17.28C262.612 16.56 262.168 15.48 262.168 14.04C262.168 12.6 262.708 11.508 263.788 10.764C264.892 9.996 266.308 9.612 268.036 9.612C269.764 9.612 271.636 9.996 273.652 10.764L273.148 12.456C271.108 11.784 269.464 11.448 268.216 11.448C266.968 11.448 265.984 11.664 265.264 12.096C264.544 12.576 264.184 13.224 264.184 14.04C264.184 14.856 264.496 15.492 265.12 15.948C265.768 16.404 267.004 16.86 268.828 17.316C270.652 17.772 271.948 18.36 272.716 19.08C273.484 19.776 273.868 20.88 273.868 22.392C273.868 23.904 273.352 25.104 272.32 25.992C271.312 26.88 269.872 27.324 268 27.324C266.128 27.324 264.064 26.94 261.808 26.172ZM12.424 43.464C11 43.112 9.952 42.608 9.28 41.952C8.624 41.28 8.296 40.312 8.296 39.048C8.296 37.784 8.728 36.8 9.592 36.096C10.472 35.392 11.6 35.04 12.976 35.04C14.352 35.04 15.752 35.288 17.176 35.784L16.84 37.008C15.512 36.528 14.288 36.288 13.168 36.288C12.064 36.288 11.216 36.528 10.624 37.008C10.032 37.472 9.736 38.152 9.736 39.048C9.736 39.944 9.976 40.624 10.456 41.088C10.936 41.552 11.888 41.976 13.312 42.36C14.752 42.728 15.792 43.224 16.432 43.848C17.072 44.456 17.392 45.448 17.392 46.824C17.392 48.184 16.928 49.264 16 50.064C15.088 50.848 13.904 51.24 12.448 51.24C11.36 51.24 9.984 51.008 8.32 50.544L8.632 49.32C10.264 49.768 11.576 49.992 12.568 49.992C13.56 49.992 14.376 49.72 15.016 49.176C15.656 48.616 15.976 47.84 15.976 46.848C15.976 45.856 15.744 45.128 15.28 44.664C14.816 44.2 13.864 43.8 12.424 43.464ZM20.608 45.312C20.608 43.472 20.984 42.04 21.736 41.016C22.504 39.976 23.616 39.456 25.072 39.456C26.528 39.456 27.608 39.936 28.312 40.896C29.032 41.856 29.392 43.136 29.392 44.736L29.32 45.936H21.976C22.056 47.136 22.376 48.112 22.936 48.864C23.496 49.6 24.264 49.968 25.24 49.968C26.232 49.968 27.392 49.736 28.72 49.272L29.08 50.472C27.784 50.968 26.568 51.216 25.432 51.216C23.864 51.216 22.664 50.696 21.832 49.656C21.016 48.6 20.608 47.152 20.608 45.312ZM25.168 40.68C23.152 40.68 22.088 42.032 21.976 44.736H28.024C28.024 42.032 27.072 40.68 25.168 40.68ZM32.944 51V49.8H35.68V40.8H32.944V39.6H36.952L37 40.992C37.512 40.672 38.232 40.352 39.16 40.032C40.088 39.712 40.904 39.52 41.608 39.456H41.872V40.872H41.608C40.952 40.92 40.136 41.08 39.16 41.352C38.2 41.624 37.48 41.904 37 42.192V49.8H40.84V51H32.944ZM44.272 39.6H45.712L48.856 49.848H49.288L52.312 39.6H53.752L50.272 51H47.872L44.272 39.6ZM56.992 51V49.8H60.496V40.8H56.992V39.6H61.768V49.8H65.272V51H56.992ZM59.992 36.216C59.992 35.896 60.08 35.648 60.256 35.472C60.448 35.296 60.704 35.208 61.024 35.208C61.68 35.208 62.008 35.56 62.008 36.264C62.008 36.968 61.68 37.312 61.024 37.296C60.336 37.296 59.992 36.936 59.992 36.216ZM70.048 39.6L70.096 40.56C71.648 39.824 72.936 39.456 73.96 39.456C74.984 39.456 75.784 39.808 76.36 40.512C76.952 41.216 77.248 42.176 77.248 43.392V51H75.976V43.392C75.976 42.608 75.784 41.96 75.4 41.448C75.016 40.952 74.44 40.704 73.672 40.704C72.904 40.704 71.712 41.056 70.096 41.76V51H68.824V39.6H70.048ZM84.736 51C83.296 51 82.192 50.504 81.424 49.512C80.656 48.52 80.272 47.12 80.272 45.312C80.272 43.488 80.696 42.056 81.544 41.016C82.408 39.976 83.608 39.456 85.144 39.456C85.992 39.456 86.944 39.736 88 40.296L88.048 39.6H89.272V48.24C89.512 50.144 89.632 51.248 89.632 51.552C89.632 52.96 89.16 54.016 88.216 54.72C87.272 55.44 86.16 55.8 84.88 55.8C83.616 55.8 82.176 55.48 80.56 54.84L80.992 53.64C82.576 54.248 83.84 54.552 84.784 54.552C85.744 54.552 86.576 54.304 87.28 53.808C88 53.312 88.36 52.568 88.36 51.576L88.144 49.68C86.88 50.56 85.744 51 84.736 51ZM85.192 40.656C84.056 40.656 83.168 41.08 82.528 41.928C81.888 42.76 81.568 43.88 81.568 45.288C81.568 46.68 81.848 47.784 82.408 48.6C82.968 49.4 83.752 49.8 84.76 49.8C85.768 49.8 86.848 49.32 88 48.36V41.64C86.96 40.984 86.024 40.656 85.192 40.656ZM108.424 43.464C107 43.112 105.952 42.608 105.28 41.952C104.624 41.28 104.296 40.312 104.296 39.048C104.296 37.784 104.728 36.8 105.592 36.096C106.472 35.392 107.6 35.04 108.976 35.04C110.352 35.04 111.752 35.288 113.176 35.784L112.84 37.008C111.512 36.528 110.288 36.288 109.168 36.288C108.064 36.288 107.216 36.528 106.624 37.008C106.032 37.472 105.736 38.152 105.736 39.048C105.736 39.944 105.976 40.624 106.456 41.088C106.936 41.552 107.888 41.976 109.312 42.36C110.752 42.728 111.792 43.224 112.432 43.848C113.072 44.456 113.392 45.448 113.392 46.824C113.392 48.184 112.928 49.264 112 50.064C111.088 50.848 109.904 51.24 108.448 51.24C107.36 51.24 105.984 51.008 104.32 50.544L104.632 49.32C106.264 49.768 107.576 49.992 108.568 49.992C109.56 49.992 110.376 49.72 111.016 49.176C111.656 48.616 111.976 47.84 111.976 46.848C111.976 45.856 111.744 45.128 111.28 44.664C110.816 44.2 109.864 43.8 108.424 43.464ZM116.992 51V49.8H120.496V40.8H116.992V39.6H121.768V49.8H125.272V51H116.992ZM119.992 36.216C119.992 35.896 120.08 35.648 120.256 35.472C120.448 35.296 120.704 35.208 121.024 35.208C121.68 35.208 122.008 35.56 122.008 36.264C122.008 36.968 121.68 37.312 121.024 37.296C120.336 37.296 119.992 36.936 119.992 36.216ZM129.088 40.8V39.6H136.912L137.032 40.584L130.576 49.8H137.104V51H129.064L128.872 50.016L135.304 40.8H129.088ZM140.608 45.312C140.608 43.472 140.984 42.04 141.736 41.016C142.504 39.976 143.616 39.456 145.072 39.456C146.528 39.456 147.608 39.936 148.312 40.896C149.032 41.856 149.392 43.136 149.392 44.736L149.32 45.936H141.976C142.056 47.136 142.376 48.112 142.936 48.864C143.496 49.6 144.264 49.968 145.24 49.968C146.232 49.968 147.392 49.736 148.72 49.272L149.08 50.472C147.784 50.968 146.568 51.216 145.432 51.216C143.864 51.216 142.664 50.696 141.832 49.656C141.016 48.6 140.608 47.152 140.608 45.312ZM145.168 40.68C143.152 40.68 142.088 42.032 141.976 44.736H148.024C148.024 42.032 147.072 40.68 145.168 40.68ZM155.176 51V48.096H157.816V51H155.176ZM155.176 44.04V41.136H157.816V44.04H155.176ZM185.896 51H176.896V49.776H181V37.296L177.04 39.12L176.488 37.848L181.144 35.76H182.416V49.776H185.896V51ZM209.224 49.368L209.536 50.592C208.128 51.008 206.864 51.216 205.744 51.216C203.904 51.216 202.536 50.584 201.64 49.32C200.76 48.04 200.32 45.984 200.32 43.152C200.32 40.32 200.752 38.264 201.616 36.984C202.48 35.688 203.864 35.04 205.768 35.04C206.936 35.04 208.152 35.288 209.416 35.784L209.032 36.984C207.88 36.504 206.792 36.264 205.768 36.264C204.344 36.264 203.312 36.808 202.672 37.896C202.048 38.968 201.736 40.704 201.736 43.104C201.736 45.504 202.072 47.248 202.744 48.336C203.416 49.424 204.424 49.968 205.768 49.968C206.664 49.968 207.816 49.768 209.224 49.368ZM219.976 51L219.928 50.016C218.392 50.816 217.112 51.216 216.088 51.216C215.064 51.216 214.256 50.864 213.664 50.16C213.072 49.456 212.776 48.496 212.776 47.28V39.6H214.048V47.28C214.048 48.064 214.232 48.712 214.6 49.224C214.984 49.72 215.56 49.968 216.328 49.968C217.096 49.968 218.296 49.568 219.928 48.768V39.6H221.2V51H219.976ZM224.848 55.608V41.664L224.632 39.576L225.832 39.432L226.048 40.728C227.216 39.88 228.328 39.456 229.384 39.456C230.808 39.456 231.912 39.976 232.696 41.016C233.48 42.056 233.872 43.488 233.872 45.312C233.872 47.136 233.44 48.576 232.576 49.632C231.712 50.688 230.512 51.216 228.976 51.216C228.08 51.216 227.128 51 226.12 50.568V55.608H224.848ZM232.504 45.36C232.504 43.936 232.232 42.808 231.688 41.976C231.144 41.128 230.36 40.704 229.336 40.704C228.328 40.704 227.256 41.16 226.12 42.072V49.272C226.456 49.432 226.912 49.592 227.488 49.752C228.08 49.896 228.56 49.968 228.928 49.968C230.064 49.968 230.944 49.552 231.568 48.72C232.192 47.888 232.504 46.768 232.504 45.36Z" fill="black"/>
<path d="M1 71H317" stroke="black" stroke-width="2" stroke-linecap="square"/>
<path d="M1 116H317" stroke="black" stroke-width="2" stroke-linecap="square"/>
<path d="M4 278H320" stroke="black" stroke-width="2" stroke-linecap="square"/>
<path d="M7.408 100L11.92 84.28H14.224L18.568 100H17.152L16.168 96.376H9.808L8.8 100H7.408ZM15.856 95.176L13.264 85.48H12.856L10.144 95.176H15.856ZM21.04 88.6L21.112 89.32C21.912 88.744 22.528 88.456 22.96 88.456C24.016 88.456 24.744 88.8 25.144 89.488C26.04 88.8 26.824 88.456 27.496 88.456C28.536 88.456 29.248 88.776 29.632 89.416C30.016 90.056 30.208 91.04 30.208 92.368V100H28.936V92.368C28.936 91.456 28.84 90.784 28.648 90.352C28.456 89.904 28.088 89.68 27.544 89.68C27 89.68 26.328 89.936 25.528 90.448C25.624 90.992 25.672 91.632 25.672 92.368V96.352H24.4V92.368C24.4 91.456 24.304 90.784 24.112 90.352C23.904 89.904 23.528 89.68 22.984 89.68C22.44 89.68 21.816 89.936 21.112 90.448V100H19.84V88.6H21.04ZM32.416 94.336C32.416 90.416 33.944 88.456 37 88.456C40.056 88.456 41.584 90.416 41.584 94.336C41.584 98.256 40.056 100.216 37 100.216C33.944 100.216 32.416 98.256 32.416 94.336ZM37 89.704C34.856 89.704 33.784 91.248 33.784 94.336C33.784 97.424 34.856 98.968 37 98.968C39.144 98.968 40.216 97.424 40.216 94.336C40.216 91.248 39.144 89.704 37 89.704ZM51.976 100L51.928 99.016C50.392 99.816 49.112 100.216 48.088 100.216C47.064 100.216 46.256 99.864 45.664 99.16C45.072 98.456 44.776 97.496 44.776 96.28V88.6H46.048V96.28C46.048 97.064 46.232 97.712 46.6 98.224C46.984 98.72 47.56 98.968 48.328 98.968C49.096 98.968 50.296 98.568 51.928 97.768V88.6H53.2V100H51.976ZM58.048 88.6L58.096 89.56C59.648 88.824 60.936 88.456 61.96 88.456C62.984 88.456 63.784 88.808 64.36 89.512C64.952 90.216 65.248 91.176 65.248 92.392V100H63.976V92.392C63.976 91.608 63.784 90.96 63.4 90.448C63.016 89.952 62.44 89.704 61.672 89.704C60.904 89.704 59.712 90.056 58.096 90.76V100H56.824V88.6H58.048ZM68.344 90.112V88.912H70.672V86.008L71.944 85.768V88.912H77.44V90.112H71.944V95.584C71.944 96.8 72.12 97.68 72.472 98.224C72.84 98.752 73.488 99.016 74.416 99.016C74.768 99.016 75.312 98.96 76.048 98.848C76.784 98.72 77.288 98.608 77.56 98.512L77.848 99.688C77.544 99.8 76.984 99.92 76.168 100.048C75.368 100.176 74.784 100.24 74.416 100.24C72.976 100.24 71.992 99.864 71.464 99.112C70.936 98.344 70.672 97.184 70.672 95.632V90.112H68.344ZM96.184 94.24H93.976V100H92.656V84.28H96.184C98.104 84.28 99.52 84.648 100.432 85.384C101.36 86.104 101.824 87.36 101.824 89.152C101.824 90.944 101.36 92.24 100.432 93.04C99.504 93.84 98.088 94.24 96.184 94.24ZM96.184 85.48H93.976V93.04H96.184C97.656 93.04 98.728 92.744 99.4 92.152C100.088 91.56 100.432 90.568 100.432 89.176C100.432 87.784 100.096 86.824 99.424 86.296C98.752 85.752 97.672 85.48 96.184 85.48ZM104.608 94.312C104.608 92.472 104.984 91.04 105.736 90.016C106.504 88.976 107.616 88.456 109.072 88.456C110.528 88.456 111.608 88.936 112.312 89.896C113.032 90.856 113.392 92.136 113.392 93.736L113.32 94.936H105.976C106.056 96.136 106.376 97.112 106.936 97.864C107.496 98.6 108.264 98.968 109.24 98.968C110.232 98.968 111.392 98.736 112.72 98.272L113.08 99.472C111.784 99.968 110.568 100.216 109.432 100.216C107.864 100.216 106.664 99.696 105.832 98.656C105.016 97.6 104.608 96.152 104.608 94.312ZM109.168 89.68C107.152 89.68 106.088 91.032 105.976 93.736H112.024C112.024 91.032 111.072 89.68 109.168 89.68ZM116.944 100V98.8H119.68V89.8H116.944V88.6H120.952L121 89.992C121.512 89.672 122.232 89.352 123.16 89.032C124.088 88.712 124.904 88.52 125.608 88.456H125.872V89.872H125.608C124.952 89.92 124.136 90.08 123.16 90.352C122.2 90.624 121.48 90.904 121 91.192V98.8H124.84V100H116.944ZM144.424 92.464C143 92.112 141.952 91.608 141.28 90.952C140.624 90.28 140.296 89.312 140.296 88.048C140.296 86.784 140.728 85.8 141.592 85.096C142.472 84.392 143.6 84.04 144.976 84.04C146.352 84.04 147.752 84.288 149.176 84.784L148.84 86.008C147.512 85.528 146.288 85.288 145.168 85.288C144.064 85.288 143.216 85.528 142.624 86.008C142.032 86.472 141.736 87.152 141.736 88.048C141.736 88.944 141.976 89.624 142.456 90.088C142.936 90.552 143.888 90.976 145.312 91.36C146.752 91.728 147.792 92.224 148.432 92.848C149.072 93.456 149.392 94.448 149.392 95.824C149.392 97.184 148.928 98.264 148 99.064C147.088 99.848 145.904 100.24 144.448 100.24C143.36 100.24 141.984 100.008 140.32 99.544L140.632 98.32C142.264 98.768 143.576 98.992 144.568 98.992C145.56 98.992 146.376 98.72 147.016 98.176C147.656 97.616 147.976 96.84 147.976 95.848C147.976 94.856 147.744 94.128 147.28 93.664C146.816 93.2 145.864 92.8 144.424 92.464ZM152.608 94.312C152.608 92.472 152.984 91.04 153.736 90.016C154.504 88.976 155.616 88.456 157.072 88.456C158.528 88.456 159.608 88.936 160.312 89.896C161.032 90.856 161.392 92.136 161.392 93.736L161.32 94.936H153.976C154.056 96.136 154.376 97.112 154.936 97.864C155.496 98.6 156.264 98.968 157.24 98.968C158.232 98.968 159.392 98.736 160.72 98.272L161.08 99.472C159.784 99.968 158.568 100.216 157.432 100.216C155.864 100.216 154.664 99.696 153.832 98.656C153.016 97.6 152.608 96.152 152.608 94.312ZM157.168 89.68C155.152 89.68 154.088 91.032 153.976 93.736H160.024C160.024 91.032 159.072 89.68 157.168 89.68ZM164.944 100V98.8H167.68V89.8H164.944V88.6H168.952L169 89.992C169.512 89.672 170.232 89.352 171.16 89.032C172.088 88.712 172.904 88.52 173.608 88.456H173.872V89.872H173.608C172.952 89.92 172.136 90.08 171.16 90.352C170.2 90.624 169.48 90.904 169 91.192V98.8H172.84V100H164.944ZM176.272 88.6H177.712L180.856 98.848H181.288L184.312 88.6H185.752L182.272 100H179.872L176.272 88.6ZM188.992 100V98.8H192.496V89.8H188.992V88.6H193.768V98.8H197.272V100H188.992ZM191.992 85.216C191.992 84.896 192.08 84.648 192.256 84.472C192.448 84.296 192.704 84.208 193.024 84.208C193.68 84.208 194.008 84.56 194.008 85.264C194.008 85.968 193.68 86.312 193.024 86.296C192.336 86.296 191.992 85.936 191.992 85.216ZM202.048 88.6L202.096 89.56C203.648 88.824 204.936 88.456 205.96 88.456C206.984 88.456 207.784 88.808 208.36 89.512C208.952 90.216 209.248 91.176 209.248 92.392V100H207.976V92.392C207.976 91.608 207.784 90.96 207.4 90.448C207.016 89.952 206.44 89.704 205.672 89.704C204.904 89.704 203.712 90.056 202.096 90.76V100H200.824V88.6H202.048ZM216.736 100C215.296 100 214.192 99.504 213.424 98.512C212.656 97.52 212.272 96.12 212.272 94.312C212.272 92.488 212.696 91.056 213.544 90.016C214.408 88.976 215.608 88.456 217.144 88.456C217.992 88.456 218.944 88.736 220 89.296L220.048 88.6H221.272V97.24C221.512 99.144 221.632 100.248 221.632 100.552C221.632 101.96 221.16 103.016 220.216 103.72C219.272 104.44 218.16 104.8 216.88 104.8C215.616 104.8 214.176 104.48 212.56 103.84L212.992 102.64C214.576 103.248 215.84 103.552 216.784 103.552C217.744 103.552 218.576 103.304 219.28 102.808C220 102.312 220.36 101.568 220.36 100.576L220.144 98.68C218.88 99.56 217.744 100 216.736 100ZM217.192 89.656C216.056 89.656 215.168 90.08 214.528 90.928C213.888 91.76 213.568 92.88 213.568 94.288C213.568 95.68 213.848 96.784 214.408 97.6C214.968 98.4 215.752 98.8 216.76 98.8C217.768 98.8 218.848 98.32 220 97.36V90.64C218.96 89.984 218.024 89.656 217.192 89.656ZM227.176 100V97.096H229.816V100H227.176ZM227.176 93.04V90.136H229.816V93.04H227.176ZM250.264 92.968L250.096 91.888L251.824 91.624C253.12 91.432 254.08 91.088 254.704 90.592C255.344 90.08 255.664 89.368 255.664 88.456C255.664 87.544 255.376 86.88 254.8 86.464C254.24 86.032 253.512 85.816 252.616 85.816C251.72 85.816 250.472 86.168 248.872 86.872L248.416 85.744C249.04 85.44 249.776 85.168 250.624 84.928C251.472 84.688 252.176 84.568 252.736 84.568C254.048 84.568 255.088 84.88 255.856 85.504C256.64 86.128 257.032 87.08 257.032 88.36C257.032 89.256 256.848 89.96 256.48 90.472C256.128 90.968 255.536 91.424 254.704 91.84V91.888C256.672 92.304 257.656 93.608 257.656 95.8C257.656 98.76 256 100.24 252.688 100.24C251.36 100.24 249.832 99.92 248.104 99.28L248.536 98.056C250.152 98.68 251.52 98.992 252.64 98.992C253.76 98.992 254.64 98.728 255.28 98.2C255.92 97.672 256.24 96.872 256.24 95.8C256.24 94.728 255.968 93.944 255.424 93.448C254.88 92.936 254.032 92.68 252.88 92.68L250.264 92.968ZM260.392 92.368C260.392 89.552 260.752 87.544 261.472 86.344C262.192 85.144 263.36 84.544 264.976 84.544C266.608 84.544 267.784 85.144 268.504 86.344C269.224 87.544 269.584 89.552 269.584 92.368C269.584 95.168 269.224 97.176 268.504 98.392C267.784 99.608 266.608 100.216 264.976 100.216C263.36 100.216 262.192 99.608 261.472 98.392C260.752 97.176 260.392 95.168 260.392 92.368ZM262.576 97.432C263.024 98.456 263.824 98.968 264.976 98.968C266.128 98.968 266.928 98.456 267.376 97.432C267.824 96.408 268.048 94.712 268.048 92.344C268.048 89.96 267.832 88.272 267.4 87.28C266.968 86.288 266.168 85.792 265 85.792C263.832 85.792 263.024 86.296 262.576 87.304C262.144 88.296 261.928 89.976 261.928 92.344C261.928 94.712 262.144 96.408 262.576 97.432ZM272.392 92.368C272.392 89.552 272.752 87.544 273.472 86.344C274.192 85.144 275.36 84.544 276.976 84.544C278.608 84.544 279.784 85.144 280.504 86.344C281.224 87.544 281.584 89.552 281.584 92.368C281.584 95.168 281.224 97.176 280.504 98.392C279.784 99.608 278.608 100.216 276.976 100.216C275.36 100.216 274.192 99.608 273.472 98.392C272.752 97.176 272.392 95.168 272.392 92.368ZM274.576 97.432C275.024 98.456 275.824 98.968 276.976 98.968C278.128 98.968 278.928 98.456 279.376 97.432C279.824 96.408 280.048 94.712 280.048 92.344C280.048 89.96 279.832 88.272 279.4 87.28C278.968 86.288 278.168 85.792 277 85.792C275.832 85.792 275.024 86.296 274.576 87.304C274.144 88.296 273.928 89.976 273.928 92.344C273.928 94.712 274.144 96.408 274.576 97.432ZM285.04 88.6L285.112 89.32C285.912 88.744 286.528 88.456 286.96 88.456C288.016 88.456 288.744 88.8 289.144 89.488C290.04 88.8 290.824 88.456 291.496 88.456C292.536 88.456 293.248 88.776 293.632 89.416C294.016 90.056 294.208 91.04 294.208 92.368V100H292.936V92.368C292.936 91.456 292.84 90.784 292.648 90.352C292.456 89.904 292.088 89.68 291.544 89.68C291 89.68 290.328 89.936 289.528 90.448C289.624 90.992 289.672 91.632 289.672 92.368V96.352H288.4V92.368C288.4 91.456 288.304 90.784 288.112 90.352C287.904 89.904 287.528 89.68 286.984 89.68C286.44 89.68 285.816 89.936 285.112 90.448V100H283.84V88.6H285.04ZM297.28 100V98.8H300.952V85.216L297.376 85.24L297.352 84.064L302.224 84.04V98.8H306.016V100H297.28Z" fill="black"/>
<path d="M17.224 140.368L17.536 141.592C16.128 142.008 14.864 142.216 13.744 142.216C11.904 142.216 10.536 141.584 9.64 140.32C8.76 139.04 8.32 136.984 8.32 134.152C8.32 131.32 8.752 129.264 9.616 127.984C10.48 126.688 11.864 126.04 13.768 126.04C14.936 126.04 16.152 126.288 17.416 126.784L17.032 127.984C15.88 127.504 14.792 127.264 13.768 127.264C12.344 127.264 11.312 127.808 10.672 128.896C10.048 129.968 9.736 131.704 9.736 134.104C9.736 136.504 10.072 138.248 10.744 139.336C11.416 140.424 12.424 140.968 13.768 140.968C14.664 140.968 15.816 140.768 17.224 140.368ZM20.944 142V140.8H23.68V131.8H20.944V130.6H24.952L25 131.992C25.512 131.672 26.232 131.352 27.16 131.032C28.088 130.712 28.904 130.52 29.608 130.456H29.872V131.872H29.608C28.952 131.92 28.136 132.08 27.16 132.352C26.2 132.624 25.48 132.904 25 133.192V140.8H28.84V142H20.944ZM32.608 136.312C32.608 134.472 32.984 133.04 33.736 132.016C34.504 130.976 35.616 130.456 37.072 130.456C38.528 130.456 39.608 130.936 40.312 131.896C41.032 132.856 41.392 134.136 41.392 135.736L41.32 136.936H33.976C34.056 138.136 34.376 139.112 34.936 139.864C35.496 140.6 36.264 140.968 37.24 140.968C38.232 140.968 39.392 140.736 40.72 140.272L41.08 141.472C39.784 141.968 38.568 142.216 37.432 142.216C35.864 142.216 34.664 141.696 33.832 140.656C33.016 139.6 32.608 138.152 32.608 136.312ZM37.168 131.68C35.152 131.68 34.088 133.032 33.976 135.736H40.024C40.024 133.032 39.072 131.68 37.168 131.68ZM48.232 140.968C48.824 140.968 49.464 140.784 50.152 140.416C50.856 140.032 51.368 139.68 51.688 139.36V136.504C50.632 136.424 49.624 136.384 48.664 136.384C47.704 136.384 46.984 136.592 46.504 137.008C46.024 137.408 45.784 137.952 45.784 138.64C45.784 140.192 46.6 140.968 48.232 140.968ZM48.208 142.216C47.04 142.216 46.12 141.92 45.448 141.328C44.776 140.72 44.44 139.864 44.44 138.76C44.44 137.656 44.808 136.8 45.544 136.192C46.28 135.568 47.256 135.256 48.472 135.256C49.688 135.256 50.76 135.304 51.688 135.4C51.688 133.976 51.512 133.008 51.16 132.496C50.808 131.968 50.096 131.704 49.024 131.704C47.952 131.704 46.688 131.96 45.232 132.472L44.872 131.272C46.36 130.728 47.704 130.456 48.904 130.456C50.488 130.456 51.56 130.808 52.12 131.512C52.68 132.216 52.96 133.448 52.96 135.208V140.248L53.152 142.072L51.928 142.192L51.688 140.752C51.32 141.072 50.8 141.4 50.128 141.736C49.456 142.056 48.816 142.216 48.208 142.216ZM57.04 130.6L57.112 131.32C57.912 130.744 58.528 130.456 58.96 130.456C60.016 130.456 60.744 130.8 61.144 131.488C62.04 130.8 62.824 130.456 63.496 130.456C64.536 130.456 65.248 130.776 65.632 131.416C66.016 132.056 66.208 133.04 66.208 134.368V142H64.936V134.368C64.936 133.456 64.84 132.784 64.648 132.352C64.456 131.904 64.088 131.68 63.544 131.68C63 131.68 62.328 131.936 61.528 132.448C61.624 132.992 61.672 133.632 61.672 134.368V138.352H60.4V134.368C60.4 133.456 60.304 132.784 60.112 132.352C59.904 131.904 59.528 131.68 58.984 131.68C58.44 131.68 57.816 131.936 57.112 132.448V142H55.84V130.6H57.04ZM12.424 158.464C11 158.112 9.952 157.608 9.28 156.952C8.624 156.28 8.296 155.312 8.296 154.048C8.296 152.784 8.728 151.8 9.592 151.096C10.472 150.392 11.6 150.04 12.976 150.04C14.352 150.04 15.752 150.288 17.176 150.784L16.84 152.008C15.512 151.528 14.288 151.288 13.168 151.288C12.064 151.288 11.216 151.528 10.624 152.008C10.032 152.472 9.736 153.152 9.736 154.048C9.736 154.944 9.976 155.624 10.456 156.088C10.936 156.552 11.888 156.976 13.312 157.36C14.752 157.728 15.792 158.224 16.432 158.848C17.072 159.456 17.392 160.448 17.392 161.824C17.392 163.184 16.928 164.264 16 165.064C15.088 165.848 13.904 166.24 12.448 166.24C11.36 166.24 9.984 166.008 8.32 165.544L8.632 164.32C10.264 164.768 11.576 164.992 12.568 164.992C13.56 164.992 14.376 164.72 15.016 164.176C15.656 163.616 15.976 162.84 15.976 161.848C15.976 160.856 15.744 160.128 15.28 159.664C14.816 159.2 13.864 158.8 12.424 158.464ZM27.976 166L27.928 165.016C26.392 165.816 25.112 166.216 24.088 166.216C23.064 166.216 22.256 165.864 21.664 165.16C21.072 164.456 20.776 163.496 20.776 162.28V154.6H22.048V162.28C22.048 163.064 22.232 163.712 22.6 164.224C22.984 164.72 23.56 164.968 24.328 164.968C25.096 164.968 26.296 164.568 27.928 163.768V154.6H29.2V166H27.976ZM36.736 166C35.296 166 34.192 165.504 33.424 164.512C32.656 163.52 32.272 162.12 32.272 160.312C32.272 158.488 32.696 157.056 33.544 156.016C34.408 154.976 35.608 154.456 37.144 154.456C37.992 154.456 38.944 154.736 40 155.296L40.048 154.6H41.272V163.24C41.512 165.144 41.632 166.248 41.632 166.552C41.632 167.96 41.16 169.016 40.216 169.72C39.272 170.44 38.16 170.8 36.88 170.8C35.616 170.8 34.176 170.48 32.56 169.84L32.992 168.64C34.576 169.248 35.84 169.552 36.784 169.552C37.744 169.552 38.576 169.304 39.28 168.808C40 168.312 40.36 167.568 40.36 166.576L40.144 164.68C38.88 165.56 37.744 166 36.736 166ZM37.192 155.656C36.056 155.656 35.168 156.08 34.528 156.928C33.888 157.76 33.568 158.88 33.568 160.288C33.568 161.68 33.848 162.784 34.408 163.6C34.968 164.4 35.752 164.8 36.76 164.8C37.768 164.8 38.848 164.32 40 163.36V156.64C38.96 155.984 38.024 155.656 37.192 155.656ZM48.232 164.968C48.824 164.968 49.464 164.784 50.152 164.416C50.856 164.032 51.368 163.68 51.688 163.36V160.504C50.632 160.424 49.624 160.384 48.664 160.384C47.704 160.384 46.984 160.592 46.504 161.008C46.024 161.408 45.784 161.952 45.784 162.64C45.784 164.192 46.6 164.968 48.232 164.968ZM48.208 166.216C47.04 166.216 46.12 165.92 45.448 165.328C44.776 164.72 44.44 163.864 44.44 162.76C44.44 161.656 44.808 160.8 45.544 160.192C46.28 159.568 47.256 159.256 48.472 159.256C49.688 159.256 50.76 159.304 51.688 159.4C51.688 157.976 51.512 157.008 51.16 156.496C50.808 155.968 50.096 155.704 49.024 155.704C47.952 155.704 46.688 155.96 45.232 156.472L44.872 155.272C46.36 154.728 47.704 154.456 48.904 154.456C50.488 154.456 51.56 154.808 52.12 155.512C52.68 156.216 52.96 157.448 52.96 159.208V164.248L53.152 166.072L51.928 166.192L51.688 164.752C51.32 165.072 50.8 165.4 50.128 165.736C49.456 166.056 48.816 166.216 48.208 166.216ZM56.944 166V164.8H59.68V155.8H56.944V154.6H60.952L61 155.992C61.512 155.672 62.232 155.352 63.16 155.032C64.088 154.712 64.904 154.52 65.608 154.456H65.872V155.872H65.608C64.952 155.92 64.136 156.08 63.16 156.352C62.2 156.624 61.48 156.904 61 157.192V164.8H64.84V166H56.944ZM17.224 188.368L17.536 189.592C16.128 190.008 14.864 190.216 13.744 190.216C11.904 190.216 10.536 189.584 9.64 188.32C8.76 187.04 8.32 184.984 8.32 182.152C8.32 179.32 8.752 177.264 9.616 175.984C10.48 174.688 11.864 174.04 13.768 174.04C14.936 174.04 16.152 174.288 17.416 174.784L17.032 175.984C15.88 175.504 14.792 175.264 13.768 175.264C12.344 175.264 11.312 175.808 10.672 176.896C10.048 177.968 9.736 179.704 9.736 182.104C9.736 184.504 10.072 186.248 10.744 187.336C11.416 188.424 12.424 188.968 13.768 188.968C14.664 188.968 15.816 188.768 17.224 188.368ZM24.232 188.968C24.824 188.968 25.464 188.784 26.152 188.416C26.856 188.032 27.368 187.68 27.688 187.36V184.504C26.632 184.424 25.624 184.384 24.664 184.384C23.704 184.384 22.984 184.592 22.504 185.008C22.024 185.408 21.784 185.952 21.784 186.64C21.784 188.192 22.6 188.968 24.232 188.968ZM24.208 190.216C23.04 190.216 22.12 189.92 21.448 189.328C20.776 188.72 20.44 187.864 20.44 186.76C20.44 185.656 20.808 184.8 21.544 184.192C22.28 183.568 23.256 183.256 24.472 183.256C25.688 183.256 26.76 183.304 27.688 183.4C27.688 181.976 27.512 181.008 27.16 180.496C26.808 179.968 26.096 179.704 25.024 179.704C23.952 179.704 22.688 179.96 21.232 180.472L20.872 179.272C22.36 178.728 23.704 178.456 24.904 178.456C26.488 178.456 27.56 178.808 28.12 179.512C28.68 180.216 28.96 181.448 28.96 183.208V188.248L29.152 190.072L27.928 190.192L27.688 188.752C27.32 189.072 26.8 189.4 26.128 189.736C25.456 190.056 24.816 190.216 24.208 190.216ZM32.656 190V188.8H35.32V179.8H32.752V178.6H35.32C35.32 175.432 36.496 173.848 38.848 173.848C39.616 173.848 40.624 174.032 41.872 174.4L41.584 175.6C40.352 175.248 39.456 175.072 38.896 175.072C38.08 175.072 37.488 175.36 37.12 175.936C36.768 176.496 36.592 177.384 36.592 178.6H41.416V179.8H36.592V188.8H41.464V190H32.656ZM44.656 190V188.8H47.32V179.8H44.752V178.6H47.32C47.32 175.432 48.496 173.848 50.848 173.848C51.616 173.848 52.624 174.032 53.872 174.4L53.584 175.6C52.352 175.248 51.456 175.072 50.896 175.072C50.08 175.072 49.488 175.36 49.12 175.936C48.768 176.496 48.592 177.384 48.592 178.6H53.416V179.8H48.592V188.8H53.464V190H44.656ZM56.608 184.312C56.608 182.472 56.984 181.04 57.736 180.016C58.504 178.976 59.616 178.456 61.072 178.456C62.528 178.456 63.608 178.936 64.312 179.896C65.032 180.856 65.392 182.136 65.392 183.736L65.32 184.936H57.976C58.056 186.136 58.376 187.112 58.936 187.864C59.496 188.6 60.264 188.968 61.24 188.968C62.232 188.968 63.392 188.736 64.72 188.272L65.08 189.472C63.784 189.968 62.568 190.216 61.432 190.216C59.864 190.216 58.664 189.696 57.832 188.656C57.016 187.6 56.608 186.152 56.608 184.312ZM61.168 179.68C59.152 179.68 58.088 181.032 57.976 183.736H64.024C64.024 181.032 63.072 179.68 61.168 179.68ZM68.992 190V188.8H72.496V179.8H68.992V178.6H73.768V188.8H77.272V190H68.992ZM71.992 175.216C71.992 174.896 72.08 174.648 72.256 174.472C72.448 174.296 72.704 174.208 73.024 174.208C73.68 174.208 74.008 174.56 74.008 175.264C74.008 175.968 73.68 176.312 73.024 176.296C72.336 176.296 71.992 175.936 71.992 175.216ZM82.048 178.6L82.096 179.56C83.648 178.824 84.936 178.456 85.96 178.456C86.984 178.456 87.784 178.808 88.36 179.512C88.952 180.216 89.248 181.176 89.248 182.392V190H87.976V182.392C87.976 181.608 87.784 180.96 87.4 180.448C87.016 179.952 86.44 179.704 85.672 179.704C84.904 179.704 83.712 180.056 82.096 180.76V190H80.824V178.6H82.048ZM92.608 184.312C92.608 182.472 92.984 181.04 93.736 180.016C94.504 178.976 95.616 178.456 97.072 178.456C98.528 178.456 99.608 178.936 100.312 179.896C101.032 180.856 101.392 182.136 101.392 183.736L101.32 184.936H93.976C94.056 186.136 94.376 187.112 94.936 187.864C95.496 188.6 96.264 188.968 97.24 188.968C98.232 188.968 99.392 188.736 100.72 188.272L101.08 189.472C99.784 189.968 98.568 190.216 97.432 190.216C95.864 190.216 94.664 189.696 93.832 188.656C93.016 187.6 92.608 186.152 92.608 184.312ZM97.168 179.68C95.152 179.68 94.088 181.032 93.976 183.736H100.024C100.024 181.032 99.072 179.68 97.168 179.68ZM12.184 208.24H9.976V214H8.656V198.28H12.184C14.104 198.28 15.52 198.648 16.432 199.384C17.36 200.104 17.824 201.36 17.824 203.152C17.824 204.944 17.36 206.24 16.432 207.04C15.504 207.84 14.088 208.24 12.184 208.24ZM12.184 199.48H9.976V207.04H12.184C13.656 207.04 14.728 206.744 15.4 206.152C16.088 205.56 16.432 204.568 16.432 203.176C16.432 201.784 16.096 200.824 15.424 200.296C14.752 199.752 13.672 199.48 12.184 199.48ZM20.944 214V212.8H23.68V203.8H20.944V202.6H24.952L25 203.992C25.512 203.672 26.232 203.352 27.16 203.032C28.088 202.712 28.904 202.52 29.608 202.456H29.872V203.872H29.608C28.952 203.92 28.136 204.08 27.16 204.352C26.2 204.624 25.48 204.904 25 205.192V212.8H28.84V214H20.944ZM32.416 208.336C32.416 204.416 33.944 202.456 37 202.456C40.056 202.456 41.584 204.416 41.584 208.336C41.584 212.256 40.056 214.216 37 214.216C33.944 214.216 32.416 212.256 32.416 208.336ZM37 203.704C34.856 203.704 33.784 205.248 33.784 208.336C33.784 211.424 34.856 212.968 37 212.968C39.144 212.968 40.216 211.424 40.216 208.336C40.216 205.248 39.144 203.704 37 203.704ZM53.272 198.064V212.008L53.512 214.096L52.288 214.24L52.048 212.968C50.848 213.8 49.744 214.216 48.736 214.216C47.312 214.216 46.2 213.688 45.4 212.632C44.616 211.576 44.224 210.144 44.224 208.336C44.224 206.512 44.664 205.08 45.544 204.04C46.424 202.984 47.624 202.456 49.144 202.456C50.04 202.456 50.992 202.672 52 203.104V198.064H53.272ZM45.592 208.288C45.592 209.696 45.864 210.832 46.408 211.696C46.968 212.544 47.768 212.968 48.808 212.968C49.848 212.968 50.912 212.512 52 211.6V204.4C51.664 204.24 51.2 204.088 50.608 203.944C50.032 203.784 49.56 203.704 49.192 203.704C48.056 203.704 47.168 204.12 46.528 204.952C45.904 205.768 45.592 206.88 45.592 208.288ZM63.976 214L63.928 213.016C62.392 213.816 61.112 214.216 60.088 214.216C59.064 214.216 58.256 213.864 57.664 213.16C57.072 212.456 56.776 211.496 56.776 210.28V202.6H58.048V210.28C58.048 211.064 58.232 211.712 58.6 212.224C58.984 212.72 59.56 212.968 60.328 212.968C61.096 212.968 62.296 212.568 63.928 211.768V202.6H65.2V214H63.976ZM76.792 202.984L76.504 204.232C75.512 203.88 74.592 203.704 73.744 203.704C72.592 203.704 71.728 204.112 71.152 204.928C70.592 205.728 70.312 206.848 70.312 208.288C70.312 209.728 70.6 210.872 71.176 211.72C71.752 212.552 72.608 212.968 73.744 212.968C74.512 212.968 75.472 212.76 76.624 212.344L77.008 213.544C75.84 213.992 74.76 214.216 73.768 214.216C72.2 214.216 71 213.696 70.168 212.656C69.336 211.6 68.92 210.136 68.92 208.264C68.92 206.392 69.328 204.96 70.144 203.968C70.96 202.96 72.16 202.456 73.744 202.456C74.752 202.456 75.768 202.632 76.792 202.984ZM80.344 204.112V202.912H82.672V200.008L83.944 199.768V202.912H89.44V204.112H83.944V209.584C83.944 210.8 84.12 211.68 84.472 212.224C84.84 212.752 85.488 213.016 86.416 213.016C86.768 213.016 87.312 212.96 88.048 212.848C88.784 212.72 89.288 212.608 89.56 212.512L89.848 213.688C89.544 213.8 88.984 213.92 88.168 214.048C87.368 214.176 86.784 214.24 86.416 214.24C84.976 214.24 83.992 213.864 83.464 213.112C82.936 212.344 82.672 211.184 82.672 209.632V204.112H80.344ZM92.992 214V212.8H96.496V203.8H92.992V202.6H97.768V212.8H101.272V214H92.992ZM95.992 199.216C95.992 198.896 96.08 198.648 96.256 198.472C96.448 198.296 96.704 198.208 97.024 198.208C97.68 198.208 98.008 198.56 98.008 199.264C98.008 199.968 97.68 200.312 97.024 200.296C96.336 200.296 95.992 199.936 95.992 199.216ZM104.272 202.6H105.712L108.856 212.848H109.288L112.312 202.6H113.752L110.272 214H107.872L104.272 202.6ZM116.992 214V212.8H120.496V203.8H116.992V202.6H121.768V212.8H125.272V214H116.992ZM119.992 199.216C119.992 198.896 120.08 198.648 120.256 198.472C120.448 198.296 120.704 198.208 121.024 198.208C121.68 198.208 122.008 198.56 122.008 199.264C122.008 199.968 121.68 200.312 121.024 200.296C120.336 200.296 119.992 199.936 119.992 199.216ZM128.344 204.112V202.912H130.672V200.008L131.944 199.768V202.912H137.44V204.112H131.944V209.584C131.944 210.8 132.12 211.68 132.472 212.224C132.84 212.752 133.488 213.016 134.416 213.016C134.768 213.016 135.312 212.96 136.048 212.848C136.784 212.72 137.288 212.608 137.56 212.512L137.848 213.688C137.544 213.8 136.984 213.92 136.168 214.048C135.368 214.176 134.784 214.24 134.416 214.24C132.976 214.24 131.992 213.864 131.464 213.112C130.936 212.344 130.672 211.184 130.672 209.632V204.112H128.344ZM140.32 202.6H141.76L145.144 212.296H145.336L148.36 202.6H149.8L145.384 215.944C144.968 217.208 144.528 218.016 144.064 218.368C143.616 218.72 142.696 218.912 141.304 218.944V217.72C142.2 217.704 142.8 217.576 143.104 217.336C143.408 217.096 143.688 216.592 143.944 215.824L144.496 214.168L140.32 202.6ZM13.384 238.24C11.528 238.24 10.152 237.6 9.256 236.32C8.36 235.04 7.912 232.984 7.912 230.152C7.912 227.304 8.352 225.24 9.232 223.96C10.112 222.68 11.544 222.04 13.528 222.04C14.824 222.04 16.184 222.296 17.608 222.808L17.272 224.032C15.816 223.536 14.568 223.288 13.528 223.288C12.024 223.288 10.944 223.824 10.288 224.896C9.648 225.952 9.328 227.688 9.328 230.104C9.328 232.504 9.664 234.256 10.336 235.36C11.008 236.448 12.024 236.992 13.384 236.992C14.2 236.992 15.184 236.8 16.336 236.416V231.616H13.624V230.44H17.656V237.352C16.008 237.944 14.584 238.24 13.384 238.24ZM24.184 232.24H21.976V238H20.656V222.28H24.184C26.104 222.28 27.52 222.648 28.432 223.384C29.36 224.104 29.824 225.36 29.824 227.152C29.824 228.944 29.36 230.24 28.432 231.04C27.504 231.84 26.088 232.24 24.184 232.24ZM24.184 223.48H21.976V231.04H24.184C25.656 231.04 26.728 230.744 27.4 230.152C28.088 229.56 28.432 228.568 28.432 227.176C28.432 225.784 28.096 224.824 27.424 224.296C26.752 223.752 25.672 223.48 24.184 223.48ZM31.408 238L35.92 222.28H38.224L42.568 238H41.152L40.168 234.376H33.808L32.8 238H31.408ZM39.856 233.176L37.264 223.48H36.856L34.144 233.176H39.856ZM56.848 238V222.064H58.12V227.704C59.32 226.872 60.408 226.456 61.384 226.456C62.824 226.456 63.936 226.952 64.72 227.944C65.504 228.92 65.896 230.32 65.896 232.144C65.896 233.968 65.456 235.44 64.576 236.56C63.696 237.664 62.496 238.216 60.976 238.216C60.048 238.216 59.088 237.984 58.096 237.52L58.048 238H56.848ZM64.528 232.168C64.528 230.76 64.248 229.664 63.688 228.88C63.144 228.096 62.352 227.704 61.312 227.704C60.272 227.704 59.208 228.16 58.12 229.072V236.272C58.456 236.432 58.912 236.592 59.488 236.752C60.08 236.896 60.56 236.968 60.928 236.968C62.048 236.968 62.928 236.52 63.568 235.624C64.208 234.728 64.528 233.576 64.528 232.168ZM68.416 232.336C68.416 228.416 69.944 226.456 73 226.456C76.056 226.456 77.584 228.416 77.584 232.336C77.584 236.256 76.056 238.216 73 238.216C69.944 238.216 68.416 236.256 68.416 232.336ZM73 227.704C70.856 227.704 69.784 229.248 69.784 232.336C69.784 235.424 70.856 236.968 73 236.968C75.144 236.968 76.216 235.424 76.216 232.336C76.216 229.248 75.144 227.704 73 227.704ZM80.416 232.336C80.416 228.416 81.944 226.456 85 226.456C88.056 226.456 89.584 228.416 89.584 232.336C89.584 236.256 88.056 238.216 85 238.216C81.944 238.216 80.416 236.256 80.416 232.336ZM85 227.704C82.856 227.704 81.784 229.248 81.784 232.336C81.784 235.424 82.856 236.968 85 236.968C87.144 236.968 88.216 235.424 88.216 232.336C88.216 229.248 87.144 227.704 85 227.704ZM92.872 237.448L93.184 236.2C94.768 236.728 95.992 236.992 96.856 236.992C97.72 236.992 98.384 236.808 98.848 236.44C99.328 236.056 99.568 235.552 99.568 234.928C99.568 234.304 99.376 233.848 98.992 233.56C98.624 233.256 97.848 232.968 96.664 232.696C95.48 232.424 94.592 232.032 94 231.52C93.408 231.04 93.112 230.32 93.112 229.36C93.112 228.4 93.472 227.672 94.192 227.176C94.928 226.664 95.872 226.408 97.024 226.408C98.176 226.408 99.424 226.664 100.768 227.176L100.432 228.304C99.072 227.856 97.976 227.632 97.144 227.632C96.312 227.632 95.656 227.776 95.176 228.064C94.696 228.384 94.456 228.816 94.456 229.36C94.456 229.904 94.664 230.328 95.08 230.632C95.512 230.936 96.336 231.24 97.552 231.544C98.768 231.848 99.632 232.24 100.144 232.72C100.656 233.184 100.912 233.92 100.912 234.928C100.912 235.936 100.568 236.736 99.88 237.328C99.208 237.92 98.248 238.216 97 238.216C95.752 238.216 94.376 237.96 92.872 237.448ZM104.344 228.112V226.912H106.672V224.008L107.944 223.768V226.912H113.44V228.112H107.944V233.584C107.944 234.8 108.12 235.68 108.472 236.224C108.84 236.752 109.488 237.016 110.416 237.016C110.768 237.016 111.312 236.96 112.048 236.848C112.784 236.72 113.288 236.608 113.56 236.512L113.848 237.688C113.544 237.8 112.984 237.92 112.168 238.048C111.368 238.176 110.784 238.24 110.416 238.24C108.976 238.24 107.992 237.864 107.464 237.112C106.936 236.344 106.672 235.184 106.672 233.632V228.112H104.344ZM116.608 232.312C116.608 230.472 116.984 229.04 117.736 228.016C118.504 226.976 119.616 226.456 121.072 226.456C122.528 226.456 123.608 226.936 124.312 227.896C125.032 228.856 125.392 230.136 125.392 231.736L125.32 232.936H117.976C118.056 234.136 118.376 235.112 118.936 235.864C119.496 236.6 120.264 236.968 121.24 236.968C122.232 236.968 123.392 236.736 124.72 236.272L125.08 237.472C123.784 237.968 122.568 238.216 121.432 238.216C119.864 238.216 118.664 237.696 117.832 236.656C117.016 235.6 116.608 234.152 116.608 232.312ZM121.168 227.68C119.152 227.68 118.088 229.032 117.976 231.736H124.024C124.024 229.032 123.072 227.68 121.168 227.68ZM128.944 238V236.8H131.68V227.8H128.944V226.6H132.952L133 227.992C133.512 227.672 134.232 227.352 135.16 227.032C136.088 226.712 136.904 226.52 137.608 226.456H137.872V227.872H137.608C136.952 227.92 136.136 228.08 135.16 228.352C134.2 228.624 133.48 228.904 133 229.192V236.8H136.84V238H128.944ZM13.384 262.24C11.528 262.24 10.152 261.6 9.256 260.32C8.36 259.04 7.912 256.984 7.912 254.152C7.912 251.304 8.352 249.24 9.232 247.96C10.112 246.68 11.544 246.04 13.528 246.04C14.824 246.04 16.184 246.296 17.608 246.808L17.272 248.032C15.816 247.536 14.568 247.288 13.528 247.288C12.024 247.288 10.944 247.824 10.288 248.896C9.648 249.952 9.328 251.688 9.328 254.104C9.328 256.504 9.664 258.256 10.336 259.36C11.008 260.448 12.024 260.992 13.384 260.992C14.2 260.992 15.184 260.8 16.336 260.416V255.616H13.624V254.44H17.656V261.352C16.008 261.944 14.584 262.24 13.384 262.24ZM20.416 256.336C20.416 252.416 21.944 250.456 25 250.456C28.056 250.456 29.584 252.416 29.584 256.336C29.584 260.256 28.056 262.216 25 262.216C21.944 262.216 20.416 260.256 20.416 256.336ZM25 251.704C22.856 251.704 21.784 253.248 21.784 256.336C21.784 259.424 22.856 260.968 25 260.968C27.144 260.968 28.216 259.424 28.216 256.336C28.216 253.248 27.144 251.704 25 251.704ZM32.416 256.336C32.416 252.416 33.944 250.456 37 250.456C40.056 250.456 41.584 252.416 41.584 256.336C41.584 260.256 40.056 262.216 37 262.216C33.944 262.216 32.416 260.256 32.416 256.336ZM37 251.704C34.856 251.704 33.784 253.248 33.784 256.336C33.784 259.424 34.856 260.968 37 260.968C39.144 260.968 40.216 259.424 40.216 256.336C40.216 253.248 39.144 251.704 37 251.704ZM53.272 246.064V260.008L53.512 262.096L52.288 262.24L52.048 260.968C50.848 261.8 49.744 262.216 48.736 262.216C47.312 262.216 46.2 261.688 45.4 260.632C44.616 259.576 44.224 258.144 44.224 256.336C44.224 254.512 44.664 253.08 45.544 252.04C46.424 250.984 47.624 250.456 49.144 250.456C50.04 250.456 50.992 250.672 52 251.104V246.064H53.272ZM45.592 256.288C45.592 257.696 45.864 258.832 46.408 259.696C46.968 260.544 47.768 260.968 48.808 260.968C49.848 260.968 50.912 260.512 52 259.6V252.4C51.664 252.24 51.2 252.088 50.608 251.944C50.032 251.784 49.56 251.704 49.192 251.704C48.056 251.704 47.168 252.12 46.528 252.952C45.904 253.768 45.592 254.88 45.592 256.288ZM69.28 262V260.8H72.952V247.216L69.376 247.24L69.352 246.064L74.224 246.04V260.8H78.016V262H69.28ZM87.976 262L87.928 261.016C86.392 261.816 85.112 262.216 84.088 262.216C83.064 262.216 82.256 261.864 81.664 261.16C81.072 260.456 80.776 259.496 80.776 258.28V250.6H82.048V258.28C82.048 259.064 82.232 259.712 82.6 260.224C82.984 260.72 83.56 260.968 84.328 260.968C85.096 260.968 86.296 260.568 87.928 259.768V250.6H89.2V262H87.976ZM100.792 250.984L100.504 252.232C99.512 251.88 98.592 251.704 97.744 251.704C96.592 251.704 95.728 252.112 95.152 252.928C94.592 253.728 94.312 254.848 94.312 256.288C94.312 257.728 94.6 258.872 95.176 259.72C95.752 260.552 96.608 260.968 97.744 260.968C98.512 260.968 99.472 260.76 100.624 260.344L101.008 261.544C99.84 261.992 98.76 262.216 97.768 262.216C96.2 262.216 95 261.696 94.168 260.656C93.336 259.6 92.92 258.136 92.92 256.264C92.92 254.392 93.328 252.96 94.144 251.968C94.96 250.96 96.16 250.456 97.744 250.456C98.752 250.456 99.768 250.632 100.792 250.984ZM105.328 262V246.04H106.6V255.76L108.64 255.52C109.632 254.304 110.6 252.912 111.544 251.344L112 250.6H113.44C112.192 252.792 110.976 254.6 109.792 256.024C110.912 257.448 112.016 259.128 113.104 261.064L113.632 262H112.144C111.056 259.952 109.936 258.184 108.784 256.696L106.6 256.912V262H105.328Z" fill="black"/>
<path d="M8.824 297.88L8.944 296.8H12.304L11.68 293.44L12.736 293.08L13.36 296.488L16.312 294.4L16.816 295.264L13.84 297.376L16.336 299.416L15.592 300.352L13.12 298.24L11.68 301.6L10.72 301.216L12.16 297.88H8.824ZM27.16 310L27.544 307.528L22.456 296.608L20.272 310H19L21.592 294.28H22.816L27.88 305.32L29.704 294.28H30.952L28.384 310H27.16ZM38.416 294.04C39.648 294.04 40.568 294.392 41.176 295.096C41.8 295.784 42.128 296.712 42.16 297.88C42.192 299.048 42.088 300.344 41.848 301.768C41.624 303.176 41.368 304.344 41.08 305.272C40.792 306.2 40.408 307.056 39.928 307.84C38.968 309.44 37.536 310.24 35.632 310.24C34.432 310.24 33.528 309.88 32.92 309.16C32.312 308.44 31.992 307.472 31.96 306.256C31.928 305.024 32.04 303.584 32.296 301.936C32.712 299.392 33.384 297.44 34.312 296.08C35.24 294.72 36.608 294.04 38.416 294.04ZM34.552 298.312C34.312 298.952 34.128 299.544 34 300.088C33.872 300.616 33.744 301.256 33.616 302.008C33.488 302.76 33.392 303.44 33.328 304.048C33.264 304.656 33.24 305.288 33.256 305.944C33.288 306.6 33.384 307.144 33.544 307.576C33.72 307.992 33.992 308.336 34.36 308.608C34.744 308.88 35.256 309.016 35.896 309.016C36.552 309.016 37.16 308.824 37.72 308.44C38.264 308.072 38.712 307.52 39.064 306.784C39.688 305.504 40.168 303.888 40.504 301.936C40.936 299.6 40.944 297.872 40.528 296.752C40.368 296.336 40.088 295.984 39.688 295.696C39.304 295.408 38.808 295.264 38.2 295.264C37.592 295.264 37.048 295.408 36.568 295.696C36.088 295.984 35.688 296.336 35.368 296.752C35.064 297.152 34.792 297.672 34.552 298.312ZM50.368 295.48L47.992 310H46.744L49.12 295.48H45.208L45.4 294.28H54.52L54.352 295.48H50.368ZM77.416 310H76L75.592 306.376H69.232L67.648 310H66.28L73.312 294.28H75.616L77.416 310ZM69.76 305.176H75.448L74.416 295.408H74.08L69.76 305.176ZM97.624 301.36C98.936 301.728 99.856 302.224 100.384 302.848C100.928 303.456 101.12 304.448 100.96 305.824C100.8 307.184 100.232 308.256 99.256 309.04C98.296 309.824 97.128 310.216 95.752 310.216C94.712 310.216 93.432 309.984 91.912 309.52L92.344 308.32C93.816 308.768 95.024 308.992 95.968 308.992C96.928 308.992 97.744 308.72 98.416 308.176C99.104 307.616 99.504 306.84 99.616 305.848C99.728 304.856 99.584 304.128 99.184 303.664C98.8 303.2 97.944 302.8 96.616 302.464C95.304 302.112 94.368 301.608 93.808 300.952C93.264 300.28 93.064 299.312 93.208 298.048C93.368 296.784 93.904 295.8 94.816 295.096C95.728 294.392 96.832 294.04 98.128 294.04C99.44 294.04 100.744 294.288 102.04 294.784L101.584 295.984C100.4 295.504 99.272 295.264 98.2 295.264C97.144 295.264 96.304 295.504 95.68 295.984C95.056 296.464 94.688 297.152 94.576 298.048C94.48 298.928 94.632 299.608 95.032 300.088C95.448 300.552 96.312 300.976 97.624 301.36ZM110.416 294.04C111.648 294.04 112.568 294.392 113.176 295.096C113.8 295.784 114.128 296.712 114.16 297.88C114.192 299.048 114.088 300.344 113.848 301.768C113.624 303.176 113.368 304.344 113.08 305.272C112.792 306.2 112.408 307.056 111.928 307.84C110.968 309.44 109.536 310.24 107.632 310.24C106.432 310.24 105.528 309.88 104.92 309.16C104.312 308.44 103.992 307.472 103.96 306.256C103.928 305.024 104.04 303.584 104.296 301.936C104.712 299.392 105.384 297.44 106.312 296.08C107.24 294.72 108.608 294.04 110.416 294.04ZM106.552 298.312C106.312 298.952 106.128 299.544 106 300.088C105.872 300.616 105.744 301.256 105.616 302.008C105.488 302.76 105.392 303.44 105.328 304.048C105.264 304.656 105.24 305.288 105.256 305.944C105.288 306.6 105.384 307.144 105.544 307.576C105.72 307.992 105.992 308.336 106.36 308.608C106.744 308.88 107.256 309.016 107.896 309.016C108.552 309.016 109.16 308.824 109.72 308.44C110.264 308.072 110.712 307.52 111.064 306.784C111.688 305.504 112.168 303.888 112.504 301.936C112.936 299.6 112.944 297.872 112.528 296.752C112.368 296.336 112.088 295.984 111.688 295.696C111.304 295.408 110.808 295.264 110.2 295.264C109.592 295.264 109.048 295.408 108.568 295.696C108.088 295.984 107.688 296.336 107.368 296.752C107.064 297.152 106.792 297.672 106.552 298.312ZM126.784 294.28L124.96 305.44C124.688 306.992 124.104 308.176 123.208 308.992C122.312 309.808 121.128 310.216 119.656 310.216C118.184 310.216 117.144 309.792 116.536 308.944C115.944 308.096 115.768 306.928 116.008 305.44L117.832 294.28H119.08L117.28 305.368C116.848 307.832 117.712 309.064 119.872 309.064C120.944 309.064 121.8 308.728 122.44 308.056C123.096 307.368 123.52 306.472 123.712 305.368L125.536 294.28H126.784ZM133.36 303.496C132.496 303.544 131.96 303.568 131.752 303.568H129.88L128.8 310H127.576L130.12 294.28H133.48C135.336 294.28 136.648 294.616 137.416 295.288C138.184 295.944 138.432 297.12 138.16 298.816C137.952 299.952 137.576 300.864 137.032 301.552C136.488 302.224 135.704 302.776 134.68 303.208C135.384 305.384 135.96 307.648 136.408 310H135.04C134.576 307.712 134.016 305.544 133.36 303.496ZM133.264 295.48H131.2L130.072 302.368H131.872C133.28 302.368 134.4 302.104 135.232 301.576C136.064 301.048 136.592 300.128 136.816 298.816C137.04 297.504 136.856 296.624 136.264 296.176C135.688 295.712 134.688 295.48 133.264 295.48ZM147.88 308.32L147.976 309.544C146.632 309.992 145.368 310.216 144.184 310.216C142.44 310.216 141.232 309.576 140.56 308.296C139.904 307.016 139.8 304.912 140.248 301.984C140.696 299.264 141.44 297.264 142.48 295.984C143.52 294.688 144.944 294.04 146.752 294.04C147.952 294.04 149.12 294.24 150.256 294.64L149.728 297.808H148.48L148.816 295.672C148.208 295.416 147.464 295.288 146.584 295.288C145.272 295.288 144.216 295.832 143.416 296.92C142.632 298.008 142.04 299.696 141.64 301.984C141.256 304.464 141.304 306.248 141.784 307.336C142.264 308.424 143.144 308.968 144.424 308.968C145.336 308.968 146.488 308.752 147.88 308.32ZM160.072 310H152.224L154.816 294.28H162.544L162.352 295.48H155.872L154.888 301.432H160.792L160.6 302.632H154.696L153.688 308.8H160.264L160.072 310ZM182.416 294.04C183.648 294.04 184.568 294.392 185.176 295.096C185.8 295.784 186.128 296.712 186.16 297.88C186.192 299.048 186.088 300.344 185.848 301.768C185.624 303.176 185.368 304.344 185.08 305.272C184.792 306.2 184.408 307.056 183.928 307.84C182.968 309.44 181.536 310.24 179.632 310.24C178.432 310.24 177.528 309.88 176.92 309.16C176.312 308.44 175.992 307.472 175.96 306.256C175.928 305.024 176.04 303.584 176.296 301.936C176.712 299.392 177.384 297.44 178.312 296.08C179.24 294.72 180.608 294.04 182.416 294.04ZM178.552 298.312C178.312 298.952 178.128 299.544 178 300.088C177.872 300.616 177.744 301.256 177.616 302.008C177.488 302.76 177.392 303.44 177.328 304.048C177.264 304.656 177.24 305.288 177.256 305.944C177.288 306.6 177.384 307.144 177.544 307.576C177.72 307.992 177.992 308.336 178.36 308.608C178.744 308.88 179.256 309.016 179.896 309.016C180.552 309.016 181.16 308.824 181.72 308.44C182.264 308.072 182.712 307.52 183.064 306.784C183.688 305.504 184.168 303.888 184.504 301.936C184.936 299.6 184.944 297.872 184.528 296.752C184.368 296.336 184.088 295.984 183.688 295.696C183.304 295.408 182.808 295.264 182.2 295.264C181.592 295.264 181.048 295.408 180.568 295.696C180.088 295.984 179.688 296.336 179.368 296.752C179.064 297.152 178.792 297.672 178.552 298.312ZM189.28 310H188.032L190.6 294.28H198.352L198.16 295.48H191.656L190.528 302.344H196.096L195.904 303.544H190.336L189.28 310ZM217.624 301.36C218.936 301.728 219.856 302.224 220.384 302.848C220.928 303.456 221.12 304.448 220.96 305.824C220.8 307.184 220.232 308.256 219.256 309.04C218.296 309.824 217.128 310.216 215.752 310.216C214.712 310.216 213.432 309.984 211.912 309.52L212.344 308.32C213.816 308.768 215.024 308.992 215.968 308.992C216.928 308.992 217.744 308.72 218.416 308.176C219.104 307.616 219.504 306.84 219.616 305.848C219.728 304.856 219.584 304.128 219.184 303.664C218.8 303.2 217.944 302.8 216.616 302.464C215.304 302.112 214.368 301.608 213.808 300.952C213.264 300.28 213.064 299.312 213.208 298.048C213.368 296.784 213.904 295.8 214.816 295.096C215.728 294.392 216.832 294.04 218.128 294.04C219.44 294.04 220.744 294.288 222.04 294.784L221.584 295.984C220.4 295.504 219.272 295.264 218.2 295.264C217.144 295.264 216.304 295.504 215.68 295.984C215.056 296.464 214.688 297.152 214.576 298.048C214.48 298.928 214.632 299.608 215.032 300.088C215.448 300.552 216.312 300.976 217.624 301.36ZM232.048 308.8L231.88 310H224.368L226.912 294.28H228.184L225.808 308.8H232.048ZM244.072 310H236.224L238.816 294.28H246.544L246.352 295.48H239.872L238.888 301.432H244.792L244.6 302.632H238.696L237.688 308.8H244.264L244.072 310ZM256.072 310H248.224L250.816 294.28H258.544L258.352 295.48H251.872L250.888 301.432H256.792L256.6 302.632H250.696L249.688 308.8H256.264L256.072 310ZM263.752 304.192H261.664L260.68 310H259.456L262.024 294.28H265.36C267.184 294.28 268.472 294.648 269.224 295.384C269.976 296.104 270.208 297.36 269.92 299.152C269.632 300.944 268.984 302.232 267.976 303.016C266.968 303.8 265.56 304.192 263.752 304.192ZM265.168 295.48H263.08L261.856 302.992H263.944C265.352 302.992 266.424 302.704 267.16 302.128C267.896 301.536 268.376 300.544 268.6 299.152C268.824 297.76 268.664 296.8 268.12 296.272C267.576 295.744 266.592 295.48 265.168 295.48ZM275.248 310L275.608 307.312H277.792L277.528 309.28C277.352 310.688 276.584 312.072 275.224 313.432L274.672 312.856C275.504 311.816 276 310.864 276.16 310H275.248ZM28.072 334H20.224L22.816 318.28H30.544L30.352 319.48H23.872L22.888 325.432H28.792L28.6 326.632H22.696L21.688 332.8H28.264L28.072 334ZM36.856 327.088L32.728 334H31.12L36.28 325.816L33.88 318.28H35.44L37.36 324.88H37.48L41.152 318.28H42.76L38.08 326.128L40.816 334H39.208L36.976 327.088H36.856ZM51.88 332.32L51.976 333.544C50.632 333.992 49.368 334.216 48.184 334.216C46.44 334.216 45.232 333.576 44.56 332.296C43.904 331.016 43.8 328.912 44.248 325.984C44.696 323.264 45.44 321.264 46.48 319.984C47.52 318.688 48.944 318.04 50.752 318.04C51.952 318.04 53.12 318.24 54.256 318.64L53.728 321.808H52.48L52.816 319.672C52.208 319.416 51.464 319.288 50.584 319.288C49.272 319.288 48.216 319.832 47.416 320.92C46.632 322.008 46.04 323.696 45.64 325.984C45.256 328.464 45.304 330.248 45.784 331.336C46.264 332.424 47.144 332.968 48.424 332.968C49.336 332.968 50.488 332.752 51.88 332.32ZM64.072 334H56.224L58.816 318.28H66.544L66.352 319.48H59.872L58.888 325.432H64.792L64.6 326.632H58.696L57.688 332.8H64.264L64.072 334ZM71.752 328.192H69.664L68.68 334H67.456L70.024 318.28H73.36C75.184 318.28 76.472 318.648 77.224 319.384C77.976 320.104 78.208 321.36 77.92 323.152C77.632 324.944 76.984 326.232 75.976 327.016C74.968 327.8 73.56 328.192 71.752 328.192ZM73.168 319.48H71.08L69.856 326.992H71.944C73.352 326.992 74.424 326.704 75.16 326.128C75.896 325.536 76.376 324.544 76.6 323.152C76.824 321.76 76.664 320.8 76.12 320.272C75.576 319.744 74.592 319.48 73.168 319.48ZM86.368 319.48L83.992 334H82.744L85.12 319.48H81.208L81.4 318.28H90.52L90.352 319.48H86.368ZM105.28 334H104.032L106.6 318.28H114.352L114.16 319.48H107.656L106.528 326.344H112.096L111.904 327.544H106.336L105.28 334ZM122.416 318.04C123.648 318.04 124.568 318.392 125.176 319.096C125.8 319.784 126.128 320.712 126.16 321.88C126.192 323.048 126.088 324.344 125.848 325.768C125.624 327.176 125.368 328.344 125.08 329.272C124.792 330.2 124.408 331.056 123.928 331.84C122.968 333.44 121.536 334.24 119.632 334.24C118.432 334.24 117.528 333.88 116.92 333.16C116.312 332.44 115.992 331.472 115.96 330.256C115.928 329.024 116.04 327.584 116.296 325.936C116.712 323.392 117.384 321.44 118.312 320.08C119.24 318.72 120.608 318.04 122.416 318.04ZM118.552 322.312C118.312 322.952 118.128 323.544 118 324.088C117.872 324.616 117.744 325.256 117.616 326.008C117.488 326.76 117.392 327.44 117.328 328.048C117.264 328.656 117.24 329.288 117.256 329.944C117.288 330.6 117.384 331.144 117.544 331.576C117.72 331.992 117.992 332.336 118.36 332.608C118.744 332.88 119.256 333.016 119.896 333.016C120.552 333.016 121.16 332.824 121.72 332.44C122.264 332.072 122.712 331.52 123.064 330.784C123.688 329.504 124.168 327.888 124.504 325.936C124.936 323.6 124.944 321.872 124.528 320.752C124.368 320.336 124.088 319.984 123.688 319.696C123.304 319.408 122.808 319.264 122.2 319.264C121.592 319.264 121.048 319.408 120.568 319.696C120.088 319.984 119.688 320.336 119.368 320.752C119.064 321.152 118.792 321.672 118.552 322.312ZM133.36 327.496C132.496 327.544 131.96 327.568 131.752 327.568H129.88L128.8 334H127.576L130.12 318.28H133.48C135.336 318.28 136.648 318.616 137.416 319.288C138.184 319.944 138.432 321.12 138.16 322.816C137.952 323.952 137.576 324.864 137.032 325.552C136.488 326.224 135.704 326.776 134.68 327.208C135.384 329.384 135.96 331.648 136.408 334H135.04C134.576 331.712 134.016 329.544 133.36 327.496ZM133.264 319.48H131.2L130.072 326.368H131.872C133.28 326.368 134.4 326.104 135.232 325.576C136.064 325.048 136.592 324.128 136.816 322.816C137.04 321.504 136.856 320.624 136.264 320.176C135.688 319.712 134.688 319.48 133.264 319.48ZM151.384 334L153.976 318.28H157.12C159.456 318.28 160.984 318.888 161.704 320.104C162.424 321.32 162.576 323.336 162.16 326.152C161.712 329.256 160.864 331.36 159.616 332.464C158.96 333.04 158.232 333.44 157.432 333.664C156.648 333.888 155.688 334 154.552 334H151.384ZM156.976 319.48H155.008L152.824 332.8H154.744C155.96 332.8 156.936 332.624 157.672 332.272C159.192 331.552 160.24 329.512 160.816 326.152C161.2 323.624 161.112 321.88 160.552 320.92C159.992 319.96 158.8 319.48 156.976 319.48ZM172.072 334H164.224L166.816 318.28H174.544L174.352 319.48H167.872L166.888 325.432H172.792L172.6 326.632H166.696L165.688 332.8H172.264L172.072 334ZM185.416 334H184L183.592 330.376H177.232L175.648 334H174.28L181.312 318.28H183.616L185.416 334ZM177.76 329.176H183.448L182.416 319.408H182.08L177.76 329.176ZM187.384 334L189.976 318.28H193.12C195.456 318.28 196.984 318.888 197.704 320.104C198.424 321.32 198.576 323.336 198.16 326.152C197.712 329.256 196.864 331.36 195.616 332.464C194.96 333.04 194.232 333.44 193.432 333.664C192.648 333.888 191.688 334 190.552 334H187.384ZM192.976 319.48H191.008L188.824 332.8H190.744C191.96 332.8 192.936 332.624 193.672 332.272C195.192 331.552 196.24 329.512 196.816 326.152C197.2 323.624 197.112 321.88 196.552 320.92C195.992 319.96 194.8 319.48 192.976 319.48ZM222.76 318.28H224.152L219.976 334H217.672L216.952 326.416L213.856 334H211.672L212.344 318.28H213.64L212.992 332.8H213.136L216.28 325.12H217.984L218.776 332.8H218.92L222.76 318.28ZM232.072 334H224.224L226.816 318.28H234.544L234.352 319.48H227.872L226.888 325.432H232.792L232.6 326.632H226.696L225.688 332.8H232.264L232.072 334ZM244.072 334H236.224L238.816 318.28H246.544L246.352 319.48H239.872L238.888 325.432H244.792L244.6 326.632H238.696L237.688 332.8H244.264L244.072 334ZM256.888 318.28H258.328C256.408 321.48 254.744 324.024 253.336 325.912C253.688 326.632 254.136 327.664 254.68 329.008L256.624 334H255.112C253.816 330.464 252.84 328.008 252.184 326.632L250.096 326.872L248.944 334H247.672L250.24 318.28H251.512L250.288 325.696L252.232 325.456C253.464 323.824 254.776 321.84 256.168 319.504L256.888 318.28Z" fill="black"/>
<path d="M269.896 142H260.896V140.776H265V128.296L261.04 130.12L260.488 128.848L265.144 126.76H266.416V140.776H269.896V142ZM272.392 134.368C272.392 131.552 272.752 129.544 273.472 128.344C274.192 127.144 275.36 126.544 276.976 126.544C278.608 126.544 279.784 127.144 280.504 128.344C281.224 129.544 281.584 131.552 281.584 134.368C281.584 137.168 281.224 139.176 280.504 140.392C279.784 141.608 278.608 142.216 276.976 142.216C275.36 142.216 274.192 141.608 273.472 140.392C272.752 139.176 272.392 137.168 272.392 134.368ZM274.576 139.432C275.024 140.456 275.824 140.968 276.976 140.968C278.128 140.968 278.928 140.456 279.376 139.432C279.824 138.408 280.048 136.712 280.048 134.344C280.048 131.96 279.832 130.272 279.4 129.28C278.968 128.288 278.168 127.792 277 127.792C275.832 127.792 275.024 128.296 274.576 129.304C274.144 130.296 273.928 131.976 273.928 134.344C273.928 136.712 274.144 138.408 274.576 139.432ZM291.616 126.04H292.96L286.312 142H284.968L291.616 126.04ZM283.84 131.68C283.28 131.12 283 130.36 283 129.4C283 128.44 283.28 127.68 283.84 127.12C284.4 126.56 285.104 126.28 285.952 126.28C286.8 126.28 287.504 126.56 288.064 127.12C288.624 127.68 288.904 128.44 288.904 129.4C288.904 130.36 288.624 131.12 288.064 131.68C287.504 132.24 286.8 132.52 285.952 132.52C285.104 132.52 284.4 132.24 283.84 131.68ZM284.656 127.912C284.32 128.264 284.152 128.76 284.152 129.4C284.152 130.04 284.32 130.536 284.656 130.888C285.008 131.24 285.44 131.416 285.952 131.416C286.464 131.416 286.888 131.24 287.224 130.888C287.576 130.536 287.752 130.04 287.752 129.4C287.752 128.76 287.576 128.264 287.224 127.912C286.888 127.56 286.464 127.384 285.952 127.384C285.44 127.384 285.008 127.56 284.656 127.912ZM289.912 141.16C289.352 140.6 289.072 139.84 289.072 138.88C289.072 137.92 289.352 137.16 289.912 136.6C290.472 136.04 291.176 135.76 292.024 135.76C292.872 135.76 293.576 136.04 294.136 136.6C294.696 137.16 294.976 137.92 294.976 138.88C294.976 139.84 294.696 140.6 294.136 141.16C293.576 141.72 292.872 142 292.024 142C291.176 142 290.472 141.72 289.912 141.16ZM290.728 137.392C290.392 137.744 290.224 138.24 290.224 138.88C290.224 139.52 290.392 140.016 290.728 140.368C291.08 140.72 291.512 140.896 292.024 140.896C292.536 140.896 292.96 140.72 293.296 140.368C293.648 140.016 293.824 139.52 293.824 138.88C293.824 138.24 293.648 137.744 293.296 137.392C292.96 137.04 292.536 136.864 292.024 136.864C291.512 136.864 291.08 137.04 290.728 137.392ZM267.16 159.352C266.552 159.928 265.944 160.48 265.336 161.008C263.768 162.352 262.768 163.56 262.336 164.632H269.752V166H260.752V164.824C261.04 164.008 261.48 163.224 262.072 162.472C262.68 161.72 263.296 161.072 263.92 160.528L265.744 158.896C267.088 157.648 267.76 156.344 267.76 154.984C267.76 154.04 267.48 153.28 266.92 152.704C266.36 152.112 265.656 151.816 264.808 151.816C263.976 151.816 262.784 152.352 261.232 153.424L260.56 152.416C262.24 151.184 263.688 150.568 264.904 150.568C266.136 150.568 267.152 150.96 267.952 151.744C268.768 152.512 269.176 153.648 269.176 155.152C269.176 156.64 268.504 158.04 267.16 159.352ZM272.392 158.368C272.392 155.552 272.752 153.544 273.472 152.344C274.192 151.144 275.36 150.544 276.976 150.544C278.608 150.544 279.784 151.144 280.504 152.344C281.224 153.544 281.584 155.552 281.584 158.368C281.584 161.168 281.224 163.176 280.504 164.392C279.784 165.608 278.608 166.216 276.976 166.216C275.36 166.216 274.192 165.608 273.472 164.392C272.752 163.176 272.392 161.168 272.392 158.368ZM274.576 163.432C275.024 164.456 275.824 164.968 276.976 164.968C278.128 164.968 278.928 164.456 279.376 163.432C279.824 162.408 280.048 160.712 280.048 158.344C280.048 155.96 279.832 154.272 279.4 153.28C278.968 152.288 278.168 151.792 277 151.792C275.832 151.792 275.024 152.296 274.576 153.304C274.144 154.296 273.928 155.976 273.928 158.344C273.928 160.712 274.144 162.408 274.576 163.432ZM291.616 150.04H292.96L286.312 166H284.968L291.616 150.04ZM283.84 155.68C283.28 155.12 283 154.36 283 153.4C283 152.44 283.28 151.68 283.84 151.12C284.4 150.56 285.104 150.28 285.952 150.28C286.8 150.28 287.504 150.56 288.064 151.12C288.624 151.68 288.904 152.44 288.904 153.4C288.904 154.36 288.624 155.12 288.064 155.68C287.504 156.24 286.8 156.52 285.952 156.52C285.104 156.52 284.4 156.24 283.84 155.68ZM284.656 151.912C284.32 152.264 284.152 152.76 284.152 153.4C284.152 154.04 284.32 154.536 284.656 154.888C285.008 155.24 285.44 155.416 285.952 155.416C286.464 155.416 286.888 155.24 287.224 154.888C287.576 154.536 287.752 154.04 287.752 153.4C287.752 152.76 287.576 152.264 287.224 151.912C286.888 151.56 286.464 151.384 285.952 151.384C285.44 151.384 285.008 151.56 284.656 151.912ZM289.912 165.16C289.352 164.6 289.072 163.84 289.072 162.88C289.072 161.92 289.352 161.16 289.912 160.6C290.472 160.04 291.176 159.76 292.024 159.76C292.872 159.76 293.576 160.04 294.136 160.6C294.696 161.16 294.976 161.92 294.976 162.88C294.976 163.84 294.696 164.6 294.136 165.16C293.576 165.72 292.872 166 292.024 166C291.176 166 290.472 165.72 289.912 165.16ZM290.728 161.392C290.392 161.744 290.224 162.24 290.224 162.88C290.224 163.52 290.392 164.016 290.728 164.368C291.08 164.72 291.512 164.896 292.024 164.896C292.536 164.896 292.96 164.72 293.296 164.368C293.648 164.016 293.824 163.52 293.824 162.88C293.824 162.24 293.648 161.744 293.296 161.392C292.96 161.04 292.536 160.864 292.024 160.864C291.512 160.864 291.08 161.04 290.728 161.392ZM270.016 185.704V186.952H267.856V190.24H266.536V186.952H260.032V185.824L263.968 174.784H265.336L261.52 185.704H266.536V180.664H267.856V185.704H270.016ZM272.392 182.368C272.392 179.552 272.752 177.544 273.472 176.344C274.192 175.144 275.36 174.544 276.976 174.544C278.608 174.544 279.784 175.144 280.504 176.344C281.224 177.544 281.584 179.552 281.584 182.368C281.584 185.168 281.224 187.176 280.504 188.392C279.784 189.608 278.608 190.216 276.976 190.216C275.36 190.216 274.192 189.608 273.472 188.392C272.752 187.176 272.392 185.168 272.392 182.368ZM274.576 187.432C275.024 188.456 275.824 188.968 276.976 188.968C278.128 188.968 278.928 188.456 279.376 187.432C279.824 186.408 280.048 184.712 280.048 182.344C280.048 179.96 279.832 178.272 279.4 177.28C278.968 176.288 278.168 175.792 277 175.792C275.832 175.792 275.024 176.296 274.576 177.304C274.144 178.296 273.928 179.976 273.928 182.344C273.928 184.712 274.144 186.408 274.576 187.432ZM291.616 174.04H292.96L286.312 190H284.968L291.616 174.04ZM283.84 179.68C283.28 179.12 283 178.36 283 177.4C283 176.44 283.28 175.68 283.84 175.12C284.4 174.56 285.104 174.28 285.952 174.28C286.8 174.28 287.504 174.56 288.064 175.12C288.624 175.68 288.904 176.44 288.904 177.4C288.904 178.36 288.624 179.12 288.064 179.68C287.504 180.24 286.8 180.52 285.952 180.52C285.104 180.52 284.4 180.24 283.84 179.68ZM284.656 175.912C284.32 176.264 284.152 176.76 284.152 177.4C284.152 178.04 284.32 178.536 284.656 178.888C285.008 179.24 285.44 179.416 285.952 179.416C286.464 179.416 286.888 179.24 287.224 178.888C287.576 178.536 287.752 178.04 287.752 177.4C287.752 176.76 287.576 176.264 287.224 175.912C286.888 175.56 286.464 175.384 285.952 175.384C285.44 175.384 285.008 175.56 284.656 175.912ZM289.912 189.16C289.352 188.6 289.072 187.84 289.072 186.88C289.072 185.92 289.352 185.16 289.912 184.6C290.472 184.04 291.176 183.76 292.024 183.76C292.872 183.76 293.576 184.04 294.136 184.6C294.696 185.16 294.976 185.92 294.976 186.88C294.976 187.84 294.696 188.6 294.136 189.16C293.576 189.72 292.872 190 292.024 190C291.176 190 290.472 189.72 289.912 189.16ZM290.728 185.392C290.392 185.744 290.224 186.24 290.224 186.88C290.224 187.52 290.392 188.016 290.728 188.368C291.08 188.72 291.512 188.896 292.024 188.896C292.536 188.896 292.96 188.72 293.296 188.368C293.648 188.016 293.824 187.52 293.824 186.88C293.824 186.24 293.648 185.744 293.296 185.392C292.96 185.04 292.536 184.864 292.024 184.864C291.512 184.864 291.08 185.04 290.728 185.392ZM269.896 214H260.896V212.776H265V200.296L261.04 202.12L260.488 200.848L265.144 198.76H266.416V212.776H269.896V214ZM272.392 206.368C272.392 203.552 272.752 201.544 273.472 200.344C274.192 199.144 275.36 198.544 276.976 198.544C278.608 198.544 279.784 199.144 280.504 200.344C281.224 201.544 281.584 203.552 281.584 206.368C281.584 209.168 281.224 211.176 280.504 212.392C279.784 213.608 278.608 214.216 276.976 214.216C275.36 214.216 274.192 213.608 273.472 212.392C272.752 211.176 272.392 209.168 272.392 206.368ZM274.576 211.432C275.024 212.456 275.824 212.968 276.976 212.968C278.128 212.968 278.928 212.456 279.376 211.432C279.824 210.408 280.048 208.712 280.048 206.344C280.048 203.96 279.832 202.272 279.4 201.28C278.968 200.288 278.168 199.792 277 199.792C275.832 199.792 275.024 200.296 274.576 201.304C274.144 202.296 273.928 203.976 273.928 206.344C273.928 208.712 274.144 210.408 274.576 211.432ZM284.392 206.368C284.392 203.552 284.752 201.544 285.472 200.344C286.192 199.144 287.36 198.544 288.976 198.544C290.608 198.544 291.784 199.144 292.504 200.344C293.224 201.544 293.584 203.552 293.584 206.368C293.584 209.168 293.224 211.176 292.504 212.392C291.784 213.608 290.608 214.216 288.976 214.216C287.36 214.216 286.192 213.608 285.472 212.392C284.752 211.176 284.392 209.168 284.392 206.368ZM286.576 211.432C287.024 212.456 287.824 212.968 288.976 212.968C290.128 212.968 290.928 212.456 291.376 211.432C291.824 210.408 292.048 208.712 292.048 206.344C292.048 203.96 291.832 202.272 291.4 201.28C290.968 200.288 290.168 199.792 289 199.792C287.832 199.792 287.024 200.296 286.576 201.304C286.144 202.296 285.928 203.976 285.928 206.344C285.928 208.712 286.144 210.408 286.576 211.432ZM303.616 198.04H304.96L298.312 214H296.968L303.616 198.04ZM295.84 203.68C295.28 203.12 295 202.36 295 201.4C295 200.44 295.28 199.68 295.84 199.12C296.4 198.56 297.104 198.28 297.952 198.28C298.8 198.28 299.504 198.56 300.064 199.12C300.624 199.68 300.904 200.44 300.904 201.4C300.904 202.36 300.624 203.12 300.064 203.68C299.504 204.24 298.8 204.52 297.952 204.52C297.104 204.52 296.4 204.24 295.84 203.68ZM296.656 199.912C296.32 200.264 296.152 200.76 296.152 201.4C296.152 202.04 296.32 202.536 296.656 202.888C297.008 203.24 297.44 203.416 297.952 203.416C298.464 203.416 298.888 203.24 299.224 202.888C299.576 202.536 299.752 202.04 299.752 201.4C299.752 200.76 299.576 200.264 299.224 199.912C298.888 199.56 298.464 199.384 297.952 199.384C297.44 199.384 297.008 199.56 296.656 199.912ZM301.912 213.16C301.352 212.6 301.072 211.84 301.072 210.88C301.072 209.92 301.352 209.16 301.912 208.6C302.472 208.04 303.176 207.76 304.024 207.76C304.872 207.76 305.576 208.04 306.136 208.6C306.696 209.16 306.976 209.92 306.976 210.88C306.976 211.84 306.696 212.6 306.136 213.16C305.576 213.72 304.872 214 304.024 214C303.176 214 302.472 213.72 301.912 213.16ZM302.728 209.392C302.392 209.744 302.224 210.24 302.224 210.88C302.224 211.52 302.392 212.016 302.728 212.368C303.08 212.72 303.512 212.896 304.024 212.896C304.536 212.896 304.96 212.72 305.296 212.368C305.648 212.016 305.824 211.52 305.824 210.88C305.824 210.24 305.648 209.744 305.296 209.392C304.96 209.04 304.536 208.864 304.024 208.864C303.512 208.864 303.08 209.04 302.728 209.392ZM267.16 231.352C266.552 231.928 265.944 232.48 265.336 233.008C263.768 234.352 262.768 235.56 262.336 236.632H269.752V238H260.752V236.824C261.04 236.008 261.48 235.224 262.072 234.472C262.68 233.72 263.296 233.072 263.92 232.528L265.744 230.896C267.088 229.648 267.76 228.344 267.76 226.984C267.76 226.04 267.48 225.28 266.92 224.704C266.36 224.112 265.656 223.816 264.808 223.816C263.976 223.816 262.784 224.352 261.232 225.424L260.56 224.416C262.24 223.184 263.688 222.568 264.904 222.568C266.136 222.568 267.152 222.96 267.952 223.744C268.768 224.512 269.176 225.648 269.176 227.152C269.176 228.64 268.504 230.04 267.16 231.352ZM272.392 230.368C272.392 227.552 272.752 225.544 273.472 224.344C274.192 223.144 275.36 222.544 276.976 222.544C278.608 222.544 279.784 223.144 280.504 224.344C281.224 225.544 281.584 227.552 281.584 230.368C281.584 233.168 281.224 235.176 280.504 236.392C279.784 237.608 278.608 238.216 276.976 238.216C275.36 238.216 274.192 237.608 273.472 236.392C272.752 235.176 272.392 233.168 272.392 230.368ZM274.576 235.432C275.024 236.456 275.824 236.968 276.976 236.968C278.128 236.968 278.928 236.456 279.376 235.432C279.824 234.408 280.048 232.712 280.048 230.344C280.048 227.96 279.832 226.272 279.4 225.28C278.968 224.288 278.168 223.792 277 223.792C275.832 223.792 275.024 224.296 274.576 225.304C274.144 226.296 273.928 227.976 273.928 230.344C273.928 232.712 274.144 234.408 274.576 235.432ZM284.392 230.368C284.392 227.552 284.752 225.544 285.472 224.344C286.192 223.144 287.36 222.544 288.976 222.544C290.608 222.544 291.784 223.144 292.504 224.344C293.224 225.544 293.584 227.552 293.584 230.368C293.584 233.168 293.224 235.176 292.504 236.392C291.784 237.608 290.608 238.216 288.976 238.216C287.36 238.216 286.192 237.608 285.472 236.392C284.752 235.176 284.392 233.168 284.392 230.368ZM286.576 235.432C287.024 236.456 287.824 236.968 288.976 236.968C290.128 236.968 290.928 236.456 291.376 235.432C291.824 234.408 292.048 232.712 292.048 230.344C292.048 227.96 291.832 226.272 291.4 225.28C290.968 224.288 290.168 223.792 289 223.792C287.832 223.792 287.024 224.296 286.576 225.304C286.144 226.296 285.928 227.976 285.928 230.344C285.928 232.712 286.144 234.408 286.576 235.432ZM303.616 222.04H304.96L298.312 238H296.968L303.616 222.04ZM295.84 227.68C295.28 227.12 295 226.36 295 225.4C295 224.44 295.28 223.68 295.84 223.12C296.4 222.56 297.104 222.28 297.952 222.28C298.8 222.28 299.504 222.56 300.064 223.12C300.624 223.68 300.904 224.44 300.904 225.4C300.904 226.36 300.624 227.12 300.064 227.68C299.504 228.24 298.8 228.52 297.952 228.52C297.104 228.52 296.4 228.24 295.84 227.68ZM296.656 223.912C296.32 224.264 296.152 224.76 296.152 225.4C296.152 226.04 296.32 226.536 296.656 226.888C297.008 227.24 297.44 227.416 297.952 227.416C298.464 227.416 298.888 227.24 299.224 226.888C299.576 226.536 299.752 226.04 299.752 225.4C299.752 224.76 299.576 224.264 299.224 223.912C298.888 223.56 298.464 223.384 297.952 223.384C297.44 223.384 297.008 223.56 296.656 223.912ZM301.912 237.16C301.352 236.6 301.072 235.84 301.072 234.88C301.072 233.92 301.352 233.16 301.912 232.6C302.472 232.04 303.176 231.76 304.024 231.76C304.872 231.76 305.576 232.04 306.136 232.6C306.696 233.16 306.976 233.92 306.976 234.88C306.976 235.84 306.696 236.6 306.136 237.16C305.576 237.72 304.872 238 304.024 238C303.176 238 302.472 237.72 301.912 237.16ZM302.728 233.392C302.392 233.744 302.224 234.24 302.224 234.88C302.224 235.52 302.392 236.016 302.728 236.368C303.08 236.72 303.512 236.896 304.024 236.896C304.536 236.896 304.96 236.72 305.296 236.368C305.648 236.016 305.824 235.52 305.824 234.88C305.824 234.24 305.648 233.744 305.296 233.392C304.96 233.04 304.536 232.864 304.024 232.864C303.512 232.864 303.08 233.04 302.728 233.392ZM270.016 257.704V258.952H267.856V262.24H266.536V258.952H260.032V257.824L263.968 246.784H265.336L261.52 257.704H266.536V252.664H267.856V257.704H270.016ZM272.392 254.368C272.392 251.552 272.752 249.544 273.472 248.344C274.192 247.144 275.36 246.544 276.976 246.544C278.608 246.544 279.784 247.144 280.504 248.344C281.224 249.544 281.584 251.552 281.584 254.368C281.584 257.168 281.224 259.176 280.504 260.392C279.784 261.608 278.608 262.216 276.976 262.216C275.36 262.216 274.192 261.608 273.472 260.392C272.752 259.176 272.392 257.168 272.392 254.368ZM274.576 259.432C275.024 260.456 275.824 260.968 276.976 260.968C278.128 260.968 278.928 260.456 279.376 259.432C279.824 258.408 280.048 256.712 280.048 254.344C280.048 251.96 279.832 250.272 279.4 249.28C278.968 248.288 278.168 247.792 277 247.792C275.832 247.792 275.024 248.296 274.576 249.304C274.144 250.296 273.928 251.976 273.928 254.344C273.928 256.712 274.144 258.408 274.576 259.432ZM284.392 254.368C284.392 251.552 284.752 249.544 285.472 248.344C286.192 247.144 287.36 246.544 288.976 246.544C290.608 246.544 291.784 247.144 292.504 248.344C293.224 249.544 293.584 251.552 293.584 254.368C293.584 257.168 293.224 259.176 292.504 260.392C291.784 261.608 290.608 262.216 288.976 262.216C287.36 262.216 286.192 261.608 285.472 260.392C284.752 259.176 284.392 257.168 284.392 254.368ZM286.576 259.432C287.024 260.456 287.824 260.968 288.976 260.968C290.128 260.968 290.928 260.456 291.376 259.432C291.824 258.408 292.048 256.712 292.048 254.344C292.048 251.96 291.832 250.272 291.4 249.28C290.968 248.288 290.168 247.792 289 247.792C287.832 247.792 287.024 248.296 286.576 249.304C286.144 250.296 285.928 251.976 285.928 254.344C285.928 256.712 286.144 258.408 286.576 259.432ZM303.616 246.04H304.96L298.312 262H296.968L303.616 246.04ZM295.84 251.68C295.28 251.12 295 250.36 295 249.4C295 248.44 295.28 247.68 295.84 247.12C296.4 246.56 297.104 246.28 297.952 246.28C298.8 246.28 299.504 246.56 300.064 247.12C300.624 247.68 300.904 248.44 300.904 249.4C300.904 250.36 300.624 251.12 300.064 251.68C299.504 252.24 298.8 252.52 297.952 252.52C297.104 252.52 296.4 252.24 295.84 251.68ZM296.656 247.912C296.32 248.264 296.152 248.76 296.152 249.4C296.152 250.04 296.32 250.536 296.656 250.888C297.008 251.24 297.44 251.416 297.952 251.416C298.464 251.416 298.888 251.24 299.224 250.888C299.576 250.536 299.752 250.04 299.752 249.4C299.752 248.76 299.576 248.264 299.224 247.912C298.888 247.56 298.464 247.384 297.952 247.384C297.44 247.384 297.008 247.56 296.656 247.912ZM301.912 261.16C301.352 260.6 301.072 259.84 301.072 258.88C301.072 257.92 301.352 257.16 301.912 256.6C302.472 256.04 303.176 255.76 304.024 255.76C304.872 255.76 305.576 256.04 306.136 256.6C306.696 257.16 306.976 257.92 306.976 258.88C306.976 259.84 306.696 260.6 306.136 261.16C305.576 261.72 304.872 262 304.024 262C303.176 262 302.472 261.72 301.912 261.16ZM302.728 257.392C302.392 257.744 302.224 258.24 302.224 258.88C302.224 259.52 302.392 260.016 302.728 260.368C303.08 260.72 303.512 260.896 304.024 260.896C304.536 260.896 304.96 260.72 305.296 260.368C305.648 260.016 305.824 259.52 305.824 258.88C305.824 258.24 305.648 257.744 305.296 257.392C304.96 257.04 304.536 256.864 304.024 256.864C303.512 256.864 303.08 257.04 302.728 257.392Z" fill="black"/>
<path d="M599 328L510.62 170H327" stroke="#F89494" stroke-width="2" stroke-linecap="square"/>
</svg>
