<svg width="64" height="64" viewBox="0 0 64 64" fill="none" xmlns="http://www.w3.org/2000/svg">
<path d="M48.238 17.2381H51.1904M14.2856 2.4762H49.7142C56.2364 2.4762 61.5237 7.7635 61.5237 14.2857V49.7143C61.5237 56.2365 56.2364 61.5238 49.7142 61.5238H14.2856C7.76338 61.5238 2.47607 56.2365 2.47607 49.7143V14.2857C2.47607 7.7635 7.76338 2.4762 14.2856 2.4762ZM31.9999 43.8095C25.4777 43.8095 20.1904 38.5222 20.1904 32C20.1904 25.4778 25.4777 20.1905 31.9999 20.1905C38.5221 20.1905 43.8094 25.4778 43.8094 32C43.8094 38.5222 38.5221 43.8095 31.9999 43.8095Z" stroke="#1890FF" stroke-width="4"/>
</svg>
