<svg width="334" height="126" viewBox="0 0 334 126" fill="none" xmlns="http://www.w3.org/2000/svg">
<path d="M4 100.882C26.6463 107.522 39.353 107.216 62 100.882C82.6313 96.5998 108.5 94.8826 117.5 100.883" stroke="#F89494" stroke-width="3" stroke-linecap="round" stroke-dasharray="6 6"/>
<path d="M301.508 119.974C278.875 113.29 266.167 113.57 243.508 119.859C222.868 124.1 196.996 125.766 188.008 119.748" stroke="#F89494" stroke-width="3" stroke-linecap="round" stroke-dasharray="6 6"/>
<path d="M4 109.765C26.6463 116.404 39.353 116.099 62 109.765C82.6313 105.482 108.5 103.765 117.5 109.765" stroke="#F89494" stroke-width="3" stroke-linecap="round"/>
<path d="M301.525 111.092C278.892 104.407 266.185 104.687 243.525 110.976C222.886 115.218 197.014 116.883 188.026 110.865" stroke="#F89494" stroke-width="3" stroke-linecap="round"/>
<path d="M4 118.765C26.6463 125.404 39.353 125.099 62 118.765C82.6313 114.482 108.5 112.765 117.5 118.765" stroke="#F89494" stroke-width="3" stroke-linecap="round"/>
<path d="M301.543 102.092C278.91 95.4075 266.203 95.6873 243.543 101.976C222.903 106.218 197.031 107.883 188.043 101.865" stroke="#F89494" stroke-width="3" stroke-linecap="round"/>
<path d="M20.9235 91.008C19.7075 91.008 18.6515 90.912 17.7555 90.72C16.2835 90.336 15.5475 89.568 15.5475 88.416C15.5475 87.52 15.9955 86.592 16.8915 85.632C17.7875 84.672 19.0355 83.968 20.6355 83.52C21.1475 83.52 21.3075 83.744 21.1155 84.192C20.9235 84.64 20.6355 85.12 20.2515 85.632C19.9315 86.208 19.7715 86.688 19.7715 87.072C19.7715 87.52 20.0915 87.744 20.7315 87.744C20.9235 87.744 21.1155 87.712 21.3075 87.648C21.5635 87.648 21.8195 87.616 22.0755 87.552C22.9075 87.36 24.0275 87.168 25.4355 86.976C26.9075 86.848 28.3475 86.688 29.7555 86.496C31.1635 86.368 32.2835 86.208 33.1155 86.016C34.5875 85.632 35.9955 85.056 37.3395 84.288C38.7475 83.584 39.9955 83.008 41.0835 82.56C41.2755 82.496 41.5315 82.464 41.8515 82.464C42.1715 82.464 42.4275 82.496 42.6195 82.56C42.8755 82.56 43.1315 82.464 43.3875 82.272C44.0275 81.952 44.6035 81.6 45.1155 81.216C45.6915 80.832 46.2035 80.416 46.6515 79.968C47.4195 79.264 48.0595 78.528 48.5715 77.76C49.0835 76.992 49.3395 76.192 49.3395 75.36C49.3395 74.464 49.0515 73.6 48.4755 72.768C47.8355 71.552 46.3315 70.4 43.9635 69.312C41.5955 68.16 38.9075 67.072 35.8995 66.048C35.3235 65.856 34.8115 65.568 34.3635 65.184C33.9795 64.736 33.5315 64.448 33.0195 64.32C32.8275 64.256 32.6355 64.224 32.4435 64.224C32.3155 64.16 32.1555 64.128 31.9635 64.128C31.5155 64.128 31.0675 64.16 30.6195 64.224C30.1715 64.288 29.6915 64.32 29.1795 64.32C28.2835 64.32 27.4195 64 26.5875 63.36C25.7555 62.72 24.9875 62.304 24.2835 62.112C19.2915 60.32 16.7955 57.76 16.7955 54.432C16.7955 52.512 17.4995 50.432 18.9075 48.192V48.288C19.1635 47.968 19.5155 47.808 19.9635 47.808C20.4755 47.808 20.7955 47.68 20.9235 47.424C21.2435 46.912 21.4355 46.304 21.4995 45.6C21.6275 44.832 21.7875 44.288 21.9795 43.968C22.8755 42.816 23.8355 41.664 24.8595 40.512C27.2275 37.952 29.8515 35.488 32.7315 33.12C35.6115 30.752 38.4915 28.704 41.3715 26.976C44.2515 25.184 46.8755 23.904 49.2435 23.136C51.8035 22.24 54.9075 21.344 58.5555 20.448C62.2035 19.488 65.6915 19.008 69.0195 19.008C71.9635 19.008 74.5235 19.552 76.6995 20.64C78.9395 21.728 80.2835 23.744 80.7315 26.688C80.8595 27.136 80.9235 27.552 80.9235 27.936C80.9235 28.32 80.9235 28.704 80.9235 29.088C80.9235 31.712 80.2835 34.08 79.0035 36.192C77.7875 38.24 76.4115 40.032 74.8755 41.568C73.4035 43.04 72.2515 44.32 71.4195 45.408C71.0995 45.856 70.7795 46.208 70.4595 46.464C70.1395 46.656 69.6915 47.008 69.1155 47.52C68.8595 47.776 68.4435 48.128 67.8675 48.576C67.2915 48.96 66.8115 49.312 66.4275 49.632C66.0435 49.952 65.3715 50.496 64.4115 51.264C63.4515 52.032 62.7795 52.48 62.3955 52.608C62.2035 52.672 61.9155 52.704 61.5315 52.704C60.8915 52.704 60.3155 52.512 59.8035 52.128C59.3555 51.68 59.1315 51.136 59.1315 50.496C59.1315 50.048 59.2595 49.536 59.5155 48.96C59.8355 48.32 60.3475 47.68 61.0515 47.04L61.2435 46.944C61.1795 46.944 61.6275 46.848 62.5875 46.656C63.6115 46.4 64.5715 45.92 65.4675 45.216C65.7875 44.896 66.2355 44.416 66.8115 43.776C67.3875 43.072 68.0275 42.304 68.7315 41.472C68.8595 41.344 69.0515 40.992 69.3075 40.416C69.5635 39.84 69.8195 39.424 70.0755 39.168C70.8435 38.144 71.4515 36.96 71.8995 35.616C72.4115 34.208 73.0515 32.864 73.8195 31.584V31.68C74.0755 31.168 74.2035 30.624 74.2035 30.048C74.2035 29.024 73.9795 27.872 73.5315 26.592C73.1475 25.312 72.6035 24.224 71.8995 23.328C71.1955 22.368 70.3955 21.952 69.4995 22.08C66.8115 22.4 63.9315 22.784 60.8595 23.232C57.7875 23.616 55.1635 24.192 52.9875 24.96C51.1955 25.6 49.3395 26.432 47.4195 27.456C45.5635 28.48 43.7075 29.632 41.8515 30.912C41.4035 31.232 40.9555 31.424 40.5075 31.488C40.1235 31.552 39.7395 31.744 39.3555 32.064C38.9075 32.448 38.4595 32.96 38.0115 33.6C37.5635 34.176 37.0835 34.624 36.5715 34.944C33.2435 37.824 30.4915 40.8 28.3155 43.872C26.2035 46.944 25.1475 49.728 25.1475 52.224C25.1475 53.824 25.6595 55.232 26.6835 56.448C27.7075 57.6 29.3395 58.496 31.5795 59.136C33.8195 59.712 36.2195 60.48 38.7795 61.44C41.4035 62.4 43.9315 63.456 46.3635 64.608C48.7955 65.696 50.8755 66.848 52.6035 68.064C54.3955 69.216 55.5155 70.336 55.9635 71.424C56.3475 72.256 56.5395 73.088 56.5395 73.92C56.5395 75.84 55.6755 77.664 53.9475 79.392C52.2195 81.12 49.9795 82.688 47.2275 84.096C44.4755 85.504 41.4995 86.72 38.2995 87.744C35.0995 88.768 31.9635 89.568 28.8915 90.144C25.8195 90.72 23.1635 91.008 20.9235 91.008Z" fill="#1890FF"/>
<path d="M90.1955 60.904C89.1715 60.904 88.3715 60.744 87.7955 60.424C87.2195 60.04 86.6755 59.656 86.1635 59.272C85.0115 58.312 84.4355 56.552 84.4355 53.992C84.4355 52.136 84.7875 50.024 85.4915 47.656C86.1955 45.224 87.3475 42.696 88.9475 40.072V40.168C89.6515 38.888 90.3555 37.608 91.0595 36.328C91.8275 35.048 92.6275 33.8 93.4595 32.584C93.7155 32.328 93.9715 32.168 94.2275 32.104C94.4835 31.976 94.6755 31.848 94.8035 31.72C94.8035 31.464 94.8675 31.112 94.9955 30.664C95.1875 30.152 95.4115 29.8 95.6675 29.608C96.8195 28.072 98.1315 26.92 99.6035 26.152C101.076 25.384 102.228 24.744 103.06 24.232H102.964C103.348 24.04 103.796 23.944 104.308 23.944C105.588 23.944 107.092 24.424 108.82 25.384C109.076 25.384 109.332 25.352 109.588 25.288C109.908 25.16 110.228 25.096 110.548 25.096C111.188 25.096 111.828 25.32 112.468 25.768C113.172 26.216 113.46 26.92 113.332 27.88C113.268 28.072 113.236 28.232 113.236 28.36C113.236 28.488 113.236 28.616 113.236 28.744C113.236 29.448 113.492 29.8 114.004 29.8C114.26 29.8 114.516 29.768 114.772 29.704C115.028 29.64 115.284 29.608 115.54 29.608C116.244 29.608 117.236 29.512 118.516 29.32C119.796 29.064 121.012 28.84 122.164 28.648C123.38 28.392 124.212 28.264 124.66 28.264C124.916 28.456 125.044 28.68 125.044 28.936C125.044 29.192 124.916 29.48 124.66 29.8C124.468 30.12 124.244 30.344 123.988 30.472C123.988 30.472 123.572 30.6 122.74 30.856C121.972 31.048 121.012 31.304 119.86 31.624C118.708 31.944 117.556 32.264 116.404 32.584C115.316 32.84 114.452 33 113.812 33.064L112.852 33.16C112.788 33.928 112.596 34.76 112.276 35.656C111.956 36.552 111.604 37.544 111.22 38.632C111.092 38.952 110.996 39.368 110.932 39.88C110.868 40.328 110.74 40.808 110.548 41.32C110.1 42.088 109.588 42.856 109.012 43.624C108.436 44.392 107.892 45.192 107.38 46.024C106.996 46.664 106.58 47.368 106.132 48.136C105.748 48.84 105.268 49.576 104.692 50.344C103.412 52.008 101.908 53.672 100.18 55.336C98.5155 56.936 96.7875 58.28 94.9955 59.368C93.2675 60.392 91.6675 60.904 90.1955 60.904ZM91.0595 57.736C92.3395 57.736 94.0995 56.84 96.3395 55.048C98.6435 53.192 100.788 50.824 102.772 47.944H102.676C103.188 47.176 103.7 46.28 104.212 45.256C104.788 44.232 105.236 43.368 105.556 42.664C105.556 42.664 105.716 42.472 106.036 42.088C106.42 41.704 106.804 41.288 107.188 40.84C107.572 40.328 107.796 39.944 107.859 39.688C107.924 39.56 107.956 39.4 107.956 39.208C107.956 39.08 107.924 38.984 107.859 38.92C107.859 38.792 107.859 38.6 107.859 38.344V38.248C108.244 37.288 108.564 36.424 108.82 35.656C109.076 34.888 109.236 34.216 109.3 33.64C108.852 33.64 108.148 33.608 107.188 33.544C106.228 33.48 105.428 33.416 104.788 33.352C104.212 33.288 104.212 33.256 104.788 33.256H105.076C105.076 33.192 104.788 33.064 104.212 32.872C103.636 32.68 103.188 32.52 102.868 32.392C102.676 32.456 102.484 32.488 102.292 32.488C101.972 32.488 101.716 32.424 101.524 32.296C101.396 32.168 101.236 32.2 101.044 32.392C100.788 32.648 100.628 32.968 100.564 33.352C100.5 33.736 100.244 34.152 99.7955 34.6L99.6995 34.696C99.6995 34.632 99.5395 34.696 99.2195 34.888C98.8995 35.08 98.7715 35.176 98.8355 35.176L98.7395 35.368C98.6115 35.432 98.5155 35.624 98.4515 35.944C98.4515 36.2 98.3555 36.488 98.1635 36.808C97.5235 37.832 96.8195 38.92 96.0515 40.072C95.3475 41.16 94.6755 42.216 94.0355 43.24V43.144C93.3955 44.296 92.7555 45.544 92.1155 46.888C91.4755 48.232 90.9955 49.544 90.6755 50.824C90.6755 51.144 90.6115 51.464 90.4835 51.784C90.4195 52.04 90.3875 52.264 90.3875 52.456V52.552C90.3875 53.256 90.2595 53.864 90.0035 54.376C89.7475 54.888 89.6195 55.4 89.6195 55.912C89.8115 56.36 89.8755 56.712 89.8115 56.968C89.7475 57.16 89.8435 57.32 90.0995 57.448C90.4195 57.64 90.7395 57.736 91.0595 57.736Z" fill="#1890FF"/>
<path d="M221.196 83.904C220.172 83.904 219.372 83.744 218.796 83.424C218.22 83.04 217.676 82.656 217.164 82.272C216.012 81.312 215.436 79.552 215.436 76.992C215.436 75.136 215.788 73.024 216.492 70.656C217.196 68.224 218.348 65.696 219.948 63.072V63.168C220.652 61.888 221.356 60.608 222.06 59.328C222.828 58.048 223.628 56.8 224.46 55.584C224.716 55.328 224.972 55.168 225.228 55.104C225.484 54.976 225.676 54.848 225.804 54.72C225.804 54.464 225.868 54.112 225.996 53.664C226.188 53.152 226.412 52.8 226.668 52.608C227.82 51.072 229.132 49.92 230.604 49.152C232.076 48.384 233.228 47.744 234.06 47.232H233.964C234.348 47.04 234.796 46.944 235.308 46.944C236.588 46.944 238.092 47.424 239.82 48.384C240.076 48.384 240.332 48.352 240.588 48.288C240.908 48.16 241.228 48.096 241.548 48.096C242.188 48.096 242.828 48.32 243.468 48.768C244.172 49.216 244.46 49.92 244.332 50.88C244.268 51.072 244.236 51.232 244.236 51.36C244.236 51.488 244.236 51.616 244.236 51.744C244.236 52.448 244.492 52.8 245.004 52.8C245.26 52.8 245.516 52.768 245.772 52.704C246.028 52.64 246.284 52.608 246.54 52.608C247.244 52.608 248.236 52.512 249.516 52.32C250.796 52.064 252.012 51.84 253.164 51.648C254.38 51.392 255.212 51.264 255.66 51.264C255.916 51.456 256.044 51.68 256.044 51.936C256.044 52.192 255.916 52.48 255.66 52.8C255.468 53.12 255.244 53.344 254.988 53.472C254.988 53.472 254.572 53.6 253.74 53.856C252.972 54.048 252.012 54.304 250.86 54.624C249.708 54.944 248.556 55.264 247.404 55.584C246.316 55.84 245.452 56 244.812 56.064L243.852 56.16C243.788 56.928 243.596 57.76 243.276 58.656C242.956 59.552 242.604 60.544 242.22 61.632C242.092 61.952 241.996 62.368 241.932 62.88C241.868 63.328 241.74 63.808 241.548 64.32C241.1 65.088 240.588 65.856 240.012 66.624C239.436 67.392 238.892 68.192 238.38 69.024C237.996 69.664 237.58 70.368 237.132 71.136C236.748 71.84 236.268 72.576 235.692 73.344C234.412 75.008 232.908 76.672 231.18 78.336C229.516 79.936 227.788 81.28 225.996 82.368C224.268 83.392 222.668 83.904 221.196 83.904ZM222.06 80.736C223.34 80.736 225.1 79.84 227.34 78.048C229.644 76.192 231.788 73.824 233.772 70.944H233.676C234.188 70.176 234.7 69.28 235.212 68.256C235.788 67.232 236.236 66.368 236.556 65.664C236.556 65.664 236.716 65.472 237.036 65.088C237.42 64.704 237.804 64.288 238.188 63.84C238.572 63.328 238.796 62.944 238.859 62.688C238.924 62.56 238.956 62.4 238.956 62.208C238.956 62.08 238.924 61.984 238.859 61.92C238.859 61.792 238.859 61.6 238.859 61.344V61.248C239.244 60.288 239.564 59.424 239.82 58.656C240.076 57.888 240.236 57.216 240.3 56.64C239.852 56.64 239.148 56.608 238.188 56.544C237.228 56.48 236.428 56.416 235.788 56.352C235.212 56.288 235.212 56.256 235.788 56.256H236.076C236.076 56.192 235.788 56.064 235.212 55.872C234.636 55.68 234.188 55.52 233.868 55.392C233.676 55.456 233.484 55.488 233.292 55.488C232.972 55.488 232.716 55.424 232.524 55.296C232.396 55.168 232.236 55.2 232.044 55.392C231.788 55.648 231.628 55.968 231.564 56.352C231.5 56.736 231.244 57.152 230.796 57.6L230.7 57.696C230.7 57.632 230.54 57.696 230.22 57.888C229.9 58.08 229.772 58.176 229.836 58.176L229.74 58.368C229.612 58.432 229.516 58.624 229.452 58.944C229.452 59.2 229.356 59.488 229.164 59.808C228.524 60.832 227.82 61.92 227.052 63.072C226.348 64.16 225.676 65.216 225.036 66.24V66.144C224.396 67.296 223.756 68.544 223.116 69.888C222.476 71.232 221.996 72.544 221.676 73.824C221.676 74.144 221.612 74.464 221.484 74.784C221.42 75.04 221.388 75.264 221.388 75.456V75.552C221.388 76.256 221.26 76.864 221.004 77.376C220.748 77.888 220.62 78.4 220.62 78.912C220.812 79.36 220.876 79.712 220.812 79.968C220.748 80.16 220.844 80.32 221.1 80.448C221.42 80.64 221.74 80.736 222.06 80.736Z" fill="#1890FF"/>
<path d="M130.93 91.776C130.162 91.776 129.778 91.168 129.778 89.952C129.778 89.312 129.97 88.064 130.354 86.208C130.802 84.352 131.538 82.432 132.562 80.448C133.01 79.552 133.586 78.4 134.29 76.992C135.058 75.584 135.826 74.144 136.594 72.672C137.362 71.2 138.066 69.856 138.706 68.64C139.41 67.424 139.954 66.528 140.338 65.952C141.106 64.736 141.97 63.392 142.93 61.92C143.954 60.448 144.946 59.04 145.906 57.696C146.93 56.288 147.794 55.104 148.498 54.144C149.266 53.184 149.714 52.608 149.842 52.416C149.842 52.288 150.066 51.968 150.514 51.456C150.962 50.88 151.442 50.272 151.954 49.632C152.53 48.928 153.01 48.32 153.394 47.808C153.842 47.296 154.066 47.04 154.066 47.04C154.834 46.016 155.762 44.864 156.85 43.584C158.002 42.24 159.122 40.896 160.21 39.552C161.362 38.208 162.354 37.056 163.186 36.096C163.506 35.648 163.986 34.848 164.626 33.696C165.33 32.48 165.906 31.648 166.354 31.2C166.802 30.816 167.314 30.304 167.89 29.664C168.53 28.96 169.106 28.48 169.618 28.224L170.002 28.032C167.186 28.096 164.53 28.288 162.034 28.608C159.602 28.864 157.298 29.248 155.122 29.76C154.098 30.016 153.202 30.304 152.434 30.624C151.666 30.88 150.834 31.168 149.938 31.488C149.17 31.744 148.37 32 147.538 32.256C146.706 32.448 145.938 32.704 145.234 33.024C142.162 34.432 139.858 35.936 138.322 37.536C136.85 39.136 136.114 40.384 136.114 41.28V41.568C136.114 42.016 136.178 42.464 136.306 42.912C136.498 43.36 136.786 43.424 137.17 43.104C137.49 42.912 137.746 42.816 137.938 42.816C138.514 42.816 138.802 43.104 138.802 43.68C138.802 44.128 138.546 44.512 138.034 44.832C137.522 45.28 136.786 45.664 135.826 45.984C134.866 46.304 134.226 46.464 133.906 46.464C132.562 46.464 131.346 46.432 130.258 46.368C129.17 46.24 128.402 45.824 127.954 45.12C127.89 44.672 127.89 44.096 127.954 43.392C128.082 42.688 128.37 41.92 128.818 41.088C128.946 40.96 128.978 40.704 128.914 40.32C128.914 39.936 129.042 39.616 129.298 39.36H129.202C129.458 39.04 129.746 38.88 130.066 38.88C130.45 38.816 130.674 38.72 130.738 38.592C132.594 36.352 135.666 34.08 139.954 31.776C144.242 29.408 149.97 27.712 157.138 26.688C157.458 26.624 157.81 26.592 158.194 26.592C158.642 26.592 158.706 26.592 158.386 26.592H158.29C158.162 26.592 158.482 26.528 159.25 26.4C160.082 26.272 160.946 26.144 161.842 26.016C162.738 25.824 163.25 25.728 163.378 25.728C164.722 25.536 165.874 25.44 166.834 25.44C167.986 25.44 169.138 25.504 170.29 25.632C171.442 25.76 172.978 25.856 174.898 25.92C182.642 26.048 189.266 27.008 194.77 28.8C200.274 30.592 204.466 33.056 207.346 36.192C210.29 39.264 211.762 42.848 211.762 46.944C211.762 49.44 211.186 52.064 210.034 54.816C208.946 57.568 207.218 60.448 204.85 63.456C201.97 67.104 198.866 70.112 195.538 72.48C192.274 74.848 189.042 76.864 185.842 78.528C182.642 80.128 179.73 81.696 177.106 83.232C174.61 84.704 171.858 85.888 168.85 86.784C165.842 87.744 162.994 88.448 160.306 88.896C157.618 89.408 155.538 89.792 154.066 90.048C151.378 90.432 148.754 90.624 146.194 90.624C144.338 90.624 142.674 90.528 141.202 90.336C139.794 90.144 138.738 89.824 138.034 89.376C137.138 88.864 136.69 88 136.69 86.784C136.69 86.08 136.85 85.472 137.17 84.96C137.554 84.448 138.066 84.192 138.706 84.192C139.538 84.192 140.434 84.64 141.394 85.536C142.034 86.112 142.898 86.496 143.986 86.688C145.074 86.944 146.098 87.072 147.058 87.072C148.082 87.072 148.722 87.072 148.978 87.072C149.234 87.136 149.522 87.168 149.842 87.168C150.162 87.168 150.482 87.168 150.802 87.168C152.146 87.168 153.746 87.04 155.602 86.784C157.522 86.528 159.474 86.208 161.458 85.824C163.442 85.44 165.266 85.024 166.93 84.576C168.594 84.128 169.906 83.68 170.866 83.232C177.906 79.84 183.73 76.608 188.338 73.536C192.946 70.464 196.626 66.976 199.378 63.072C200.85 61.088 201.938 58.912 202.642 56.544C203.41 54.176 203.794 51.808 203.794 49.44C203.794 47.584 203.57 45.792 203.122 44.064C202.674 42.272 201.906 40.576 200.818 38.976C199.858 37.44 198.258 36 196.018 34.656C193.842 33.248 191.282 32.032 188.338 31.008C185.394 29.92 182.258 29.12 178.93 28.608C178.802 29.504 178.482 30.528 177.97 31.68C177.458 32.832 176.562 33.952 175.282 35.04C174.514 35.744 173.522 36.448 172.306 37.152C171.154 37.792 170.322 38.464 169.81 39.168C169.362 39.872 168.562 40.64 167.41 41.472C166.322 42.304 165.234 43.072 164.146 43.776C163.122 44.48 162.418 45.056 162.034 45.504C161.778 45.824 161.266 46.432 160.498 47.328C159.794 48.224 158.994 49.216 158.098 50.304C157.266 51.392 156.498 52.384 155.794 53.28C155.09 54.176 154.61 54.784 154.354 55.104C152.178 57.728 150.546 59.84 149.458 61.44C148.434 62.976 147.698 64.16 147.25 64.992C146.866 65.824 146.546 66.464 146.29 66.912H146.194C145.746 67.744 144.946 68.576 143.794 69.408C142.642 70.176 141.906 70.848 141.586 71.424C141.138 72.448 140.466 73.664 139.57 75.072C138.674 76.416 138.13 77.44 137.938 78.144C137.746 78.592 137.202 79.456 136.306 80.736C135.41 82.016 134.674 83.872 134.098 86.304C133.65 88.288 133.106 89.696 132.466 90.528C131.89 91.36 131.378 91.776 130.93 91.776Z" fill="#1890FF"/>
<path d="M270.466 85.44C269.506 85.44 268.834 85.344 268.45 85.152C268.13 84.96 267.906 84.896 267.778 84.96C267.394 84.896 266.978 84.576 266.53 84C266.146 83.424 265.954 82.816 265.954 82.176C265.954 81.728 266.018 81.408 266.146 81.216C266.53 80.448 266.882 79.808 267.202 79.296C267.522 78.784 268.514 78.528 270.178 78.528C271.714 78.528 272.61 78.656 272.866 78.912C273.186 79.168 273.378 79.392 273.442 79.584C273.506 79.776 273.922 79.84 274.69 79.776C275.01 79.776 275.458 79.712 276.034 79.584C276.61 79.392 277.25 79.296 277.954 79.296C278.274 78.272 278.722 76.928 279.298 75.264C279.938 73.536 280.77 71.392 281.794 68.832V68.736C282.754 67.264 283.586 65.728 284.29 64.128C285.058 62.528 285.762 61.12 286.402 59.904V60.096C286.402 60.224 286.754 59.744 287.458 58.656C288.162 57.568 289.026 56.16 290.05 54.432C291.138 52.704 292.226 50.944 293.314 49.152C294.402 47.296 295.362 45.696 296.194 44.352C297.026 43.008 297.57 42.176 297.826 41.856C297.89 41.536 298.146 41.024 298.594 40.32C299.106 39.552 299.394 39.136 299.458 39.072H299.362C300.066 37.92 300.546 37.056 300.802 36.48C301.058 35.904 301.346 35.328 301.666 34.752C301.986 34.176 302.53 33.344 303.298 32.256C303.426 31.936 303.65 31.584 303.97 31.2C304.354 30.816 304.706 30.4 305.026 29.952C303.362 30.208 301.762 30.464 300.226 30.72C298.69 30.912 297.282 31.072 296.002 31.2C295.682 31.136 295.234 31.264 294.658 31.584C294.082 31.84 293.602 32.096 293.218 32.352C292.898 32.608 292.898 32.736 293.218 32.736H293.314C292.482 32.992 291.746 33.12 291.106 33.12C290.53 33.056 290.21 33.024 290.146 33.024V32.928C289.442 32.352 289.09 31.424 289.09 30.144C289.09 29.312 289.282 28.512 289.666 27.744C290.05 26.912 290.626 26.4 291.394 26.208C291.522 26.208 291.65 26.208 291.778 26.208C291.906 26.144 292.002 26.112 292.066 26.112C292.514 26.112 292.898 26.176 293.218 26.304C293.538 26.368 293.922 26.4 294.37 26.4C295.01 26.4 295.714 26.24 296.482 25.92C297.058 25.664 298.498 25.44 300.802 25.248C303.17 25.056 305.89 24.864 308.962 24.672L309.73 24C309.73 24 310.114 23.872 310.882 23.616C311.714 23.296 312.706 23.008 313.858 22.752C315.01 22.432 316.034 22.272 316.93 22.272C318.338 22.272 319.074 22.72 319.138 23.616L319.042 24.192C322.69 24 325.826 23.904 328.45 23.904C329.73 23.904 330.754 23.936 331.522 24C332.354 24 332.802 24 332.866 24H333.058C333.57 24.448 333.826 24.928 333.826 25.44C333.826 26.08 333.506 26.592 332.866 26.976C332.226 27.36 331.81 27.328 331.618 26.88C331.746 26.816 331.458 26.752 330.754 26.688C330.114 26.624 329.154 26.624 327.874 26.688C327.618 26.624 327.298 26.784 326.914 27.168C326.53 27.488 326.082 27.68 325.57 27.744C325.186 27.744 324.802 27.68 324.418 27.552C324.034 27.36 323.682 27.264 323.362 27.264C322.338 27.264 321.218 27.392 320.002 27.648C318.85 27.84 317.634 28.032 316.354 28.224C315.97 28.672 315.554 29.088 315.106 29.472C314.722 29.856 314.274 30.304 313.762 30.816C313.058 31.52 312.29 32.352 311.458 33.312C310.626 34.208 309.922 35.072 309.346 35.904H309.442C308.738 37.056 307.874 38.144 306.85 39.168C305.826 40.128 305.026 40.992 304.45 41.76C303.938 42.464 303.33 43.04 302.626 43.488C301.922 43.936 301.346 44.448 300.898 45.024C297.762 49.312 295.298 52.96 293.506 55.968C291.778 58.976 290.722 60.832 290.338 61.536C290.082 62.048 289.698 62.816 289.186 63.84C288.738 64.864 288.29 65.888 287.842 66.912C287.458 67.936 287.17 68.704 286.978 69.216C286.594 70.304 286.242 71.072 285.922 71.52C285.602 71.904 285.314 72.48 285.058 73.248V73.152C285.058 72.896 285.026 73.216 284.962 74.112C284.962 75.008 284.962 75.776 284.962 76.416C284.962 77.568 285.026 78.08 285.154 77.952C285.218 77.888 285.314 77.952 285.442 78.144L285.538 78.336C287.202 78.016 288.866 77.728 290.53 77.472C292.258 77.216 293.794 77.088 295.138 77.088C296.482 77.152 297.538 77.216 298.306 77.28C299.074 77.344 299.362 77.632 299.17 78.144C299.042 78.208 298.978 78.432 298.978 78.816C299.042 79.2 298.402 79.584 297.058 79.968C295.842 80.288 294.146 80.704 291.97 81.216C289.858 81.664 287.746 82.048 285.634 82.368C285.378 82.816 285.09 83.328 284.77 83.904C284.45 84.416 284.098 84.736 283.714 84.864H283.906C283.714 84.992 283.33 85.056 282.754 85.056C282.178 85.056 281.634 84.96 281.122 84.768C280.674 84.64 280.45 84.576 280.45 84.576L280.258 84.48C280.258 84.352 280.098 84.256 279.778 84.192C279.522 84.192 279.266 84.096 279.01 83.904C278.946 83.84 278.818 83.744 278.626 83.616C278.498 83.488 278.37 83.36 278.242 83.232C277.794 83.36 277.282 83.552 276.706 83.808C276.194 84.064 275.682 84.192 275.17 84.192C274.658 84.192 273.89 84.384 272.866 84.768C271.906 85.216 271.106 85.44 270.466 85.44Z" fill="#1890FF"/>
<path d="M232.661 28.9171C244.972 26.7515 252.869 28.124 261.104 35.5699" stroke="#F89494" stroke-width="3" stroke-linecap="round"/>
<circle cx="4" cy="4" r="4" transform="matrix(-1 0 0 1 88 72)" fill="#F89494"/>
</svg>
