<svg width="23" height="22" viewBox="0 0 23 22" fill="none" xmlns="http://www.w3.org/2000/svg">
<path d="M21.4691 2.5L22.4669 2.43385C22.4403 2.0327 22.1761 1.68649 21.7962 1.555C21.4163 1.42351 20.9946 1.53231 20.7257 1.83119L21.4691 2.5ZM21.0428 6.72701C21.0428 6.17472 20.5951 5.72701 20.0428 5.72701C19.4905 5.72701 19.0428 6.17472 19.0428 6.72701H21.0428ZM11.5 8V9H12.5V8H11.5ZM2.92637 2.5L3.86287 2.14935C3.72334 1.77668 3.37612 1.52221 2.97873 1.50137C2.58133 1.48054 2.20941 1.6973 2.03166 2.05334L2.92637 2.5ZM8.5 15.5L9.20766 16.2066C9.45238 15.9615 9.55284 15.6072 9.47321 15.2701C9.39358 14.933 9.1452 14.6611 8.81667 14.5515L8.5 15.5ZM1.5 18.2143V17.2143C1.05946 17.2143 0.670822 17.5026 0.543011 17.9242C0.415201 18.3457 0.578333 18.8013 0.944707 19.0459L1.5 18.2143ZM18.9515 3.89054L18.2098 4.56123L18.5701 4.95972L19.1013 4.87927L18.9515 3.89054ZM20.4713 2.56615C20.544 3.66294 20.4734 4.29179 20.3125 4.74527C20.1591 5.17785 19.8897 5.54739 19.3509 6.06369L20.7346 7.50774C21.3745 6.8946 21.8944 6.26832 22.1974 5.41392C22.4931 4.58043 22.5463 3.63114 22.4669 2.43385L20.4713 2.56615ZM21.0428 7.76785V6.78571H19.0428V7.76785H21.0428ZM21.0428 6.78571V6.72701H19.0428V6.78571H21.0428ZM10.5 7V8H12.5V7H10.5ZM15.8223 1.5C12.8235 1.5 10.5 4.10066 10.5 7H12.5C12.5 5.10062 14.0298 3.5 15.8223 3.5V1.5ZM19.0428 7.76785C19.0428 13.7937 13.9765 19 8 19V21C15.1201 21 21.0428 14.8588 21.0428 7.76785H19.0428ZM1.98986 2.85065C2.80654 5.03184 5.83814 9 11.5 9V7C6.89202 7 4.47256 3.77768 3.86287 2.14935L1.98986 2.85065ZM2.03166 2.05334C0.511097 5.09917 0.226447 8.12288 1.31373 10.7248C2.40104 13.3269 4.77867 15.3119 8.18333 16.4485L8.81667 14.5515C5.80268 13.5452 3.96713 11.8874 3.1591 9.95372C2.35104 8.01998 2.4889 5.61511 3.82107 2.94666L2.03166 2.05334ZM7.79234 14.7934C6.98383 15.6032 4.60002 17.2143 1.5 17.2143V19.2143C5.24654 19.2143 8.11438 17.3015 9.20766 16.2066L7.79234 14.7934ZM19.6933 3.21986C18.7396 2.16519 17.358 1.5 15.8223 1.5V3.5C16.7687 3.5 17.6189 3.9078 18.2098 4.56123L19.6933 3.21986ZM19.1013 4.87927C20.2557 4.70443 21.3748 4.10002 22.2126 3.16881L20.7257 1.83119C20.1856 2.43161 19.4805 2.79902 18.8018 2.90182L19.1013 4.87927ZM0.944707 19.0459C3.30076 20.6191 5.57113 21 8 21V19C5.81913 19 3.97834 18.6666 2.05529 17.3826L0.944707 19.0459Z" fill="white"/>
</svg>
