<svg width="64" height="62" viewBox="0 0 64 62" fill="none" xmlns="http://www.w3.org/2000/svg">
<path d="M61.4326 5.90479L63.4282 5.77248C63.375 4.97019 62.8465 4.27776 62.0867 4.01478C61.3269 3.75181 60.4835 3.96941 59.9457 4.56717L61.4326 5.90479ZM59.2214 18.3845C59.2214 17.28 58.326 16.3845 57.2214 16.3845C56.1168 16.3845 55.2214 17.28 55.2214 18.3845H59.2214ZM31.9999 22.1429V24.1429H33.9999V22.1429H31.9999ZM6.68725 5.90479L8.56027 5.20349C8.2812 4.45815 7.58676 3.9492 6.79197 3.90753C5.99719 3.86586 5.25333 4.29939 4.89785 5.01146L6.68725 5.90479ZM23.1427 44.2857L24.5581 45.6989C25.0475 45.2086 25.2484 44.5001 25.0892 43.8259C24.9299 43.1518 24.4331 42.608 23.7761 42.3887L23.1427 44.2857ZM2.47607 52.2994V50.2994C1.595 50.2994 0.817718 50.8759 0.562097 51.7191C0.306476 52.5623 0.632741 53.4734 1.36549 53.9627L2.47607 52.2994ZM53.9996 10.0102L52.5161 11.3516L53.2367 12.1485L54.2991 11.9877L53.9996 10.0102ZM59.437 6.03709C59.6548 9.32309 59.4545 11.3323 58.9154 12.8521C58.3911 14.3301 57.4765 15.5434 55.8377 17.1138L58.6051 20.0019C60.4461 18.2378 61.8617 16.511 62.6852 14.1894C63.494 11.9096 63.6594 9.25949 63.4282 5.77248L59.437 6.03709ZM59.2214 21.4575V18.5578H55.2214V21.4575H59.2214ZM59.2214 18.5578V18.3845H55.2214V18.5578H59.2214ZM29.9999 19.1905V22.1429H33.9999V19.1905H29.9999ZM44.7609 3.90479C36.4817 3.90479 29.9999 11.1067 29.9999 19.1905H33.9999C33.9999 13.1066 38.8944 7.90479 44.7609 7.90479V3.90479ZM55.2214 21.4575C55.2214 39.7552 39.8559 55.5715 21.6666 55.5715V59.5715C42.1431 59.5715 59.2214 41.8855 59.2214 21.4575H55.2214ZM4.81424 6.60608C7.12683 12.7825 15.7858 24.1429 31.9999 24.1429V20.1429C17.8935 20.1429 10.4589 10.2742 8.56027 5.20349L4.81424 6.60608ZM4.89785 5.01146C0.498269 13.8242 -0.272227 22.4567 2.80488 29.8205C5.88204 37.1844 12.6436 42.8891 22.5094 46.1828L23.7761 42.3887C14.6916 39.3558 9.01422 34.3055 6.49561 28.2782C3.97697 22.2509 4.45388 14.8561 8.47666 6.79811L4.89785 5.01146ZM21.7274 42.8726C19.2048 45.3992 11.9364 50.2994 2.47607 50.2994V54.2994C13.2294 54.2994 21.4659 48.7959 24.5581 45.6989L21.7274 42.8726ZM55.4831 8.66883C52.8403 5.7461 49.0143 3.90479 44.7609 3.90479V7.90479C47.8356 7.90479 50.599 9.23132 52.5161 11.3516L55.4831 8.66883ZM54.2991 11.9877C57.4808 11.5058 60.5878 9.83417 62.9194 7.2424L59.9457 4.56717C58.2093 6.49736 55.9306 7.69494 53.7001 8.03275L54.2991 11.9877ZM1.36549 53.9627C8.11526 58.4695 14.6137 59.5715 21.6666 59.5715V55.5715C15.1097 55.5715 9.47042 54.5646 3.58666 50.636L1.36549 53.9627Z" fill="#1890FF"/>
</svg>
